solid OpenSCAD_Model
  facet normal -1 0 0
    outer loop
      vertex 0 59 0
      vertex 0 34 30
      vertex 0 59 50
    endloop
  endfacet
  facet normal -1 0 0
    outer loop
      vertex 0 59 0
      vertex 0 31 27
      vertex 0 34 30
    endloop
  endfacet
  facet normal -1 0 0
    outer loop
      vertex 0 59 0
      vertex 0 28 27
      vertex 0 31 27
    endloop
  endfacet
  facet normal -1 0 0
    outer loop
      vertex 0 28 27
      vertex 0 25 30
      vertex 0 28 30
    endloop
  endfacet
  facet normal -1 0 0
    outer loop
      vertex 0 0 50
      vertex 0 25 30
      vertex 0 0 0
    endloop
  endfacet
  facet normal -1 -0 0
    outer loop
      vertex 0 28 27
      vertex 0 0 0
      vertex 0 25 30
    endloop
  endfacet
  facet normal -1 0 0
    outer loop
      vertex 0 0 0
      vertex 0 28 27
      vertex 0 59 0
    endloop
  endfacet
  facet normal -1 0 0
    outer loop
      vertex 0 34 33
      vertex 0 59 50
      vertex 0 34 30
    endloop
  endfacet
  facet normal -1 0 0
    outer loop
      vertex 0 25 33
      vertex 0 59 50
      vertex 0 34 33
    endloop
  endfacet
  facet normal -1 0 0
    outer loop
      vertex 0 25 33
      vertex 0 0 50
      vertex 0 59 50
    endloop
  endfacet
  facet normal -1 0 0
    outer loop
      vertex 0 25 30
      vertex 0 0 50
      vertex 0 25 33
    endloop
  endfacet
  facet normal -1 -0 0
    outer loop
      vertex 0 34 30
      vertex 0 31 27
      vertex 0 31 30
    endloop
  endfacet
  facet normal 0 0 1
    outer loop
      vertex 49 59 50
      vertex 46 56 50
      vertex 49 0 50
    endloop
  endfacet
  facet normal 0 0 1
    outer loop
      vertex 49 59 50
      vertex 3 56 50
      vertex 46 56 50
    endloop
  endfacet
  facet normal 0 0 1
    outer loop
      vertex 3 56 50
      vertex 0 59 50
      vertex 3 3 50
    endloop
  endfacet
  facet normal -0 0 1
    outer loop
      vertex 0 59 50
      vertex 3 56 50
      vertex 49 59 50
    endloop
  endfacet
  facet normal -0 0 1
    outer loop
      vertex 46 3 50
      vertex 49 0 50
      vertex 46 56 50
    endloop
  endfacet
  facet normal -0 0 1
    outer loop
      vertex 3 3 50
      vertex 49 0 50
      vertex 46 3 50
    endloop
  endfacet
  facet normal 0 0 1
    outer loop
      vertex 3 3 50
      vertex 0 0 50
      vertex 49 0 50
    endloop
  endfacet
  facet normal 0 0 1
    outer loop
      vertex 0 0 50
      vertex 3 3 50
      vertex 0 59 50
    endloop
  endfacet
  facet normal 1 -0 0
    outer loop
      vertex 49 0 50
      vertex 49 59 0
      vertex 49 59 50
    endloop
  endfacet
  facet normal 1 0 0
    outer loop
      vertex 49 59 0
      vertex 49 0 50
      vertex 49 0 0
    endloop
  endfacet
  facet normal 0 1 0
    outer loop
      vertex 23 59 30
      vertex 23 59 27
      vertex 20 59 30
    endloop
  endfacet
  facet normal 0 1 0
    outer loop
      vertex 49 59 50
      vertex 29 59 33
      vertex 0 59 50
    endloop
  endfacet
  facet normal 0 1 0
    outer loop
      vertex 49 59 50
      vertex 29 59 30
      vertex 29 59 33
    endloop
  endfacet
  facet normal 0 1 0
    outer loop
      vertex 29 59 30
      vertex 26 59 27
      vertex 26 59 30
    endloop
  endfacet
  facet normal 0 1 -0
    outer loop
      vertex 49 59 0
      vertex 29 59 30
      vertex 49 59 50
    endloop
  endfacet
  facet normal 0 1 0
    outer loop
      vertex 26 59 27
      vertex 49 59 0
      vertex 23 59 27
    endloop
  endfacet
  facet normal 0 1 0
    outer loop
      vertex 29 59 30
      vertex 49 59 0
      vertex 26 59 27
    endloop
  endfacet
  facet normal 0 1 -0
    outer loop
      vertex 20 59 33
      vertex 0 59 50
      vertex 29 59 33
    endloop
  endfacet
  facet normal 0 1 -0
    outer loop
      vertex 20 59 30
      vertex 0 59 50
      vertex 20 59 33
    endloop
  endfacet
  facet normal 0 1 0
    outer loop
      vertex 0 59 0
      vertex 20 59 30
      vertex 23 59 27
    endloop
  endfacet
  facet normal 0 1 0
    outer loop
      vertex 0 59 0
      vertex 23 59 27
      vertex 49 59 0
    endloop
  endfacet
  facet normal 0 1 0
    outer loop
      vertex 20 59 30
      vertex 0 59 0
      vertex 0 59 50
    endloop
  endfacet
  facet normal 0 0 -1
    outer loop
      vertex 0 0 0
      vertex 49 59 0
      vertex 49 0 0
    endloop
  endfacet
  facet normal -0 0 -1
    outer loop
      vertex 49 59 0
      vertex 0 0 0
      vertex 0 59 0
    endloop
  endfacet
  facet normal 0 -1 0
    outer loop
      vertex 0 0 0
      vertex 49 0 50
      vertex 0 0 50
    endloop
  endfacet
  facet normal 0 -1 -0
    outer loop
      vertex 49 0 50
      vertex 0 0 0
      vertex 49 0 0
    endloop
  endfacet
  facet normal 1 0 0
    outer loop
      vertex 3 56 50
      vertex 3 53 43
      vertex 3 56 43
    endloop
  endfacet
  facet normal 1 0 0
    outer loop
      vertex 3 53 43
      vertex 3 51 43
      vertex 3 53 3
    endloop
  endfacet
  facet normal 1 0 0
    outer loop
      vertex 3 56 50
      vertex 3 51 43
      vertex 3 53 43
    endloop
  endfacet
  facet normal 1 0 0
    outer loop
      vertex 3 56 50
      vertex 3 48 43
      vertex 3 51 43
    endloop
  endfacet
  facet normal 1 0 0
    outer loop
      vertex 3 48 43
      vertex 3 46 43
      vertex 3 48 3
    endloop
  endfacet
  facet normal 1 0 0
    outer loop
      vertex 3 56 50
      vertex 3 46 43
      vertex 3 48 43
    endloop
  endfacet
  facet normal 1 0 0
    outer loop
      vertex 3 56 50
      vertex 3 43 43
      vertex 3 46 43
    endloop
  endfacet
  facet normal 1 0 0
    outer loop
      vertex 3 43 43
      vertex 3 41 43
      vertex 3 43 3
    endloop
  endfacet
  facet normal 1 0 0
    outer loop
      vertex 3 56 50
      vertex 3 41 43
      vertex 3 43 43
    endloop
  endfacet
  facet normal 1 0 0
    outer loop
      vertex 3 56 50
      vertex 3 38 43
      vertex 3 41 43
    endloop
  endfacet
  facet normal 1 0 0
    outer loop
      vertex 3 38 43
      vertex 3 36 43
      vertex 3 38 3
    endloop
  endfacet
  facet normal 1 0 0
    outer loop
      vertex 3 56 50
      vertex 3 36 43
      vertex 3 38 43
    endloop
  endfacet
  facet normal 1 0 0
    outer loop
      vertex 3 56 50
      vertex 3 33 43
      vertex 3 36 43
    endloop
  endfacet
  facet normal 1 0 0
    outer loop
      vertex 3 33 43
      vertex 3 31 43
      vertex 3 33 3
    endloop
  endfacet
  facet normal 1 0 0
    outer loop
      vertex 3 56 50
      vertex 3 31 43
      vertex 3 33 43
    endloop
  endfacet
  facet normal 1 0 0
    outer loop
      vertex 3 56 50
      vertex 3 28 43
      vertex 3 31 43
    endloop
  endfacet
  facet normal 1 0 0
    outer loop
      vertex 3 28 43
      vertex 3 26 43
      vertex 3 28 3
    endloop
  endfacet
  facet normal 1 -0 0
    outer loop
      vertex 3 3 50
      vertex 3 28 43
      vertex 3 56 50
    endloop
  endfacet
  facet normal 1 0 0
    outer loop
      vertex 3 28 43
      vertex 3 3 50
      vertex 3 26 43
    endloop
  endfacet
  facet normal 1 0 0
    outer loop
      vertex 3 23 43
      vertex 3 21 43
      vertex 3 23 3
    endloop
  endfacet
  facet normal 1 0 0
    outer loop
      vertex 3 26 43
      vertex 3 3 50
      vertex 3 23 43
    endloop
  endfacet
  facet normal 1 0 0
    outer loop
      vertex 3 23 43
      vertex 3 3 50
      vertex 3 21 43
    endloop
  endfacet
  facet normal 1 0 0
    outer loop
      vertex 3 18 43
      vertex 3 16 43
      vertex 3 18 3
    endloop
  endfacet
  facet normal 1 0 0
    outer loop
      vertex 3 21 43
      vertex 3 3 50
      vertex 3 18 43
    endloop
  endfacet
  facet normal 1 0 0
    outer loop
      vertex 3 18 43
      vertex 3 3 50
      vertex 3 16 43
    endloop
  endfacet
  facet normal 1 0 0
    outer loop
      vertex 3 13 43
      vertex 3 11 43
      vertex 3 13 3
    endloop
  endfacet
  facet normal 1 0 0
    outer loop
      vertex 3 16 43
      vertex 3 3 50
      vertex 3 13 43
    endloop
  endfacet
  facet normal 1 0 0
    outer loop
      vertex 3 13 43
      vertex 3 3 50
      vertex 3 11 43
    endloop
  endfacet
  facet normal 1 0 0
    outer loop
      vertex 3 8 43
      vertex 3 6 43
      vertex 3 8 3
    endloop
  endfacet
  facet normal 1 0 0
    outer loop
      vertex 3 11 43
      vertex 3 3 50
      vertex 3 8 43
    endloop
  endfacet
  facet normal 1 0 0
    outer loop
      vertex 3 8 43
      vertex 3 3 50
      vertex 3 6 43
    endloop
  endfacet
  facet normal 1 0 0
    outer loop
      vertex 3 6 43
      vertex 3 3 50
      vertex 3 3 43
    endloop
  endfacet
  facet normal 1 0 0
    outer loop
      vertex 3 53 3
      vertex 3 51 43
      vertex 3 51 3
    endloop
  endfacet
  facet normal 1 0 0
    outer loop
      vertex 3 48 3
      vertex 3 46 43
      vertex 3 46 3
    endloop
  endfacet
  facet normal 1 0 0
    outer loop
      vertex 3 43 3
      vertex 3 41 43
      vertex 3 41 3
    endloop
  endfacet
  facet normal 1 0 0
    outer loop
      vertex 3 38 3
      vertex 3 36 43
      vertex 3 36 3
    endloop
  endfacet
  facet normal 1 0 0
    outer loop
      vertex 3 33 3
      vertex 3 31 43
      vertex 3 31 3
    endloop
  endfacet
  facet normal 1 0 0
    outer loop
      vertex 3 28 3
      vertex 3 26 43
      vertex 3 26 3
    endloop
  endfacet
  facet normal 1 0 0
    outer loop
      vertex 3 23 3
      vertex 3 21 43
      vertex 3 21 3
    endloop
  endfacet
  facet normal 1 0 0
    outer loop
      vertex 3 18 3
      vertex 3 16 43
      vertex 3 16 3
    endloop
  endfacet
  facet normal 1 0 0
    outer loop
      vertex 3 13 3
      vertex 3 11 43
      vertex 3 11 3
    endloop
  endfacet
  facet normal 1 0 0
    outer loop
      vertex 3 8 3
      vertex 3 6 43
      vertex 3 6 3
    endloop
  endfacet
  facet normal -1 0 0
    outer loop
      vertex 46 8 3
      vertex 46 6 3
      vertex 46 8 43
    endloop
  endfacet
  facet normal -1 0 0
    outer loop
      vertex 46 13 3
      vertex 46 11 3
      vertex 46 13 43
    endloop
  endfacet
  facet normal -1 0 0
    outer loop
      vertex 46 18 3
      vertex 46 16 3
      vertex 46 18 43
    endloop
  endfacet
  facet normal -1 0 0
    outer loop
      vertex 46 23 3
      vertex 46 21 3
      vertex 46 23 43
    endloop
  endfacet
  facet normal -1 0 0
    outer loop
      vertex 46 28 3
      vertex 46 26 3
      vertex 46 28 43
    endloop
  endfacet
  facet normal -1 0 0
    outer loop
      vertex 46 33 3
      vertex 46 31 3
      vertex 46 33 43
    endloop
  endfacet
  facet normal -1 0 0
    outer loop
      vertex 46 38 3
      vertex 46 36 3
      vertex 46 38 43
    endloop
  endfacet
  facet normal -1 0 0
    outer loop
      vertex 46 43 3
      vertex 46 41 3
      vertex 46 43 43
    endloop
  endfacet
  facet normal -1 0 0
    outer loop
      vertex 46 48 3
      vertex 46 46 3
      vertex 46 48 43
    endloop
  endfacet
  facet normal -1 0 0
    outer loop
      vertex 46 53 3
      vertex 46 51 3
      vertex 46 53 43
    endloop
  endfacet
  facet normal -1 0 0
    outer loop
      vertex 46 53 43
      vertex 46 56 50
      vertex 46 56 43
    endloop
  endfacet
  facet normal -1 0 0
    outer loop
      vertex 46 51 43
      vertex 46 53 43
      vertex 46 51 3
    endloop
  endfacet
  facet normal -1 0 0
    outer loop
      vertex 46 51 43
      vertex 46 56 50
      vertex 46 53 43
    endloop
  endfacet
  facet normal -1 0 0
    outer loop
      vertex 46 48 43
      vertex 46 56 50
      vertex 46 51 43
    endloop
  endfacet
  facet normal -1 0 0
    outer loop
      vertex 46 46 43
      vertex 46 48 43
      vertex 46 46 3
    endloop
  endfacet
  facet normal -1 0 0
    outer loop
      vertex 46 46 43
      vertex 46 56 50
      vertex 46 48 43
    endloop
  endfacet
  facet normal -1 0 0
    outer loop
      vertex 46 43 43
      vertex 46 56 50
      vertex 46 46 43
    endloop
  endfacet
  facet normal -1 0 0
    outer loop
      vertex 46 41 43
      vertex 46 43 43
      vertex 46 41 3
    endloop
  endfacet
  facet normal -1 0 0
    outer loop
      vertex 46 41 43
      vertex 46 56 50
      vertex 46 43 43
    endloop
  endfacet
  facet normal -1 0 0
    outer loop
      vertex 46 38 43
      vertex 46 56 50
      vertex 46 41 43
    endloop
  endfacet
  facet normal -1 0 0
    outer loop
      vertex 46 36 43
      vertex 46 38 43
      vertex 46 36 3
    endloop
  endfacet
  facet normal -1 0 0
    outer loop
      vertex 46 36 43
      vertex 46 56 50
      vertex 46 38 43
    endloop
  endfacet
  facet normal -1 0 0
    outer loop
      vertex 46 33 43
      vertex 46 56 50
      vertex 46 36 43
    endloop
  endfacet
  facet normal -1 0 0
    outer loop
      vertex 46 31 43
      vertex 46 33 43
      vertex 46 31 3
    endloop
  endfacet
  facet normal -1 0 0
    outer loop
      vertex 46 31 43
      vertex 46 56 50
      vertex 46 33 43
    endloop
  endfacet
  facet normal -1 0 0
    outer loop
      vertex 46 28 43
      vertex 46 56 50
      vertex 46 31 43
    endloop
  endfacet
  facet normal -1 0 0
    outer loop
      vertex 46 26 43
      vertex 46 28 43
      vertex 46 26 3
    endloop
  endfacet
  facet normal -1 0 0
    outer loop
      vertex 46 3 50
      vertex 46 28 43
      vertex 46 26 43
    endloop
  endfacet
  facet normal -1 0 0
    outer loop
      vertex 46 3 50
      vertex 46 26 43
      vertex 46 23 43
    endloop
  endfacet
  facet normal -1 0 0
    outer loop
      vertex 46 21 43
      vertex 46 23 43
      vertex 46 21 3
    endloop
  endfacet
  facet normal -1 0 0
    outer loop
      vertex 46 3 50
      vertex 46 23 43
      vertex 46 21 43
    endloop
  endfacet
  facet normal -1 0 0
    outer loop
      vertex 46 3 50
      vertex 46 21 43
      vertex 46 18 43
    endloop
  endfacet
  facet normal -1 0 0
    outer loop
      vertex 46 16 43
      vertex 46 18 43
      vertex 46 16 3
    endloop
  endfacet
  facet normal -1 0 0
    outer loop
      vertex 46 3 50
      vertex 46 18 43
      vertex 46 16 43
    endloop
  endfacet
  facet normal -1 0 0
    outer loop
      vertex 46 3 50
      vertex 46 16 43
      vertex 46 13 43
    endloop
  endfacet
  facet normal -1 0 0
    outer loop
      vertex 46 11 43
      vertex 46 13 43
      vertex 46 11 3
    endloop
  endfacet
  facet normal -1 0 0
    outer loop
      vertex 46 3 50
      vertex 46 13 43
      vertex 46 11 43
    endloop
  endfacet
  facet normal -1 0 0
    outer loop
      vertex 46 3 50
      vertex 46 11 43
      vertex 46 8 43
    endloop
  endfacet
  facet normal -1 0 0
    outer loop
      vertex 46 6 43
      vertex 46 8 43
      vertex 46 6 3
    endloop
  endfacet
  facet normal -1 0 0
    outer loop
      vertex 46 3 50
      vertex 46 8 43
      vertex 46 6 43
    endloop
  endfacet
  facet normal -1 0 0
    outer loop
      vertex 46 3 50
      vertex 46 6 43
      vertex 46 3 43
    endloop
  endfacet
  facet normal -1 0 0
    outer loop
      vertex 46 28 43
      vertex 46 3 50
      vertex 46 56 50
    endloop
  endfacet
  facet normal 0 -1 0
    outer loop
      vertex 7 56 3
      vertex 42 56 43
      vertex 7 56 43
    endloop
  endfacet
  facet normal 0 -1 -0
    outer loop
      vertex 42 56 43
      vertex 7 56 3
      vertex 42 56 3
    endloop
  endfacet
  facet normal 0 -1 0
    outer loop
      vertex 7 56 43
      vertex 3 56 50
      vertex 3 56 43
    endloop
  endfacet
  facet normal 0 -1 0
    outer loop
      vertex 3 56 50
      vertex 7 56 43
      vertex 46 56 50
    endloop
  endfacet
  facet normal 0 -1 0
    outer loop
      vertex 42 56 43
      vertex 46 56 50
      vertex 7 56 43
    endloop
  endfacet
  facet normal 0 -1 -0
    outer loop
      vertex 46 56 50
      vertex 42 56 43
      vertex 46 56 43
    endloop
  endfacet
  facet normal -0 0 1
    outer loop
      vertex 3 8 3
      vertex 7 6 3
      vertex 7 8 3
    endloop
  endfacet
  facet normal 0 0 1
    outer loop
      vertex 7 6 3
      vertex 3 8 3
      vertex 3 6 3
    endloop
  endfacet
  facet normal -0 0 1
    outer loop
      vertex 3 13 3
      vertex 7 11 3
      vertex 7 13 3
    endloop
  endfacet
  facet normal 0 0 1
    outer loop
      vertex 7 11 3
      vertex 3 13 3
      vertex 3 11 3
    endloop
  endfacet
  facet normal -0 0 1
    outer loop
      vertex 3 18 3
      vertex 7 16 3
      vertex 7 18 3
    endloop
  endfacet
  facet normal 0 0 1
    outer loop
      vertex 7 16 3
      vertex 3 18 3
      vertex 3 16 3
    endloop
  endfacet
  facet normal -0 0 1
    outer loop
      vertex 3 23 3
      vertex 7 21 3
      vertex 7 23 3
    endloop
  endfacet
  facet normal 0 0 1
    outer loop
      vertex 7 21 3
      vertex 3 23 3
      vertex 3 21 3
    endloop
  endfacet
  facet normal -0 0 1
    outer loop
      vertex 3 28 3
      vertex 7 26 3
      vertex 7 28 3
    endloop
  endfacet
  facet normal 0 0 1
    outer loop
      vertex 7 26 3
      vertex 3 28 3
      vertex 3 26 3
    endloop
  endfacet
  facet normal -0 0 1
    outer loop
      vertex 3 33 3
      vertex 7 31 3
      vertex 7 33 3
    endloop
  endfacet
  facet normal 0 0 1
    outer loop
      vertex 7 31 3
      vertex 3 33 3
      vertex 3 31 3
    endloop
  endfacet
  facet normal -0 0 1
    outer loop
      vertex 3 38 3
      vertex 7 36 3
      vertex 7 38 3
    endloop
  endfacet
  facet normal 0 0 1
    outer loop
      vertex 7 36 3
      vertex 3 38 3
      vertex 3 36 3
    endloop
  endfacet
  facet normal -0 0 1
    outer loop
      vertex 3 43 3
      vertex 7 41 3
      vertex 7 43 3
    endloop
  endfacet
  facet normal 0 0 1
    outer loop
      vertex 7 41 3
      vertex 3 43 3
      vertex 3 41 3
    endloop
  endfacet
  facet normal -0 0 1
    outer loop
      vertex 3 48 3
      vertex 7 46 3
      vertex 7 48 3
    endloop
  endfacet
  facet normal 0 0 1
    outer loop
      vertex 7 46 3
      vertex 3 48 3
      vertex 3 46 3
    endloop
  endfacet
  facet normal -0 0 1
    outer loop
      vertex 3 53 3
      vertex 7 51 3
      vertex 7 53 3
    endloop
  endfacet
  facet normal 0 0 1
    outer loop
      vertex 7 51 3
      vertex 3 53 3
      vertex 3 51 3
    endloop
  endfacet
  facet normal 0 0 1
    outer loop
      vertex 7 53 3
      vertex 42 53 3
      vertex 42 56 3
    endloop
  endfacet
  facet normal 0 0 1
    outer loop
      vertex 42 53 3
      vertex 7 53 3
      vertex 42 51 3
    endloop
  endfacet
  facet normal 0 0 1
    outer loop
      vertex 42 51 3
      vertex 7 51 3
      vertex 42 48 3
    endloop
  endfacet
  facet normal 0 0 1
    outer loop
      vertex 7 48 3
      vertex 42 48 3
      vertex 7 51 3
    endloop
  endfacet
  facet normal 0 0 1
    outer loop
      vertex 7 46 3
      vertex 42 46 3
      vertex 7 48 3
    endloop
  endfacet
  facet normal 0 0 1
    outer loop
      vertex 42 46 3
      vertex 7 46 3
      vertex 42 43 3
    endloop
  endfacet
  facet normal 0 0 1
    outer loop
      vertex 42 43 3
      vertex 7 43 3
      vertex 42 41 3
    endloop
  endfacet
  facet normal 0 0 1
    outer loop
      vertex 7 41 3
      vertex 42 41 3
      vertex 7 43 3
    endloop
  endfacet
  facet normal 0 0 1
    outer loop
      vertex 7 38 3
      vertex 42 38 3
      vertex 7 41 3
    endloop
  endfacet
  facet normal 0 0 1
    outer loop
      vertex 42 38 3
      vertex 7 38 3
      vertex 42 36 3
    endloop
  endfacet
  facet normal 0 0 1
    outer loop
      vertex 42 36 3
      vertex 7 36 3
      vertex 42 33 3
    endloop
  endfacet
  facet normal 0 0 1
    outer loop
      vertex 7 33 3
      vertex 42 33 3
      vertex 7 36 3
    endloop
  endfacet
  facet normal 0 0 1
    outer loop
      vertex 7 31 3
      vertex 42 31 3
      vertex 7 33 3
    endloop
  endfacet
  facet normal 0 0 1
    outer loop
      vertex 42 31 3
      vertex 7 31 3
      vertex 42 28 3
    endloop
  endfacet
  facet normal 0 0 1
    outer loop
      vertex 42 28 3
      vertex 7 28 3
      vertex 42 26 3
    endloop
  endfacet
  facet normal 0 0 1
    outer loop
      vertex 7 26 3
      vertex 42 26 3
      vertex 7 28 3
    endloop
  endfacet
  facet normal 0 0 1
    outer loop
      vertex 7 23 3
      vertex 42 23 3
      vertex 7 26 3
    endloop
  endfacet
  facet normal 0 0 1
    outer loop
      vertex 42 23 3
      vertex 7 23 3
      vertex 42 21 3
    endloop
  endfacet
  facet normal 0 0 1
    outer loop
      vertex 42 21 3
      vertex 7 21 3
      vertex 42 18 3
    endloop
  endfacet
  facet normal 0 0 1
    outer loop
      vertex 7 18 3
      vertex 42 18 3
      vertex 7 21 3
    endloop
  endfacet
  facet normal 0 0 1
    outer loop
      vertex 7 53 3
      vertex 42 56 3
      vertex 7 56 3
    endloop
  endfacet
  facet normal 0 0 1
    outer loop
      vertex 42 51 3
      vertex 7 53 3
      vertex 7 51 3
    endloop
  endfacet
  facet normal 0 0 1
    outer loop
      vertex 42 48 3
      vertex 7 48 3
      vertex 42 46 3
    endloop
  endfacet
  facet normal 0 0 1
    outer loop
      vertex 7 43 3
      vertex 42 43 3
      vertex 7 46 3
    endloop
  endfacet
  facet normal 0 0 1
    outer loop
      vertex 42 41 3
      vertex 7 41 3
      vertex 42 38 3
    endloop
  endfacet
  facet normal 0 0 1
    outer loop
      vertex 7 36 3
      vertex 42 36 3
      vertex 7 38 3
    endloop
  endfacet
  facet normal 0 0 1
    outer loop
      vertex 42 33 3
      vertex 7 33 3
      vertex 42 31 3
    endloop
  endfacet
  facet normal 0 0 1
    outer loop
      vertex 7 28 3
      vertex 42 28 3
      vertex 7 31 3
    endloop
  endfacet
  facet normal 0 0 1
    outer loop
      vertex 42 26 3
      vertex 7 26 3
      vertex 42 23 3
    endloop
  endfacet
  facet normal 0 0 1
    outer loop
      vertex 7 21 3
      vertex 42 21 3
      vertex 7 23 3
    endloop
  endfacet
  facet normal 0 0 1
    outer loop
      vertex 42 18 3
      vertex 7 18 3
      vertex 42 16 3
    endloop
  endfacet
  facet normal 0 0 1
    outer loop
      vertex 7 16 3
      vertex 42 16 3
      vertex 7 18 3
    endloop
  endfacet
  facet normal 0 0 1
    outer loop
      vertex 42 16 3
      vertex 7 16 3
      vertex 42 13 3
    endloop
  endfacet
  facet normal 0 0 1
    outer loop
      vertex 7 13 3
      vertex 42 13 3
      vertex 7 16 3
    endloop
  endfacet
  facet normal 0 0 1
    outer loop
      vertex 42 13 3
      vertex 7 13 3
      vertex 42 11 3
    endloop
  endfacet
  facet normal 0 0 1
    outer loop
      vertex 7 11 3
      vertex 42 11 3
      vertex 7 13 3
    endloop
  endfacet
  facet normal 0 0 1
    outer loop
      vertex 42 11 3
      vertex 7 11 3
      vertex 42 8 3
    endloop
  endfacet
  facet normal 0 0 1
    outer loop
      vertex 7 8 3
      vertex 42 8 3
      vertex 7 11 3
    endloop
  endfacet
  facet normal 0 0 1
    outer loop
      vertex 42 8 3
      vertex 7 8 3
      vertex 42 6 3
    endloop
  endfacet
  facet normal 0 0 1
    outer loop
      vertex 7 6 3
      vertex 42 6 3
      vertex 7 8 3
    endloop
  endfacet
  facet normal 0 0 1
    outer loop
      vertex 42 6 3
      vertex 7 6 3
      vertex 42 3 3
    endloop
  endfacet
  facet normal 0 0 1
    outer loop
      vertex 42 3 3
      vertex 7 6 3
      vertex 7 3 3
    endloop
  endfacet
  facet normal -0 0 1
    outer loop
      vertex 42 53 3
      vertex 46 51 3
      vertex 46 53 3
    endloop
  endfacet
  facet normal 0 0 1
    outer loop
      vertex 46 51 3
      vertex 42 53 3
      vertex 42 51 3
    endloop
  endfacet
  facet normal -0 0 1
    outer loop
      vertex 42 48 3
      vertex 46 46 3
      vertex 46 48 3
    endloop
  endfacet
  facet normal 0 0 1
    outer loop
      vertex 46 46 3
      vertex 42 48 3
      vertex 42 46 3
    endloop
  endfacet
  facet normal -0 0 1
    outer loop
      vertex 42 43 3
      vertex 46 41 3
      vertex 46 43 3
    endloop
  endfacet
  facet normal 0 0 1
    outer loop
      vertex 46 41 3
      vertex 42 43 3
      vertex 42 41 3
    endloop
  endfacet
  facet normal -0 0 1
    outer loop
      vertex 42 38 3
      vertex 46 36 3
      vertex 46 38 3
    endloop
  endfacet
  facet normal 0 0 1
    outer loop
      vertex 46 36 3
      vertex 42 38 3
      vertex 42 36 3
    endloop
  endfacet
  facet normal -0 0 1
    outer loop
      vertex 42 33 3
      vertex 46 31 3
      vertex 46 33 3
    endloop
  endfacet
  facet normal 0 0 1
    outer loop
      vertex 46 31 3
      vertex 42 33 3
      vertex 42 31 3
    endloop
  endfacet
  facet normal -0 0 1
    outer loop
      vertex 42 28 3
      vertex 46 26 3
      vertex 46 28 3
    endloop
  endfacet
  facet normal 0 0 1
    outer loop
      vertex 46 26 3
      vertex 42 28 3
      vertex 42 26 3
    endloop
  endfacet
  facet normal -0 0 1
    outer loop
      vertex 42 23 3
      vertex 46 21 3
      vertex 46 23 3
    endloop
  endfacet
  facet normal 0 0 1
    outer loop
      vertex 46 21 3
      vertex 42 23 3
      vertex 42 21 3
    endloop
  endfacet
  facet normal -0 0 1
    outer loop
      vertex 42 18 3
      vertex 46 16 3
      vertex 46 18 3
    endloop
  endfacet
  facet normal 0 0 1
    outer loop
      vertex 46 16 3
      vertex 42 18 3
      vertex 42 16 3
    endloop
  endfacet
  facet normal -0 0 1
    outer loop
      vertex 42 13 3
      vertex 46 11 3
      vertex 46 13 3
    endloop
  endfacet
  facet normal 0 0 1
    outer loop
      vertex 46 11 3
      vertex 42 13 3
      vertex 42 11 3
    endloop
  endfacet
  facet normal -0 0 1
    outer loop
      vertex 42 8 3
      vertex 46 6 3
      vertex 46 8 3
    endloop
  endfacet
  facet normal 0 0 1
    outer loop
      vertex 46 6 3
      vertex 42 8 3
      vertex 42 6 3
    endloop
  endfacet
  facet normal 0 1 -0
    outer loop
      vertex 42 3 3
      vertex 7 3 43
      vertex 42 3 43
    endloop
  endfacet
  facet normal 0 1 0
    outer loop
      vertex 7 3 43
      vertex 42 3 3
      vertex 7 3 3
    endloop
  endfacet
  facet normal 0 1 0
    outer loop
      vertex 42 3 43
      vertex 46 3 50
      vertex 46 3 43
    endloop
  endfacet
  facet normal 0 1 0
    outer loop
      vertex 46 3 50
      vertex 42 3 43
      vertex 3 3 50
    endloop
  endfacet
  facet normal 0 1 -0
    outer loop
      vertex 7 3 43
      vertex 3 3 50
      vertex 42 3 43
    endloop
  endfacet
  facet normal 0 1 0
    outer loop
      vertex 3 3 50
      vertex 7 3 43
      vertex 3 3 43
    endloop
  endfacet
  facet normal -0 0 1
    outer loop
      vertex 3 6 43
      vertex 7 3 43
      vertex 7 6 43
    endloop
  endfacet
  facet normal 0 0 1
    outer loop
      vertex 7 3 43
      vertex 3 6 43
      vertex 3 3 43
    endloop
  endfacet
  facet normal 1 -0 0
    outer loop
      vertex 7 3 43
      vertex 7 6 3
      vertex 7 6 43
    endloop
  endfacet
  facet normal 1 0 0
    outer loop
      vertex 7 6 3
      vertex 7 3 43
      vertex 7 3 3
    endloop
  endfacet
  facet normal 0 1 -0
    outer loop
      vertex 7 6 3
      vertex 3 6 43
      vertex 7 6 43
    endloop
  endfacet
  facet normal 0 1 0
    outer loop
      vertex 3 6 43
      vertex 7 6 3
      vertex 3 6 3
    endloop
  endfacet
  facet normal -1 0 0
    outer loop
      vertex 42 3 3
      vertex 42 6 43
      vertex 42 6 3
    endloop
  endfacet
  facet normal -1 -0 0
    outer loop
      vertex 42 6 43
      vertex 42 3 3
      vertex 42 3 43
    endloop
  endfacet
  facet normal -0 0 1
    outer loop
      vertex 42 6 43
      vertex 46 3 43
      vertex 46 6 43
    endloop
  endfacet
  facet normal 0 0 1
    outer loop
      vertex 46 3 43
      vertex 42 6 43
      vertex 42 3 43
    endloop
  endfacet
  facet normal 0 1 -0
    outer loop
      vertex 46 6 3
      vertex 42 6 43
      vertex 46 6 43
    endloop
  endfacet
  facet normal 0 1 0
    outer loop
      vertex 42 6 43
      vertex 46 6 3
      vertex 42 6 3
    endloop
  endfacet
  facet normal -0 0 1
    outer loop
      vertex 3 11 43
      vertex 7 8 43
      vertex 7 11 43
    endloop
  endfacet
  facet normal 0 0 1
    outer loop
      vertex 7 8 43
      vertex 3 11 43
      vertex 3 8 43
    endloop
  endfacet
  facet normal 1 -0 0
    outer loop
      vertex 7 8 43
      vertex 7 11 3
      vertex 7 11 43
    endloop
  endfacet
  facet normal 1 0 0
    outer loop
      vertex 7 11 3
      vertex 7 8 43
      vertex 7 8 3
    endloop
  endfacet
  facet normal 0 1 -0
    outer loop
      vertex 7 11 3
      vertex 3 11 43
      vertex 7 11 43
    endloop
  endfacet
  facet normal 0 1 0
    outer loop
      vertex 3 11 43
      vertex 7 11 3
      vertex 3 11 3
    endloop
  endfacet
  facet normal 0 -1 0
    outer loop
      vertex 3 8 3
      vertex 7 8 43
      vertex 3 8 43
    endloop
  endfacet
  facet normal 0 -1 -0
    outer loop
      vertex 7 8 43
      vertex 3 8 3
      vertex 7 8 3
    endloop
  endfacet
  facet normal -1 0 0
    outer loop
      vertex 42 8 3
      vertex 42 11 43
      vertex 42 11 3
    endloop
  endfacet
  facet normal -1 -0 0
    outer loop
      vertex 42 11 43
      vertex 42 8 3
      vertex 42 8 43
    endloop
  endfacet
  facet normal -0 0 1
    outer loop
      vertex 42 11 43
      vertex 46 8 43
      vertex 46 11 43
    endloop
  endfacet
  facet normal 0 0 1
    outer loop
      vertex 46 8 43
      vertex 42 11 43
      vertex 42 8 43
    endloop
  endfacet
  facet normal 0 -1 0
    outer loop
      vertex 42 8 3
      vertex 46 8 43
      vertex 42 8 43
    endloop
  endfacet
  facet normal 0 -1 -0
    outer loop
      vertex 46 8 43
      vertex 42 8 3
      vertex 46 8 3
    endloop
  endfacet
  facet normal 0 1 -0
    outer loop
      vertex 46 11 3
      vertex 42 11 43
      vertex 46 11 43
    endloop
  endfacet
  facet normal 0 1 0
    outer loop
      vertex 42 11 43
      vertex 46 11 3
      vertex 42 11 3
    endloop
  endfacet
  facet normal -0 0 1
    outer loop
      vertex 3 16 43
      vertex 7 13 43
      vertex 7 16 43
    endloop
  endfacet
  facet normal 0 0 1
    outer loop
      vertex 7 13 43
      vertex 3 16 43
      vertex 3 13 43
    endloop
  endfacet
  facet normal 1 -0 0
    outer loop
      vertex 7 13 43
      vertex 7 16 3
      vertex 7 16 43
    endloop
  endfacet
  facet normal 1 0 0
    outer loop
      vertex 7 16 3
      vertex 7 13 43
      vertex 7 13 3
    endloop
  endfacet
  facet normal 0 1 -0
    outer loop
      vertex 7 16 3
      vertex 3 16 43
      vertex 7 16 43
    endloop
  endfacet
  facet normal 0 1 0
    outer loop
      vertex 3 16 43
      vertex 7 16 3
      vertex 3 16 3
    endloop
  endfacet
  facet normal 0 -1 0
    outer loop
      vertex 3 13 3
      vertex 7 13 43
      vertex 3 13 43
    endloop
  endfacet
  facet normal 0 -1 -0
    outer loop
      vertex 7 13 43
      vertex 3 13 3
      vertex 7 13 3
    endloop
  endfacet
  facet normal -1 0 0
    outer loop
      vertex 42 13 3
      vertex 42 16 43
      vertex 42 16 3
    endloop
  endfacet
  facet normal -1 -0 0
    outer loop
      vertex 42 16 43
      vertex 42 13 3
      vertex 42 13 43
    endloop
  endfacet
  facet normal -0 0 1
    outer loop
      vertex 42 16 43
      vertex 46 13 43
      vertex 46 16 43
    endloop
  endfacet
  facet normal 0 0 1
    outer loop
      vertex 46 13 43
      vertex 42 16 43
      vertex 42 13 43
    endloop
  endfacet
  facet normal 0 1 -0
    outer loop
      vertex 46 16 3
      vertex 42 16 43
      vertex 46 16 43
    endloop
  endfacet
  facet normal 0 1 0
    outer loop
      vertex 42 16 43
      vertex 46 16 3
      vertex 42 16 3
    endloop
  endfacet
  facet normal 0 -1 0
    outer loop
      vertex 42 13 3
      vertex 46 13 43
      vertex 42 13 43
    endloop
  endfacet
  facet normal 0 -1 -0
    outer loop
      vertex 46 13 43
      vertex 42 13 3
      vertex 46 13 3
    endloop
  endfacet
  facet normal -0 0 1
    outer loop
      vertex 3 21 43
      vertex 7 18 43
      vertex 7 21 43
    endloop
  endfacet
  facet normal 0 0 1
    outer loop
      vertex 7 18 43
      vertex 3 21 43
      vertex 3 18 43
    endloop
  endfacet
  facet normal 1 -0 0
    outer loop
      vertex 7 18 43
      vertex 7 21 3
      vertex 7 21 43
    endloop
  endfacet
  facet normal 1 0 0
    outer loop
      vertex 7 21 3
      vertex 7 18 43
      vertex 7 18 3
    endloop
  endfacet
  facet normal 0 1 -0
    outer loop
      vertex 7 21 3
      vertex 3 21 43
      vertex 7 21 43
    endloop
  endfacet
  facet normal 0 1 0
    outer loop
      vertex 3 21 43
      vertex 7 21 3
      vertex 3 21 3
    endloop
  endfacet
  facet normal 0 -1 0
    outer loop
      vertex 3 18 3
      vertex 7 18 43
      vertex 3 18 43
    endloop
  endfacet
  facet normal 0 -1 -0
    outer loop
      vertex 7 18 43
      vertex 3 18 3
      vertex 7 18 3
    endloop
  endfacet
  facet normal -1 0 0
    outer loop
      vertex 42 18 3
      vertex 42 21 43
      vertex 42 21 3
    endloop
  endfacet
  facet normal -1 -0 0
    outer loop
      vertex 42 21 43
      vertex 42 18 3
      vertex 42 18 43
    endloop
  endfacet
  facet normal -0 0 1
    outer loop
      vertex 42 21 43
      vertex 46 18 43
      vertex 46 21 43
    endloop
  endfacet
  facet normal 0 0 1
    outer loop
      vertex 46 18 43
      vertex 42 21 43
      vertex 42 18 43
    endloop
  endfacet
  facet normal 0 -1 0
    outer loop
      vertex 42 18 3
      vertex 46 18 43
      vertex 42 18 43
    endloop
  endfacet
  facet normal 0 -1 -0
    outer loop
      vertex 46 18 43
      vertex 42 18 3
      vertex 46 18 3
    endloop
  endfacet
  facet normal 0 1 -0
    outer loop
      vertex 46 21 3
      vertex 42 21 43
      vertex 46 21 43
    endloop
  endfacet
  facet normal 0 1 0
    outer loop
      vertex 42 21 43
      vertex 46 21 3
      vertex 42 21 3
    endloop
  endfacet
  facet normal -0 0 1
    outer loop
      vertex 3 26 43
      vertex 7 23 43
      vertex 7 26 43
    endloop
  endfacet
  facet normal 0 0 1
    outer loop
      vertex 7 23 43
      vertex 3 26 43
      vertex 3 23 43
    endloop
  endfacet
  facet normal 1 -0 0
    outer loop
      vertex 7 23 43
      vertex 7 26 3
      vertex 7 26 43
    endloop
  endfacet
  facet normal 1 0 0
    outer loop
      vertex 7 26 3
      vertex 7 23 43
      vertex 7 23 3
    endloop
  endfacet
  facet normal 0 1 -0
    outer loop
      vertex 7 26 3
      vertex 3 26 43
      vertex 7 26 43
    endloop
  endfacet
  facet normal 0 1 0
    outer loop
      vertex 3 26 43
      vertex 7 26 3
      vertex 3 26 3
    endloop
  endfacet
  facet normal 0 -1 0
    outer loop
      vertex 3 23 3
      vertex 7 23 43
      vertex 3 23 43
    endloop
  endfacet
  facet normal 0 -1 -0
    outer loop
      vertex 7 23 43
      vertex 3 23 3
      vertex 7 23 3
    endloop
  endfacet
  facet normal -1 0 0
    outer loop
      vertex 42 23 3
      vertex 42 26 43
      vertex 42 26 3
    endloop
  endfacet
  facet normal -1 -0 0
    outer loop
      vertex 42 26 43
      vertex 42 23 3
      vertex 42 23 43
    endloop
  endfacet
  facet normal -0 0 1
    outer loop
      vertex 42 26 43
      vertex 46 23 43
      vertex 46 26 43
    endloop
  endfacet
  facet normal 0 0 1
    outer loop
      vertex 46 23 43
      vertex 42 26 43
      vertex 42 23 43
    endloop
  endfacet
  facet normal 0 1 -0
    outer loop
      vertex 46 26 3
      vertex 42 26 43
      vertex 46 26 43
    endloop
  endfacet
  facet normal 0 1 0
    outer loop
      vertex 42 26 43
      vertex 46 26 3
      vertex 42 26 3
    endloop
  endfacet
  facet normal 0 -1 0
    outer loop
      vertex 42 23 3
      vertex 46 23 43
      vertex 42 23 43
    endloop
  endfacet
  facet normal 0 -1 -0
    outer loop
      vertex 46 23 43
      vertex 42 23 3
      vertex 46 23 3
    endloop
  endfacet
  facet normal -0 0 1
    outer loop
      vertex 3 31 43
      vertex 7 28 43
      vertex 7 31 43
    endloop
  endfacet
  facet normal 0 0 1
    outer loop
      vertex 7 28 43
      vertex 3 31 43
      vertex 3 28 43
    endloop
  endfacet
  facet normal 1 -0 0
    outer loop
      vertex 7 28 43
      vertex 7 31 3
      vertex 7 31 43
    endloop
  endfacet
  facet normal 1 0 0
    outer loop
      vertex 7 31 3
      vertex 7 28 43
      vertex 7 28 3
    endloop
  endfacet
  facet normal 0 -1 0
    outer loop
      vertex 3 28 3
      vertex 7 28 43
      vertex 3 28 43
    endloop
  endfacet
  facet normal 0 -1 -0
    outer loop
      vertex 7 28 43
      vertex 3 28 3
      vertex 7 28 3
    endloop
  endfacet
  facet normal 0 1 -0
    outer loop
      vertex 7 31 3
      vertex 3 31 43
      vertex 7 31 43
    endloop
  endfacet
  facet normal 0 1 0
    outer loop
      vertex 3 31 43
      vertex 7 31 3
      vertex 3 31 3
    endloop
  endfacet
  facet normal -1 0 0
    outer loop
      vertex 42 28 3
      vertex 42 31 43
      vertex 42 31 3
    endloop
  endfacet
  facet normal -1 -0 0
    outer loop
      vertex 42 31 43
      vertex 42 28 3
      vertex 42 28 43
    endloop
  endfacet
  facet normal -0 0 1
    outer loop
      vertex 42 31 43
      vertex 46 28 43
      vertex 46 31 43
    endloop
  endfacet
  facet normal 0 0 1
    outer loop
      vertex 46 28 43
      vertex 42 31 43
      vertex 42 28 43
    endloop
  endfacet
  facet normal 0 -1 0
    outer loop
      vertex 42 28 3
      vertex 46 28 43
      vertex 42 28 43
    endloop
  endfacet
  facet normal 0 -1 -0
    outer loop
      vertex 46 28 43
      vertex 42 28 3
      vertex 46 28 3
    endloop
  endfacet
  facet normal 0 1 -0
    outer loop
      vertex 46 31 3
      vertex 42 31 43
      vertex 46 31 43
    endloop
  endfacet
  facet normal 0 1 0
    outer loop
      vertex 42 31 43
      vertex 46 31 3
      vertex 42 31 3
    endloop
  endfacet
  facet normal -0 0 1
    outer loop
      vertex 3 36 43
      vertex 7 33 43
      vertex 7 36 43
    endloop
  endfacet
  facet normal 0 0 1
    outer loop
      vertex 7 33 43
      vertex 3 36 43
      vertex 3 33 43
    endloop
  endfacet
  facet normal 1 -0 0
    outer loop
      vertex 7 33 43
      vertex 7 36 3
      vertex 7 36 43
    endloop
  endfacet
  facet normal 1 0 0
    outer loop
      vertex 7 36 3
      vertex 7 33 43
      vertex 7 33 3
    endloop
  endfacet
  facet normal 0 1 -0
    outer loop
      vertex 7 36 3
      vertex 3 36 43
      vertex 7 36 43
    endloop
  endfacet
  facet normal 0 1 0
    outer loop
      vertex 3 36 43
      vertex 7 36 3
      vertex 3 36 3
    endloop
  endfacet
  facet normal 0 -1 0
    outer loop
      vertex 3 33 3
      vertex 7 33 43
      vertex 3 33 43
    endloop
  endfacet
  facet normal 0 -1 -0
    outer loop
      vertex 7 33 43
      vertex 3 33 3
      vertex 7 33 3
    endloop
  endfacet
  facet normal -1 0 0
    outer loop
      vertex 42 33 3
      vertex 42 36 43
      vertex 42 36 3
    endloop
  endfacet
  facet normal -1 -0 0
    outer loop
      vertex 42 36 43
      vertex 42 33 3
      vertex 42 33 43
    endloop
  endfacet
  facet normal -0 0 1
    outer loop
      vertex 42 36 43
      vertex 46 33 43
      vertex 46 36 43
    endloop
  endfacet
  facet normal 0 0 1
    outer loop
      vertex 46 33 43
      vertex 42 36 43
      vertex 42 33 43
    endloop
  endfacet
  facet normal 0 1 -0
    outer loop
      vertex 46 36 3
      vertex 42 36 43
      vertex 46 36 43
    endloop
  endfacet
  facet normal 0 1 0
    outer loop
      vertex 42 36 43
      vertex 46 36 3
      vertex 42 36 3
    endloop
  endfacet
  facet normal 0 -1 0
    outer loop
      vertex 42 33 3
      vertex 46 33 43
      vertex 42 33 43
    endloop
  endfacet
  facet normal 0 -1 -0
    outer loop
      vertex 46 33 43
      vertex 42 33 3
      vertex 46 33 3
    endloop
  endfacet
  facet normal -0 0 1
    outer loop
      vertex 3 41 43
      vertex 7 38 43
      vertex 7 41 43
    endloop
  endfacet
  facet normal 0 0 1
    outer loop
      vertex 7 38 43
      vertex 3 41 43
      vertex 3 38 43
    endloop
  endfacet
  facet normal 1 -0 0
    outer loop
      vertex 7 38 43
      vertex 7 41 3
      vertex 7 41 43
    endloop
  endfacet
  facet normal 1 0 0
    outer loop
      vertex 7 41 3
      vertex 7 38 43
      vertex 7 38 3
    endloop
  endfacet
  facet normal 0 -1 0
    outer loop
      vertex 3 38 3
      vertex 7 38 43
      vertex 3 38 43
    endloop
  endfacet
  facet normal 0 -1 -0
    outer loop
      vertex 7 38 43
      vertex 3 38 3
      vertex 7 38 3
    endloop
  endfacet
  facet normal 0 1 -0
    outer loop
      vertex 7 41 3
      vertex 3 41 43
      vertex 7 41 43
    endloop
  endfacet
  facet normal 0 1 0
    outer loop
      vertex 3 41 43
      vertex 7 41 3
      vertex 3 41 3
    endloop
  endfacet
  facet normal -1 0 0
    outer loop
      vertex 42 38 3
      vertex 42 41 43
      vertex 42 41 3
    endloop
  endfacet
  facet normal -1 -0 0
    outer loop
      vertex 42 41 43
      vertex 42 38 3
      vertex 42 38 43
    endloop
  endfacet
  facet normal -0 0 1
    outer loop
      vertex 42 41 43
      vertex 46 38 43
      vertex 46 41 43
    endloop
  endfacet
  facet normal 0 0 1
    outer loop
      vertex 46 38 43
      vertex 42 41 43
      vertex 42 38 43
    endloop
  endfacet
  facet normal 0 1 -0
    outer loop
      vertex 46 41 3
      vertex 42 41 43
      vertex 46 41 43
    endloop
  endfacet
  facet normal 0 1 0
    outer loop
      vertex 42 41 43
      vertex 46 41 3
      vertex 42 41 3
    endloop
  endfacet
  facet normal 0 -1 0
    outer loop
      vertex 42 38 3
      vertex 46 38 43
      vertex 42 38 43
    endloop
  endfacet
  facet normal 0 -1 -0
    outer loop
      vertex 46 38 43
      vertex 42 38 3
      vertex 46 38 3
    endloop
  endfacet
  facet normal -0 0 1
    outer loop
      vertex 3 46 43
      vertex 7 43 43
      vertex 7 46 43
    endloop
  endfacet
  facet normal 0 0 1
    outer loop
      vertex 7 43 43
      vertex 3 46 43
      vertex 3 43 43
    endloop
  endfacet
  facet normal 1 -0 0
    outer loop
      vertex 7 43 43
      vertex 7 46 3
      vertex 7 46 43
    endloop
  endfacet
  facet normal 1 0 0
    outer loop
      vertex 7 46 3
      vertex 7 43 43
      vertex 7 43 3
    endloop
  endfacet
  facet normal 0 -1 0
    outer loop
      vertex 3 43 3
      vertex 7 43 43
      vertex 3 43 43
    endloop
  endfacet
  facet normal 0 -1 -0
    outer loop
      vertex 7 43 43
      vertex 3 43 3
      vertex 7 43 3
    endloop
  endfacet
  facet normal 0 1 -0
    outer loop
      vertex 7 46 3
      vertex 3 46 43
      vertex 7 46 43
    endloop
  endfacet
  facet normal 0 1 0
    outer loop
      vertex 3 46 43
      vertex 7 46 3
      vertex 3 46 3
    endloop
  endfacet
  facet normal -1 0 0
    outer loop
      vertex 42 43 3
      vertex 42 46 43
      vertex 42 46 3
    endloop
  endfacet
  facet normal -1 -0 0
    outer loop
      vertex 42 46 43
      vertex 42 43 3
      vertex 42 43 43
    endloop
  endfacet
  facet normal -0 0 1
    outer loop
      vertex 42 46 43
      vertex 46 43 43
      vertex 46 46 43
    endloop
  endfacet
  facet normal 0 0 1
    outer loop
      vertex 46 43 43
      vertex 42 46 43
      vertex 42 43 43
    endloop
  endfacet
  facet normal 0 1 -0
    outer loop
      vertex 46 46 3
      vertex 42 46 43
      vertex 46 46 43
    endloop
  endfacet
  facet normal 0 1 0
    outer loop
      vertex 42 46 43
      vertex 46 46 3
      vertex 42 46 3
    endloop
  endfacet
  facet normal 0 -1 0
    outer loop
      vertex 42 43 3
      vertex 46 43 43
      vertex 42 43 43
    endloop
  endfacet
  facet normal 0 -1 -0
    outer loop
      vertex 46 43 43
      vertex 42 43 3
      vertex 46 43 3
    endloop
  endfacet
  facet normal -0 0 1
    outer loop
      vertex 3 51 43
      vertex 7 48 43
      vertex 7 51 43
    endloop
  endfacet
  facet normal 0 0 1
    outer loop
      vertex 7 48 43
      vertex 3 51 43
      vertex 3 48 43
    endloop
  endfacet
  facet normal 1 -0 0
    outer loop
      vertex 7 48 43
      vertex 7 51 3
      vertex 7 51 43
    endloop
  endfacet
  facet normal 1 0 0
    outer loop
      vertex 7 51 3
      vertex 7 48 43
      vertex 7 48 3
    endloop
  endfacet
  facet normal 0 1 -0
    outer loop
      vertex 7 51 3
      vertex 3 51 43
      vertex 7 51 43
    endloop
  endfacet
  facet normal 0 1 0
    outer loop
      vertex 3 51 43
      vertex 7 51 3
      vertex 3 51 3
    endloop
  endfacet
  facet normal 0 -1 0
    outer loop
      vertex 3 48 3
      vertex 7 48 43
      vertex 3 48 43
    endloop
  endfacet
  facet normal 0 -1 -0
    outer loop
      vertex 7 48 43
      vertex 3 48 3
      vertex 7 48 3
    endloop
  endfacet
  facet normal -1 0 0
    outer loop
      vertex 42 48 3
      vertex 42 51 43
      vertex 42 51 3
    endloop
  endfacet
  facet normal -1 -0 0
    outer loop
      vertex 42 51 43
      vertex 42 48 3
      vertex 42 48 43
    endloop
  endfacet
  facet normal -0 0 1
    outer loop
      vertex 42 51 43
      vertex 46 48 43
      vertex 46 51 43
    endloop
  endfacet
  facet normal 0 0 1
    outer loop
      vertex 46 48 43
      vertex 42 51 43
      vertex 42 48 43
    endloop
  endfacet
  facet normal 0 1 -0
    outer loop
      vertex 46 51 3
      vertex 42 51 43
      vertex 46 51 43
    endloop
  endfacet
  facet normal 0 1 0
    outer loop
      vertex 42 51 43
      vertex 46 51 3
      vertex 42 51 3
    endloop
  endfacet
  facet normal 0 -1 0
    outer loop
      vertex 42 48 3
      vertex 46 48 43
      vertex 42 48 43
    endloop
  endfacet
  facet normal 0 -1 -0
    outer loop
      vertex 46 48 43
      vertex 42 48 3
      vertex 46 48 3
    endloop
  endfacet
  facet normal -0 0 1
    outer loop
      vertex 3 56 43
      vertex 7 53 43
      vertex 7 56 43
    endloop
  endfacet
  facet normal 0 0 1
    outer loop
      vertex 7 53 43
      vertex 3 56 43
      vertex 3 53 43
    endloop
  endfacet
  facet normal 1 -0 0
    outer loop
      vertex 7 53 43
      vertex 7 56 3
      vertex 7 56 43
    endloop
  endfacet
  facet normal 1 0 0
    outer loop
      vertex 7 56 3
      vertex 7 53 43
      vertex 7 53 3
    endloop
  endfacet
  facet normal 0 -1 0
    outer loop
      vertex 3 53 3
      vertex 7 53 43
      vertex 3 53 43
    endloop
  endfacet
  facet normal 0 -1 -0
    outer loop
      vertex 7 53 43
      vertex 3 53 3
      vertex 7 53 3
    endloop
  endfacet
  facet normal -1 0 0
    outer loop
      vertex 42 53 3
      vertex 42 56 43
      vertex 42 56 3
    endloop
  endfacet
  facet normal -1 -0 0
    outer loop
      vertex 42 56 43
      vertex 42 53 3
      vertex 42 53 43
    endloop
  endfacet
  facet normal -0 0 1
    outer loop
      vertex 42 56 43
      vertex 46 53 43
      vertex 46 56 43
    endloop
  endfacet
  facet normal 0 0 1
    outer loop
      vertex 46 53 43
      vertex 42 56 43
      vertex 42 53 43
    endloop
  endfacet
  facet normal 0 -1 0
    outer loop
      vertex 42 53 3
      vertex 46 53 43
      vertex 42 53 43
    endloop
  endfacet
  facet normal 0 -1 -0
    outer loop
      vertex 46 53 43
      vertex 42 53 3
      vertex 46 53 3
    endloop
  endfacet
  facet normal -1 0 0
    outer loop
      vertex 20 59 30
      vertex 20 62 33
      vertex 20 62 30
    endloop
  endfacet
  facet normal -1 -0 0
    outer loop
      vertex 20 62 33
      vertex 20 59 30
      vertex 20 59 33
    endloop
  endfacet
  facet normal -0 0 1
    outer loop
      vertex 20 62 33
      vertex 29 59 33
      vertex 29 62 33
    endloop
  endfacet
  facet normal 0 0 1
    outer loop
      vertex 29 59 33
      vertex 20 62 33
      vertex 20 59 33
    endloop
  endfacet
  facet normal 1 -0 0
    outer loop
      vertex 29 59 33
      vertex 29 62 30
      vertex 29 62 33
    endloop
  endfacet
  facet normal 1 0 0
    outer loop
      vertex 29 62 30
      vertex 29 59 33
      vertex 29 59 30
    endloop
  endfacet
  facet normal 0 1 -0
    outer loop
      vertex 26 62 27
      vertex 23 62 30
      vertex 26 62 30
    endloop
  endfacet
  facet normal 0 1 0
    outer loop
      vertex 23 62 30
      vertex 26 62 27
      vertex 23 62 27
    endloop
  endfacet
  facet normal 0 1 0
    outer loop
      vertex 26 62 30
      vertex 29 62 33
      vertex 29 62 30
    endloop
  endfacet
  facet normal 0 1 0
    outer loop
      vertex 29 62 33
      vertex 26 62 30
      vertex 20 62 33
    endloop
  endfacet
  facet normal 0 1 -0
    outer loop
      vertex 23 62 30
      vertex 20 62 33
      vertex 26 62 30
    endloop
  endfacet
  facet normal 0 1 0
    outer loop
      vertex 20 62 33
      vertex 23 62 30
      vertex 20 62 30
    endloop
  endfacet
  facet normal 0 0 -1
    outer loop
      vertex 20 59 30
      vertex 23 62 30
      vertex 23 59 30
    endloop
  endfacet
  facet normal -0 0 -1
    outer loop
      vertex 23 62 30
      vertex 20 59 30
      vertex 20 62 30
    endloop
  endfacet
  facet normal 0 0 -1
    outer loop
      vertex 26 59 30
      vertex 29 62 30
      vertex 29 59 30
    endloop
  endfacet
  facet normal -0 0 -1
    outer loop
      vertex 29 62 30
      vertex 26 59 30
      vertex 26 62 30
    endloop
  endfacet
  facet normal -1 0 0
    outer loop
      vertex 23 59 27
      vertex 23 62 30
      vertex 23 62 27
    endloop
  endfacet
  facet normal -1 -0 0
    outer loop
      vertex 23 62 30
      vertex 23 59 27
      vertex 23 59 30
    endloop
  endfacet
  facet normal 1 -0 0
    outer loop
      vertex 26 59 30
      vertex 26 62 27
      vertex 26 62 30
    endloop
  endfacet
  facet normal 1 0 0
    outer loop
      vertex 26 62 27
      vertex 26 59 30
      vertex 26 59 27
    endloop
  endfacet
  facet normal 0 0 -1
    outer loop
      vertex 23 59 27
      vertex 26 62 27
      vertex 26 59 27
    endloop
  endfacet
  facet normal -0 0 -1
    outer loop
      vertex 26 62 27
      vertex 23 59 27
      vertex 23 62 27
    endloop
  endfacet
  facet normal 0 -1 0
    outer loop
      vertex -3 25 30
      vertex 0 25 33
      vertex -3 25 33
    endloop
  endfacet
  facet normal 0 -1 -0
    outer loop
      vertex 0 25 33
      vertex -3 25 30
      vertex 0 25 30
    endloop
  endfacet
  facet normal -0 0 1
    outer loop
      vertex -3 34 33
      vertex 0 25 33
      vertex 0 34 33
    endloop
  endfacet
  facet normal 0 0 1
    outer loop
      vertex 0 25 33
      vertex -3 34 33
      vertex -3 25 33
    endloop
  endfacet
  facet normal 0 1 -0
    outer loop
      vertex 0 34 30
      vertex -3 34 33
      vertex 0 34 33
    endloop
  endfacet
  facet normal 0 1 0
    outer loop
      vertex -3 34 33
      vertex 0 34 30
      vertex -3 34 30
    endloop
  endfacet
  facet normal -1 0 0
    outer loop
      vertex -3 31 27
      vertex -3 28 27
      vertex -3 31 30
    endloop
  endfacet
  facet normal -1 0 0
    outer loop
      vertex -3 31 30
      vertex -3 34 33
      vertex -3 34 30
    endloop
  endfacet
  facet normal -1 0 0
    outer loop
      vertex -3 28 30
      vertex -3 31 30
      vertex -3 28 27
    endloop
  endfacet
  facet normal -1 0 0
    outer loop
      vertex -3 31 30
      vertex -3 28 30
      vertex -3 34 33
    endloop
  endfacet
  facet normal -1 0 0
    outer loop
      vertex -3 25 33
      vertex -3 28 30
      vertex -3 25 30
    endloop
  endfacet
  facet normal -1 0 0
    outer loop
      vertex -3 28 30
      vertex -3 25 33
      vertex -3 34 33
    endloop
  endfacet
  facet normal 0 0 -1
    outer loop
      vertex -3 25 30
      vertex 0 28 30
      vertex 0 25 30
    endloop
  endfacet
  facet normal -0 0 -1
    outer loop
      vertex 0 28 30
      vertex -3 25 30
      vertex -3 28 30
    endloop
  endfacet
  facet normal 0 0 -1
    outer loop
      vertex -3 31 30
      vertex 0 34 30
      vertex 0 31 30
    endloop
  endfacet
  facet normal -0 0 -1
    outer loop
      vertex 0 34 30
      vertex -3 31 30
      vertex -3 34 30
    endloop
  endfacet
  facet normal 0 -1 0
    outer loop
      vertex -3 28 27
      vertex 0 28 30
      vertex -3 28 30
    endloop
  endfacet
  facet normal 0 -1 -0
    outer loop
      vertex 0 28 30
      vertex -3 28 27
      vertex 0 28 27
    endloop
  endfacet
  facet normal 0 1 -0
    outer loop
      vertex 0 31 27
      vertex -3 31 30
      vertex 0 31 30
    endloop
  endfacet
  facet normal 0 1 0
    outer loop
      vertex -3 31 30
      vertex 0 31 27
      vertex -3 31 27
    endloop
  endfacet
  facet normal 0 0 -1
    outer loop
      vertex -3 28 27
      vertex 0 31 27
      vertex 0 28 27
    endloop
  endfacet
  facet normal -0 0 -1
    outer loop
      vertex 0 31 27
      vertex -3 28 27
      vertex -3 31 27
    endloop
  endfacet
  facet normal 0 -1 0
    outer loop
      vertex 49 25 30
      vertex 52 25 33
      vertex 49 25 33
    endloop
  endfacet
  facet normal 0 -1 -0
    outer loop
      vertex 52 25 33
      vertex 49 25 30
      vertex 52 25 30
    endloop
  endfacet
  facet normal -0 0 1
    outer loop
      vertex 49 34 33
      vertex 52 25 33
      vertex 52 34 33
    endloop
  endfacet
  facet normal 0 0 1
    outer loop
      vertex 52 25 33
      vertex 49 34 33
      vertex 49 25 33
    endloop
  endfacet
  facet normal 0 1 -0
    outer loop
      vertex 52 34 30
      vertex 49 34 33
      vertex 52 34 33
    endloop
  endfacet
  facet normal 0 1 0
    outer loop
      vertex 49 34 33
      vertex 52 34 30
      vertex 49 34 30
    endloop
  endfacet
  facet normal -1 0 0
    outer loop
      vertex 49 31 27
      vertex 49 28 27
      vertex 49 31 30
    endloop
  endfacet
  facet normal -1 0 0
    outer loop
      vertex 49 31 30
      vertex 49 34 33
      vertex 49 34 30
    endloop
  endfacet
  facet normal -1 0 0
    outer loop
      vertex 49 28 30
      vertex 49 31 30
      vertex 49 28 27
    endloop
  endfacet
  facet normal -1 0 0
    outer loop
      vertex 49 31 30
      vertex 49 28 30
      vertex 49 34 33
    endloop
  endfacet
  facet normal -1 0 0
    outer loop
      vertex 49 25 33
      vertex 49 28 30
      vertex 49 25 30
    endloop
  endfacet
  facet normal -1 0 0
    outer loop
      vertex 49 28 30
      vertex 49 25 33
      vertex 49 34 33
    endloop
  endfacet
  facet normal 0 0 -1
    outer loop
      vertex 49 25 30
      vertex 52 28 30
      vertex 52 25 30
    endloop
  endfacet
  facet normal -0 0 -1
    outer loop
      vertex 52 28 30
      vertex 49 25 30
      vertex 49 28 30
    endloop
  endfacet
  facet normal 0 0 -1
    outer loop
      vertex 49 31 30
      vertex 52 34 30
      vertex 52 31 30
    endloop
  endfacet
  facet normal -0 0 -1
    outer loop
      vertex 52 34 30
      vertex 49 31 30
      vertex 49 34 30
    endloop
  endfacet
  facet normal 1 0 0
    outer loop
      vertex 52 34 33
      vertex 52 31 30
      vertex 52 34 30
    endloop
  endfacet
  facet normal 1 0 0
    outer loop
      vertex 52 31 30
      vertex 52 28 30
      vertex 52 31 27
    endloop
  endfacet
  facet normal 1 0 0
    outer loop
      vertex 52 34 33
      vertex 52 28 30
      vertex 52 31 30
    endloop
  endfacet
  facet normal 1 -0 0
    outer loop
      vertex 52 25 33
      vertex 52 28 30
      vertex 52 34 33
    endloop
  endfacet
  facet normal 1 0 0
    outer loop
      vertex 52 28 30
      vertex 52 25 33
      vertex 52 25 30
    endloop
  endfacet
  facet normal 1 0 0
    outer loop
      vertex 52 31 27
      vertex 52 28 30
      vertex 52 28 27
    endloop
  endfacet
  facet normal 0 -1 0
    outer loop
      vertex 49 28 27
      vertex 52 28 30
      vertex 49 28 30
    endloop
  endfacet
  facet normal 0 -1 -0
    outer loop
      vertex 52 28 30
      vertex 49 28 27
      vertex 52 28 27
    endloop
  endfacet
  facet normal 0 1 -0
    outer loop
      vertex 52 31 27
      vertex 49 31 30
      vertex 52 31 30
    endloop
  endfacet
  facet normal 0 1 0
    outer loop
      vertex 49 31 30
      vertex 52 31 27
      vertex 49 31 27
    endloop
  endfacet
  facet normal 0 0 -1
    outer loop
      vertex 49 28 27
      vertex 52 31 27
      vertex 52 28 27
    endloop
  endfacet
  facet normal -0 0 -1
    outer loop
      vertex 52 31 27
      vertex 49 28 27
      vertex 49 31 27
    endloop
  endfacet
endsolid OpenSCAD_Model
