solid OpenSCAD_Model
  facet normal -1 0 0
    outer loop
      vertex 0 14.1421 0
      vertex 0 52 2
      vertex 0 52 0
    endloop
  endfacet
  facet normal -1 -0 0
    outer loop
      vertex 0 52 2
      vertex 0 14.1421 0
      vertex 0 14.1421 2
    endloop
  endfacet
  facet normal 0 0 1
    outer loop
      vertex 42 52 2
      vertex 24 35.9803 2
      vertex 42 0 2
    endloop
  endfacet
  facet normal 0 0 1
    outer loop
      vertex 42 52 2
      vertex 21 35.9803 2
      vertex 24 35.9803 2
    endloop
  endfacet
  facet normal 0 0 1
    outer loop
      vertex 0 14.1421 2
      vertex 21 16.0197 2
      vertex 21 35.9803 2
    endloop
  endfacet
  facet normal -0 0 1
    outer loop
      vertex 0 52 2
      vertex 21 35.9803 2
      vertex 42 52 2
    endloop
  endfacet
  facet normal 0 0 1
    outer loop
      vertex 0 14.1421 2
      vertex 21 35.9803 2
      vertex 0 52 2
    endloop
  endfacet
  facet normal 0 0 1
    outer loop
      vertex 21 16.0197 2
      vertex 0 14.1421 2
      vertex 14.1421 0 2
    endloop
  endfacet
  facet normal -0 0 1
    outer loop
      vertex 24 16.0197 2
      vertex 42 0 2
      vertex 24 35.9803 2
    endloop
  endfacet
  facet normal 0 0 1
    outer loop
      vertex 14.1421 0 2
      vertex 24 16.0197 2
      vertex 21 16.0197 2
    endloop
  endfacet
  facet normal 0 0 1
    outer loop
      vertex 24 16.0197 2
      vertex 14.1421 0 2
      vertex 42 0 2
    endloop
  endfacet
  facet normal 1 -0 0
    outer loop
      vertex 42 0 2
      vertex 42 52 0
      vertex 42 52 2
    endloop
  endfacet
  facet normal 1 0 0
    outer loop
      vertex 42 52 0
      vertex 42 0 2
      vertex 42 0 0
    endloop
  endfacet
  facet normal 0 1 -0
    outer loop
      vertex 42 52 0
      vertex 0 52 2
      vertex 42 52 2
    endloop
  endfacet
  facet normal 0 1 0
    outer loop
      vertex 0 52 2
      vertex 42 52 0
      vertex 0 52 0
    endloop
  endfacet
  facet normal 0 0 -1
    outer loop
      vertex 14.1421 0 0
      vertex 42 52 0
      vertex 42 0 0
    endloop
  endfacet
  facet normal 0 0 -1
    outer loop
      vertex 0 14.1421 0
      vertex 42 52 0
      vertex 14.1421 0 0
    endloop
  endfacet
  facet normal -0 0 -1
    outer loop
      vertex 42 52 0
      vertex 0 14.1421 0
      vertex 0 52 0
    endloop
  endfacet
  facet normal 0 -1 0
    outer loop
      vertex 14.1421 0 0
      vertex 42 0 2
      vertex 14.1421 0 2
    endloop
  endfacet
  facet normal 0 -1 -0
    outer loop
      vertex 42 0 2
      vertex 14.1421 0 0
      vertex 42 0 0
    endloop
  endfacet
  facet normal -0.707107 -0.707107 0
    outer loop
      vertex 14.1421 0 0
      vertex 0 14.1421 2
      vertex 0 14.1421 0
    endloop
  endfacet
  facet normal -0.707107 -0.707107 0
    outer loop
      vertex 0 14.1421 2
      vertex 14.1421 0 0
      vertex 14.1421 0 2
    endloop
  endfacet
  facet normal 1 0 0
    outer loop
      vertex 24 35.9803 2.6279
      vertex 24 26 12
      vertex 24 16.0197 2.6279
    endloop
  endfacet
  facet normal 1 0 0
    outer loop
      vertex 24 33.7051 8.37424
      vertex 24 32.8455 9.28969
      vertex 24 35.9803 2.6279
    endloop
  endfacet
  facet normal 0 -0.309017 0.951057
    outer loop
      vertex 21 23.5131 11.6858
      vertex 24 22.3188 11.2978
      vertex 24 23.5131 11.6858
    endloop
  endfacet
  facet normal 0 -0.309017 0.951057
    outer loop
      vertex 24 22.3188 11.2978
      vertex 21 23.5131 11.6858
      vertex 21 22.3188 11.2978
    endloop
  endfacet
  facet normal -0 0.187381 0.982287
    outer loop
      vertex 21 28.4869 11.6858
      vertex 24 27.2533 11.9211
      vertex 24 28.4869 11.6858
    endloop
  endfacet
  facet normal 0 0.187381 0.982287
    outer loop
      vertex 24 27.2533 11.9211
      vertex 21 28.4869 11.6858
      vertex 21 27.2533 11.9211
    endloop
  endfacet
  facet normal 0 0.929776 0.368125
    outer loop
      vertex 24 35.5106 5.09017
      vertex 21 35.0483 6.25779
      vertex 24 35.0483 6.25779
    endloop
  endfacet
  facet normal 0 0.929776 0.368125
    outer loop
      vertex 21 35.0483 6.25779
      vertex 24 35.5106 5.09017
      vertex 21 35.5106 5.09017
    endloop
  endfacet
  facet normal -0 0.425779 0.904827
    outer loop
      vertex 21 30.8175 10.7631
      vertex 24 29.6812 11.2978
      vertex 24 30.8175 10.7631
    endloop
  endfacet
  facet normal 0 0.425779 0.904827
    outer loop
      vertex 24 29.6812 11.2978
      vertex 21 30.8175 10.7631
      vertex 21 29.6812 11.2978
    endloop
  endfacet
  facet normal 1 0 0
    outer loop
      vertex 24 35.0483 6.25779
      vertex 24 34.4433 7.35827
      vertex 24 35.9803 2.6279
    endloop
  endfacet
  facet normal 1 0 0
    outer loop
      vertex 24 20.1221 10.0902
      vertex 24 19.1545 9.28969
      vertex 24 16.0197 2.6279
    endloop
  endfacet
  facet normal 1 0 0
    outer loop
      vertex 24 23.5131 11.6858
      vertex 24 22.3188 11.2978
      vertex 24 16.0197 2.6279
    endloop
  endfacet
  facet normal 1 0 0
    outer loop
      vertex 24 27.2533 11.9211
      vertex 24 26 12
      vertex 24 35.9803 2.6279
    endloop
  endfacet
  facet normal 1 0 0
    outer loop
      vertex 24 30.8175 10.7631
      vertex 24 29.6812 11.2978
      vertex 24 35.9803 2.6279
    endloop
  endfacet
  facet normal -0 0.637425 0.770513
    outer loop
      vertex 21 32.8455 9.28969
      vertex 24 31.8779 10.0902
      vertex 24 32.8455 9.28969
    endloop
  endfacet
  facet normal 0 0.637425 0.770513
    outer loop
      vertex 24 31.8779 10.0902
      vertex 21 32.8455 9.28969
      vertex 21 31.8779 10.0902
    endloop
  endfacet
  facet normal 1 0 0
    outer loop
      vertex 24 35.5106 5.09017
      vertex 24 35.0483 6.25779
      vertex 24 35.9803 2.6279
    endloop
  endfacet
  facet normal 0 0.876307 0.481754
    outer loop
      vertex 24 35.0483 6.25779
      vertex 21 34.4433 7.35827
      vertex 24 34.4433 7.35827
    endloop
  endfacet
  facet normal 0 0.876307 0.481754
    outer loop
      vertex 21 34.4433 7.35827
      vertex 24 35.0483 6.25779
      vertex 21 35.0483 6.25779
    endloop
  endfacet
  facet normal 0 0.992115 0.125333
    outer loop
      vertex 24 35.9803 2.6279
      vertex 21 35.8229 3.87381
      vertex 24 35.8229 3.87381
    endloop
  endfacet
  facet normal 0 0.992115 0.125333
    outer loop
      vertex 21 35.8229 3.87381
      vertex 24 35.9803 2.6279
      vertex 21 35.9803 2.6279
    endloop
  endfacet
  facet normal 1 0 0
    outer loop
      vertex 24 34.4433 7.35827
      vertex 24 33.7051 8.37424
      vertex 24 35.9803 2.6279
    endloop
  endfacet
  facet normal 0 -0.728969 0.684547
    outer loop
      vertex 21 18.2949 8.37424
      vertex 24 19.1545 9.28969
      vertex 21 19.1545 9.28969
    endloop
  endfacet
  facet normal 0 -0.728969 0.684547
    outer loop
      vertex 24 19.1545 9.28969
      vertex 21 18.2949 8.37424
      vertex 24 18.2949 8.37424
    endloop
  endfacet
  facet normal 0 -0.637425 0.770513
    outer loop
      vertex 21 20.1221 10.0902
      vertex 24 19.1545 9.28969
      vertex 24 20.1221 10.0902
    endloop
  endfacet
  facet normal 0 -0.637425 0.770513
    outer loop
      vertex 24 19.1545 9.28969
      vertex 21 20.1221 10.0902
      vertex 21 19.1545 9.28969
    endloop
  endfacet
  facet normal 1 -0 0
    outer loop
      vertex 24 16.0197 2.6279
      vertex 24 35.9803 2
      vertex 24 35.9803 2.6279
    endloop
  endfacet
  facet normal 1 0 0
    outer loop
      vertex 24 35.9803 2
      vertex 24 16.0197 2.6279
      vertex 24 16.0197 2
    endloop
  endfacet
  facet normal 0 1 -0
    outer loop
      vertex 24 35.9803 2
      vertex 21 35.9803 2.6279
      vertex 24 35.9803 2.6279
    endloop
  endfacet
  facet normal 0 1 0
    outer loop
      vertex 21 35.9803 2.6279
      vertex 24 35.9803 2
      vertex 21 35.9803 2
    endloop
  endfacet
  facet normal -0 0.062791 0.998027
    outer loop
      vertex 21 27.2533 11.9211
      vertex 24 26 12
      vertex 24 27.2533 11.9211
    endloop
  endfacet
  facet normal 0 0.062791 0.998027
    outer loop
      vertex 24 26 12
      vertex 21 27.2533 11.9211
      vertex 21 26 12
    endloop
  endfacet
  facet normal 1 0 0
    outer loop
      vertex 24 28.4869 11.6858
      vertex 24 27.2533 11.9211
      vertex 24 35.9803 2.6279
    endloop
  endfacet
  facet normal 1 0 0
    outer loop
      vertex 24 29.6812 11.2978
      vertex 24 28.4869 11.6858
      vertex 24 35.9803 2.6279
    endloop
  endfacet
  facet normal -0 0.309017 0.951057
    outer loop
      vertex 21 29.6812 11.2978
      vertex 24 28.4869 11.6858
      vertex 24 29.6812 11.2978
    endloop
  endfacet
  facet normal 0 0.309017 0.951057
    outer loop
      vertex 24 28.4869 11.6858
      vertex 21 29.6812 11.2978
      vertex 21 28.4869 11.6858
    endloop
  endfacet
  facet normal 1 0 0
    outer loop
      vertex 24 31.8779 10.0902
      vertex 24 30.8175 10.7631
      vertex 24 35.9803 2.6279
    endloop
  endfacet
  facet normal 1 0 0
    outer loop
      vertex 24 32.8455 9.28969
      vertex 24 31.8779 10.0902
      vertex 24 35.9803 2.6279
    endloop
  endfacet
  facet normal -0 0.535826 0.844329
    outer loop
      vertex 21 31.8779 10.0902
      vertex 24 30.8175 10.7631
      vertex 24 31.8779 10.0902
    endloop
  endfacet
  facet normal 0 0.535826 0.844329
    outer loop
      vertex 24 30.8175 10.7631
      vertex 21 31.8779 10.0902
      vertex 21 30.8175 10.7631
    endloop
  endfacet
  facet normal 0 0.809016 0.587786
    outer loop
      vertex 24 34.4433 7.35827
      vertex 21 33.7051 8.37424
      vertex 24 33.7051 8.37424
    endloop
  endfacet
  facet normal 0 0.809016 0.587786
    outer loop
      vertex 21 33.7051 8.37424
      vertex 24 34.4433 7.35827
      vertex 21 34.4433 7.35827
    endloop
  endfacet
  facet normal 0 0.968584 0.248688
    outer loop
      vertex 24 35.8229 3.87381
      vertex 21 35.5106 5.09017
      vertex 24 35.5106 5.09017
    endloop
  endfacet
  facet normal 0 0.968584 0.248688
    outer loop
      vertex 21 35.5106 5.09017
      vertex 24 35.8229 3.87381
      vertex 21 35.8229 3.87381
    endloop
  endfacet
  facet normal 1 0 0
    outer loop
      vertex 24 35.8229 3.87381
      vertex 24 35.5106 5.09017
      vertex 24 35.9803 2.6279
    endloop
  endfacet
  facet normal 0 0.728969 0.684547
    outer loop
      vertex 24 33.7051 8.37424
      vertex 21 32.8455 9.28969
      vertex 24 32.8455 9.28969
    endloop
  endfacet
  facet normal 0 0.728969 0.684547
    outer loop
      vertex 21 32.8455 9.28969
      vertex 24 33.7051 8.37424
      vertex 21 33.7051 8.37424
    endloop
  endfacet
  facet normal 0 -1 0
    outer loop
      vertex 21 16.0197 2
      vertex 24 16.0197 2.6279
      vertex 21 16.0197 2.6279
    endloop
  endfacet
  facet normal 0 -1 -0
    outer loop
      vertex 24 16.0197 2.6279
      vertex 21 16.0197 2
      vertex 24 16.0197 2
    endloop
  endfacet
  facet normal 1 0 0
    outer loop
      vertex 24 24.7467 11.9211
      vertex 24 23.5131 11.6858
      vertex 24 16.0197 2.6279
    endloop
  endfacet
  facet normal 0 -0.876307 0.481754
    outer loop
      vertex 21 16.9517 6.25779
      vertex 24 17.5567 7.35827
      vertex 21 17.5567 7.35827
    endloop
  endfacet
  facet normal 0 -0.876307 0.481754
    outer loop
      vertex 24 17.5567 7.35827
      vertex 21 16.9517 6.25779
      vertex 24 16.9517 6.25779
    endloop
  endfacet
  facet normal 0 -0.968583 0.24869
    outer loop
      vertex 21 16.1771 3.87381
      vertex 24 16.4894 5.09017
      vertex 21 16.4894 5.09017
    endloop
  endfacet
  facet normal 0 -0.968583 0.24869
    outer loop
      vertex 24 16.4894 5.09017
      vertex 21 16.1771 3.87381
      vertex 24 16.1771 3.87381
    endloop
  endfacet
  facet normal 1 0 0
    outer loop
      vertex 24 16.4894 5.09017
      vertex 24 16.1771 3.87381
      vertex 24 16.0197 2.6279
    endloop
  endfacet
  facet normal 0 -0.809016 0.587786
    outer loop
      vertex 21 17.5567 7.35827
      vertex 24 18.2949 8.37424
      vertex 21 18.2949 8.37424
    endloop
  endfacet
  facet normal 0 -0.809016 0.587786
    outer loop
      vertex 24 18.2949 8.37424
      vertex 21 17.5567 7.35827
      vertex 24 17.5567 7.35827
    endloop
  endfacet
  facet normal 1 0 0
    outer loop
      vertex 24 21.1825 10.7631
      vertex 24 20.1221 10.0902
      vertex 24 16.0197 2.6279
    endloop
  endfacet
  facet normal 1 0 0
    outer loop
      vertex 24 22.3188 11.2978
      vertex 24 21.1825 10.7631
      vertex 24 16.0197 2.6279
    endloop
  endfacet
  facet normal 1 0 0
    outer loop
      vertex 24 26 12
      vertex 24 24.7467 11.9211
      vertex 24 16.0197 2.6279
    endloop
  endfacet
  facet normal -1 0 0
    outer loop
      vertex 21 35.9803 2
      vertex 21 35.8229 3.87381
      vertex 21 35.9803 2.6279
    endloop
  endfacet
  facet normal -1 0 0
    outer loop
      vertex 21 35.9803 2
      vertex 21 35.5106 5.09017
      vertex 21 35.8229 3.87381
    endloop
  endfacet
  facet normal -1 0 0
    outer loop
      vertex 21 35.9803 2
      vertex 21 35.0483 6.25779
      vertex 21 35.5106 5.09017
    endloop
  endfacet
  facet normal -1 0 0
    outer loop
      vertex 21 35.9803 2
      vertex 21 34.4433 7.35827
      vertex 21 35.0483 6.25779
    endloop
  endfacet
  facet normal -1 0 0
    outer loop
      vertex 21 35.9803 2
      vertex 21 33.7051 8.37424
      vertex 21 34.4433 7.35827
    endloop
  endfacet
  facet normal -1 0 0
    outer loop
      vertex 21 35.9803 2
      vertex 21 32.8455 9.28969
      vertex 21 33.7051 8.37424
    endloop
  endfacet
  facet normal -1 0 0
    outer loop
      vertex 21 35.9803 2
      vertex 21 31.8779 10.0902
      vertex 21 32.8455 9.28969
    endloop
  endfacet
  facet normal -1 0 0
    outer loop
      vertex 21 35.9803 2
      vertex 21 30.8175 10.7631
      vertex 21 31.8779 10.0902
    endloop
  endfacet
  facet normal -1 0 0
    outer loop
      vertex 21 35.9803 2
      vertex 21 29.6812 11.2978
      vertex 21 30.8175 10.7631
    endloop
  endfacet
  facet normal -1 0 0
    outer loop
      vertex 21 35.9803 2
      vertex 21 28.4869 11.6858
      vertex 21 29.6812 11.2978
    endloop
  endfacet
  facet normal -1 0 0
    outer loop
      vertex 21 35.9803 2
      vertex 21 27.2533 11.9211
      vertex 21 28.4869 11.6858
    endloop
  endfacet
  facet normal -1 0 0
    outer loop
      vertex 21 35.9803 2
      vertex 21 26 12
      vertex 21 27.2533 11.9211
    endloop
  endfacet
  facet normal -1 0 0
    outer loop
      vertex 21 35.9803 2
      vertex 21 24.7467 11.9211
      vertex 21 26 12
    endloop
  endfacet
  facet normal -1 0 0
    outer loop
      vertex 21 35.9803 2
      vertex 21 23.5131 11.6858
      vertex 21 24.7467 11.9211
    endloop
  endfacet
  facet normal -1 0 0
    outer loop
      vertex 21 35.9803 2
      vertex 21 22.3188 11.2978
      vertex 21 23.5131 11.6858
    endloop
  endfacet
  facet normal -1 0 0
    outer loop
      vertex 21 35.9803 2
      vertex 21 21.1825 10.7631
      vertex 21 22.3188 11.2978
    endloop
  endfacet
  facet normal -1 0 0
    outer loop
      vertex 21 35.9803 2
      vertex 21 20.1221 10.0902
      vertex 21 21.1825 10.7631
    endloop
  endfacet
  facet normal -1 0 0
    outer loop
      vertex 21 35.9803 2
      vertex 21 19.1545 9.28969
      vertex 21 20.1221 10.0902
    endloop
  endfacet
  facet normal -1 0 0
    outer loop
      vertex 21 35.9803 2
      vertex 21 18.2949 8.37424
      vertex 21 19.1545 9.28969
    endloop
  endfacet
  facet normal -1 0 0
    outer loop
      vertex 21 35.9803 2
      vertex 21 17.5567 7.35827
      vertex 21 18.2949 8.37424
    endloop
  endfacet
  facet normal -1 0 0
    outer loop
      vertex 21 35.9803 2
      vertex 21 16.9517 6.25779
      vertex 21 17.5567 7.35827
    endloop
  endfacet
  facet normal -1 0 0
    outer loop
      vertex 21 35.9803 2
      vertex 21 16.4894 5.09017
      vertex 21 16.9517 6.25779
    endloop
  endfacet
  facet normal -1 0 0
    outer loop
      vertex 21 16.0197 2
      vertex 21 16.4894 5.09017
      vertex 21 35.9803 2
    endloop
  endfacet
  facet normal -1 0 0
    outer loop
      vertex 21 16.4894 5.09017
      vertex 21 16.0197 2
      vertex 21 16.1771 3.87381
    endloop
  endfacet
  facet normal -1 0 0
    outer loop
      vertex 21 16.1771 3.87381
      vertex 21 16.0197 2
      vertex 21 16.0197 2.6279
    endloop
  endfacet
  facet normal 0 -0.992115 0.125333
    outer loop
      vertex 21 16.0197 2.6279
      vertex 24 16.1771 3.87381
      vertex 21 16.1771 3.87381
    endloop
  endfacet
  facet normal 0 -0.992115 0.125333
    outer loop
      vertex 24 16.1771 3.87381
      vertex 21 16.0197 2.6279
      vertex 24 16.0197 2.6279
    endloop
  endfacet
  facet normal 0 -0.929777 0.368124
    outer loop
      vertex 21 16.4894 5.09017
      vertex 24 16.9517 6.25779
      vertex 21 16.9517 6.25779
    endloop
  endfacet
  facet normal 0 -0.929777 0.368124
    outer loop
      vertex 24 16.9517 6.25779
      vertex 21 16.4894 5.09017
      vertex 24 16.4894 5.09017
    endloop
  endfacet
  facet normal 1 0 0
    outer loop
      vertex 24 17.5567 7.35827
      vertex 24 16.9517 6.25779
      vertex 24 16.0197 2.6279
    endloop
  endfacet
  facet normal 0 -0.535826 0.844329
    outer loop
      vertex 21 21.1825 10.7631
      vertex 24 20.1221 10.0902
      vertex 24 21.1825 10.7631
    endloop
  endfacet
  facet normal 0 -0.535826 0.844329
    outer loop
      vertex 24 20.1221 10.0902
      vertex 21 21.1825 10.7631
      vertex 21 20.1221 10.0902
    endloop
  endfacet
  facet normal 0 -0.425779 0.904827
    outer loop
      vertex 21 22.3188 11.2978
      vertex 24 21.1825 10.7631
      vertex 24 22.3188 11.2978
    endloop
  endfacet
  facet normal 0 -0.425779 0.904827
    outer loop
      vertex 24 21.1825 10.7631
      vertex 21 22.3188 11.2978
      vertex 21 21.1825 10.7631
    endloop
  endfacet
  facet normal 0 -0.187381 0.982287
    outer loop
      vertex 21 24.7467 11.9211
      vertex 24 23.5131 11.6858
      vertex 24 24.7467 11.9211
    endloop
  endfacet
  facet normal 0 -0.187381 0.982287
    outer loop
      vertex 24 23.5131 11.6858
      vertex 21 24.7467 11.9211
      vertex 21 23.5131 11.6858
    endloop
  endfacet
  facet normal 0 -0.062791 0.998027
    outer loop
      vertex 21 26 12
      vertex 24 24.7467 11.9211
      vertex 24 26 12
    endloop
  endfacet
  facet normal 0 -0.062791 0.998027
    outer loop
      vertex 24 24.7467 11.9211
      vertex 21 26 12
      vertex 21 24.7467 11.9211
    endloop
  endfacet
  facet normal 1 0 0
    outer loop
      vertex 24 18.2949 8.37424
      vertex 24 17.5567 7.35827
      vertex 24 16.0197 2.6279
    endloop
  endfacet
  facet normal 1 0 0
    outer loop
      vertex 24 19.1545 9.28969
      vertex 24 18.2949 8.37424
      vertex 24 16.0197 2.6279
    endloop
  endfacet
  facet normal 1 0 0
    outer loop
      vertex 24 16.9517 6.25779
      vertex 24 16.4894 5.09017
      vertex 24 16.0197 2.6279
    endloop
  endfacet
endsolid OpenSCAD_Model
