solid OpenSCAD_Model
  facet normal -1 0 0
    outer loop
      vertex 0 59 0
      vertex 0 34 30
      vertex 0 59 45
    endloop
  endfacet
  facet normal -1 0 0
    outer loop
      vertex 0 59 0
      vertex 0 31 27
      vertex 0 34 30
    endloop
  endfacet
  facet normal -1 0 0
    outer loop
      vertex 0 59 0
      vertex 0 28 27
      vertex 0 31 27
    endloop
  endfacet
  facet normal -1 0 0
    outer loop
      vertex 0 28 27
      vertex 0 25 30
      vertex 0 28 30
    endloop
  endfacet
  facet normal -1 0 0
    outer loop
      vertex 0 0 45
      vertex 0 25 30
      vertex 0 0 0
    endloop
  endfacet
  facet normal -1 -0 0
    outer loop
      vertex 0 28 27
      vertex 0 0 0
      vertex 0 25 30
    endloop
  endfacet
  facet normal -1 0 0
    outer loop
      vertex 0 0 0
      vertex 0 28 27
      vertex 0 59 0
    endloop
  endfacet
  facet normal -1 0 0
    outer loop
      vertex 0 34 33
      vertex 0 59 45
      vertex 0 34 30
    endloop
  endfacet
  facet normal -1 0 0
    outer loop
      vertex 0 25 33
      vertex 0 59 45
      vertex 0 34 33
    endloop
  endfacet
  facet normal -1 0 0
    outer loop
      vertex 0 25 33
      vertex 0 0 45
      vertex 0 59 45
    endloop
  endfacet
  facet normal -1 0 0
    outer loop
      vertex 0 25 30
      vertex 0 0 45
      vertex 0 25 33
    endloop
  endfacet
  facet normal -1 -0 0
    outer loop
      vertex 0 34 30
      vertex 0 31 27
      vertex 0 31 30
    endloop
  endfacet
  facet normal 0 0 1
    outer loop
      vertex 50 59 45
      vertex 47 56 45
      vertex 50 0 45
    endloop
  endfacet
  facet normal 0 0 1
    outer loop
      vertex 50 59 45
      vertex 3 56 45
      vertex 47 56 45
    endloop
  endfacet
  facet normal 0 0 1
    outer loop
      vertex 3 56 45
      vertex 0 59 45
      vertex 3 3 45
    endloop
  endfacet
  facet normal -0 0 1
    outer loop
      vertex 0 59 45
      vertex 3 56 45
      vertex 50 59 45
    endloop
  endfacet
  facet normal -0 0 1
    outer loop
      vertex 47 3 45
      vertex 50 0 45
      vertex 47 56 45
    endloop
  endfacet
  facet normal -0 0 1
    outer loop
      vertex 3 3 45
      vertex 50 0 45
      vertex 47 3 45
    endloop
  endfacet
  facet normal 0 0 1
    outer loop
      vertex 3 3 45
      vertex 0 0 45
      vertex 50 0 45
    endloop
  endfacet
  facet normal 0 0 1
    outer loop
      vertex 0 0 45
      vertex 3 3 45
      vertex 0 59 45
    endloop
  endfacet
  facet normal 1 -0 0
    outer loop
      vertex 50 0 45
      vertex 50 59 0
      vertex 50 59 45
    endloop
  endfacet
  facet normal 1 0 0
    outer loop
      vertex 50 59 0
      vertex 50 0 45
      vertex 50 0 0
    endloop
  endfacet
  facet normal 0 0 -1
    outer loop
      vertex 0 0 0
      vertex 50 59 0
      vertex 50 0 0
    endloop
  endfacet
  facet normal -0 0 -1
    outer loop
      vertex 50 59 0
      vertex 0 0 0
      vertex 0 59 0
    endloop
  endfacet
  facet normal 0 -1 0
    outer loop
      vertex 0 0 0
      vertex 50 0 45
      vertex 0 0 45
    endloop
  endfacet
  facet normal 0 -1 -0
    outer loop
      vertex 50 0 45
      vertex 0 0 0
      vertex 50 0 0
    endloop
  endfacet
  facet normal 0 1 0
    outer loop
      vertex 22.5 59 30
      vertex 22.5 59 27
      vertex 19.5 59 30
    endloop
  endfacet
  facet normal 0 1 0
    outer loop
      vertex 50 59 45
      vertex 28.5 59 33
      vertex 0 59 45
    endloop
  endfacet
  facet normal 0 1 0
    outer loop
      vertex 50 59 45
      vertex 28.5 59 30
      vertex 28.5 59 33
    endloop
  endfacet
  facet normal 0 1 0
    outer loop
      vertex 28.5 59 30
      vertex 25.5 59 27
      vertex 25.5 59 30
    endloop
  endfacet
  facet normal 0 1 -0
    outer loop
      vertex 50 59 0
      vertex 28.5 59 30
      vertex 50 59 45
    endloop
  endfacet
  facet normal 0 1 0
    outer loop
      vertex 0 59 0
      vertex 25.5 59 27
      vertex 50 59 0
    endloop
  endfacet
  facet normal 0 1 0
    outer loop
      vertex 28.5 59 30
      vertex 50 59 0
      vertex 25.5 59 27
    endloop
  endfacet
  facet normal 0 1 -0
    outer loop
      vertex 19.5 59 33
      vertex 0 59 45
      vertex 28.5 59 33
    endloop
  endfacet
  facet normal 0 1 -0
    outer loop
      vertex 19.5 59 30
      vertex 0 59 45
      vertex 19.5 59 33
    endloop
  endfacet
  facet normal 0 1 0
    outer loop
      vertex 0 59 0
      vertex 19.5 59 30
      vertex 22.5 59 27
    endloop
  endfacet
  facet normal 0 1 0
    outer loop
      vertex 25.5 59 27
      vertex 0 59 0
      vertex 22.5 59 27
    endloop
  endfacet
  facet normal 0 1 0
    outer loop
      vertex 19.5 59 30
      vertex 0 59 0
      vertex 0 59 45
    endloop
  endfacet
  facet normal 1 0 0
    outer loop
      vertex 3 56 45
      vertex 3 53 43
      vertex 3 56 43
    endloop
  endfacet
  facet normal 1 0 0
    outer loop
      vertex 3 53 43
      vertex 3 51 43
      vertex 3 53 3
    endloop
  endfacet
  facet normal 1 0 0
    outer loop
      vertex 3 56 45
      vertex 3 51 43
      vertex 3 53 43
    endloop
  endfacet
  facet normal 1 0 0
    outer loop
      vertex 3 56 45
      vertex 3 48 43
      vertex 3 51 43
    endloop
  endfacet
  facet normal 1 0 0
    outer loop
      vertex 3 48 43
      vertex 3 46 43
      vertex 3 48 3
    endloop
  endfacet
  facet normal 1 0 0
    outer loop
      vertex 3 56 45
      vertex 3 46 43
      vertex 3 48 43
    endloop
  endfacet
  facet normal 1 0 0
    outer loop
      vertex 3 56 45
      vertex 3 43 43
      vertex 3 46 43
    endloop
  endfacet
  facet normal 1 0 0
    outer loop
      vertex 3 43 43
      vertex 3 41 43
      vertex 3 43 3
    endloop
  endfacet
  facet normal 1 0 0
    outer loop
      vertex 3 56 45
      vertex 3 41 43
      vertex 3 43 43
    endloop
  endfacet
  facet normal 1 0 0
    outer loop
      vertex 3 56 45
      vertex 3 38 43
      vertex 3 41 43
    endloop
  endfacet
  facet normal 1 0 0
    outer loop
      vertex 3 38 43
      vertex 3 36 43
      vertex 3 38 3
    endloop
  endfacet
  facet normal 1 0 0
    outer loop
      vertex 3 56 45
      vertex 3 36 43
      vertex 3 38 43
    endloop
  endfacet
  facet normal 1 0 0
    outer loop
      vertex 3 56 45
      vertex 3 33 43
      vertex 3 36 43
    endloop
  endfacet
  facet normal 1 0 0
    outer loop
      vertex 3 33 43
      vertex 3 31 43
      vertex 3 33 3
    endloop
  endfacet
  facet normal 1 0 0
    outer loop
      vertex 3 56 45
      vertex 3 31 43
      vertex 3 33 43
    endloop
  endfacet
  facet normal 1 0 0
    outer loop
      vertex 3 56 45
      vertex 3 28 43
      vertex 3 31 43
    endloop
  endfacet
  facet normal 1 0 0
    outer loop
      vertex 3 28 43
      vertex 3 26 43
      vertex 3 28 3
    endloop
  endfacet
  facet normal 1 -0 0
    outer loop
      vertex 3 3 45
      vertex 3 28 43
      vertex 3 56 45
    endloop
  endfacet
  facet normal 1 0 0
    outer loop
      vertex 3 28 43
      vertex 3 3 45
      vertex 3 26 43
    endloop
  endfacet
  facet normal 1 0 0
    outer loop
      vertex 3 23 43
      vertex 3 21 43
      vertex 3 23 3
    endloop
  endfacet
  facet normal 1 0 0
    outer loop
      vertex 3 26 43
      vertex 3 3 45
      vertex 3 23 43
    endloop
  endfacet
  facet normal 1 0 0
    outer loop
      vertex 3 23 43
      vertex 3 3 45
      vertex 3 21 43
    endloop
  endfacet
  facet normal 1 0 0
    outer loop
      vertex 3 18 43
      vertex 3 16 43
      vertex 3 18 3
    endloop
  endfacet
  facet normal 1 0 0
    outer loop
      vertex 3 21 43
      vertex 3 3 45
      vertex 3 18 43
    endloop
  endfacet
  facet normal 1 0 0
    outer loop
      vertex 3 18 43
      vertex 3 3 45
      vertex 3 16 43
    endloop
  endfacet
  facet normal 1 0 0
    outer loop
      vertex 3 13 43
      vertex 3 11 43
      vertex 3 13 3
    endloop
  endfacet
  facet normal 1 0 0
    outer loop
      vertex 3 16 43
      vertex 3 3 45
      vertex 3 13 43
    endloop
  endfacet
  facet normal 1 0 0
    outer loop
      vertex 3 13 43
      vertex 3 3 45
      vertex 3 11 43
    endloop
  endfacet
  facet normal 1 0 0
    outer loop
      vertex 3 8 43
      vertex 3 6 43
      vertex 3 8 3
    endloop
  endfacet
  facet normal 1 0 0
    outer loop
      vertex 3 11 43
      vertex 3 3 45
      vertex 3 8 43
    endloop
  endfacet
  facet normal 1 0 0
    outer loop
      vertex 3 8 43
      vertex 3 3 45
      vertex 3 6 43
    endloop
  endfacet
  facet normal 1 0 0
    outer loop
      vertex 3 6 43
      vertex 3 3 45
      vertex 3 3 43
    endloop
  endfacet
  facet normal 1 0 0
    outer loop
      vertex 3 53 3
      vertex 3 51 43
      vertex 3 51 3
    endloop
  endfacet
  facet normal 1 0 0
    outer loop
      vertex 3 48 3
      vertex 3 46 43
      vertex 3 46 3
    endloop
  endfacet
  facet normal 1 0 0
    outer loop
      vertex 3 43 3
      vertex 3 41 43
      vertex 3 41 3
    endloop
  endfacet
  facet normal 1 0 0
    outer loop
      vertex 3 38 3
      vertex 3 36 43
      vertex 3 36 3
    endloop
  endfacet
  facet normal 1 0 0
    outer loop
      vertex 3 33 3
      vertex 3 31 43
      vertex 3 31 3
    endloop
  endfacet
  facet normal 1 0 0
    outer loop
      vertex 3 28 3
      vertex 3 26 43
      vertex 3 26 3
    endloop
  endfacet
  facet normal 1 0 0
    outer loop
      vertex 3 23 3
      vertex 3 21 43
      vertex 3 21 3
    endloop
  endfacet
  facet normal 1 0 0
    outer loop
      vertex 3 18 3
      vertex 3 16 43
      vertex 3 16 3
    endloop
  endfacet
  facet normal 1 0 0
    outer loop
      vertex 3 13 3
      vertex 3 11 43
      vertex 3 11 3
    endloop
  endfacet
  facet normal 1 0 0
    outer loop
      vertex 3 8 3
      vertex 3 6 43
      vertex 3 6 3
    endloop
  endfacet
  facet normal -1 0 0
    outer loop
      vertex 47 8 3
      vertex 47 6 3
      vertex 47 8 43
    endloop
  endfacet
  facet normal -1 0 0
    outer loop
      vertex 47 13 3
      vertex 47 11 3
      vertex 47 13 43
    endloop
  endfacet
  facet normal -1 0 0
    outer loop
      vertex 47 18 3
      vertex 47 16 3
      vertex 47 18 43
    endloop
  endfacet
  facet normal -1 0 0
    outer loop
      vertex 47 23 3
      vertex 47 21 3
      vertex 47 23 43
    endloop
  endfacet
  facet normal -1 0 0
    outer loop
      vertex 47 28 3
      vertex 47 26 3
      vertex 47 28 43
    endloop
  endfacet
  facet normal -1 0 0
    outer loop
      vertex 47 33 3
      vertex 47 31 3
      vertex 47 33 43
    endloop
  endfacet
  facet normal -1 0 0
    outer loop
      vertex 47 38 3
      vertex 47 36 3
      vertex 47 38 43
    endloop
  endfacet
  facet normal -1 0 0
    outer loop
      vertex 47 43 3
      vertex 47 41 3
      vertex 47 43 43
    endloop
  endfacet
  facet normal -1 0 0
    outer loop
      vertex 47 48 3
      vertex 47 46 3
      vertex 47 48 43
    endloop
  endfacet
  facet normal -1 0 0
    outer loop
      vertex 47 53 3
      vertex 47 51 3
      vertex 47 53 43
    endloop
  endfacet
  facet normal -1 0 0
    outer loop
      vertex 47 53 43
      vertex 47 56 45
      vertex 47 56 43
    endloop
  endfacet
  facet normal -1 0 0
    outer loop
      vertex 47 51 43
      vertex 47 53 43
      vertex 47 51 3
    endloop
  endfacet
  facet normal -1 0 0
    outer loop
      vertex 47 51 43
      vertex 47 56 45
      vertex 47 53 43
    endloop
  endfacet
  facet normal -1 0 0
    outer loop
      vertex 47 48 43
      vertex 47 56 45
      vertex 47 51 43
    endloop
  endfacet
  facet normal -1 0 0
    outer loop
      vertex 47 46 43
      vertex 47 48 43
      vertex 47 46 3
    endloop
  endfacet
  facet normal -1 0 0
    outer loop
      vertex 47 46 43
      vertex 47 56 45
      vertex 47 48 43
    endloop
  endfacet
  facet normal -1 0 0
    outer loop
      vertex 47 43 43
      vertex 47 56 45
      vertex 47 46 43
    endloop
  endfacet
  facet normal -1 0 0
    outer loop
      vertex 47 41 43
      vertex 47 43 43
      vertex 47 41 3
    endloop
  endfacet
  facet normal -1 0 0
    outer loop
      vertex 47 41 43
      vertex 47 56 45
      vertex 47 43 43
    endloop
  endfacet
  facet normal -1 0 0
    outer loop
      vertex 47 38 43
      vertex 47 56 45
      vertex 47 41 43
    endloop
  endfacet
  facet normal -1 0 0
    outer loop
      vertex 47 36 43
      vertex 47 38 43
      vertex 47 36 3
    endloop
  endfacet
  facet normal -1 0 0
    outer loop
      vertex 47 36 43
      vertex 47 56 45
      vertex 47 38 43
    endloop
  endfacet
  facet normal -1 0 0
    outer loop
      vertex 47 33 43
      vertex 47 56 45
      vertex 47 36 43
    endloop
  endfacet
  facet normal -1 0 0
    outer loop
      vertex 47 31 43
      vertex 47 33 43
      vertex 47 31 3
    endloop
  endfacet
  facet normal -1 0 0
    outer loop
      vertex 47 31 43
      vertex 47 56 45
      vertex 47 33 43
    endloop
  endfacet
  facet normal -1 0 0
    outer loop
      vertex 47 28 43
      vertex 47 56 45
      vertex 47 31 43
    endloop
  endfacet
  facet normal -1 0 0
    outer loop
      vertex 47 26 43
      vertex 47 28 43
      vertex 47 26 3
    endloop
  endfacet
  facet normal -1 0 0
    outer loop
      vertex 47 3 45
      vertex 47 28 43
      vertex 47 26 43
    endloop
  endfacet
  facet normal -1 0 0
    outer loop
      vertex 47 3 45
      vertex 47 26 43
      vertex 47 23 43
    endloop
  endfacet
  facet normal -1 0 0
    outer loop
      vertex 47 21 43
      vertex 47 23 43
      vertex 47 21 3
    endloop
  endfacet
  facet normal -1 0 0
    outer loop
      vertex 47 3 45
      vertex 47 23 43
      vertex 47 21 43
    endloop
  endfacet
  facet normal -1 0 0
    outer loop
      vertex 47 3 45
      vertex 47 21 43
      vertex 47 18 43
    endloop
  endfacet
  facet normal -1 0 0
    outer loop
      vertex 47 16 43
      vertex 47 18 43
      vertex 47 16 3
    endloop
  endfacet
  facet normal -1 0 0
    outer loop
      vertex 47 3 45
      vertex 47 18 43
      vertex 47 16 43
    endloop
  endfacet
  facet normal -1 0 0
    outer loop
      vertex 47 3 45
      vertex 47 16 43
      vertex 47 13 43
    endloop
  endfacet
  facet normal -1 0 0
    outer loop
      vertex 47 11 43
      vertex 47 13 43
      vertex 47 11 3
    endloop
  endfacet
  facet normal -1 0 0
    outer loop
      vertex 47 3 45
      vertex 47 13 43
      vertex 47 11 43
    endloop
  endfacet
  facet normal -1 0 0
    outer loop
      vertex 47 3 45
      vertex 47 11 43
      vertex 47 8 43
    endloop
  endfacet
  facet normal -1 0 0
    outer loop
      vertex 47 6 43
      vertex 47 8 43
      vertex 47 6 3
    endloop
  endfacet
  facet normal -1 0 0
    outer loop
      vertex 47 3 45
      vertex 47 8 43
      vertex 47 6 43
    endloop
  endfacet
  facet normal -1 0 0
    outer loop
      vertex 47 3 45
      vertex 47 6 43
      vertex 47 3 43
    endloop
  endfacet
  facet normal -1 0 0
    outer loop
      vertex 47 28 43
      vertex 47 3 45
      vertex 47 56 45
    endloop
  endfacet
  facet normal 0 -1 0
    outer loop
      vertex 6 56 3
      vertex 44 56 43
      vertex 6 56 43
    endloop
  endfacet
  facet normal 0 -1 -0
    outer loop
      vertex 44 56 43
      vertex 6 56 3
      vertex 44 56 3
    endloop
  endfacet
  facet normal 0 -1 0
    outer loop
      vertex 6 56 43
      vertex 3 56 45
      vertex 3 56 43
    endloop
  endfacet
  facet normal 0 -1 0
    outer loop
      vertex 3 56 45
      vertex 6 56 43
      vertex 47 56 45
    endloop
  endfacet
  facet normal 0 -1 0
    outer loop
      vertex 44 56 43
      vertex 47 56 45
      vertex 6 56 43
    endloop
  endfacet
  facet normal 0 -1 -0
    outer loop
      vertex 47 56 45
      vertex 44 56 43
      vertex 47 56 43
    endloop
  endfacet
  facet normal -0 0 1
    outer loop
      vertex 3 8 3
      vertex 6 6 3
      vertex 6 8 3
    endloop
  endfacet
  facet normal 0 0 1
    outer loop
      vertex 6 6 3
      vertex 3 8 3
      vertex 3 6 3
    endloop
  endfacet
  facet normal -0 0 1
    outer loop
      vertex 3 13 3
      vertex 6 11 3
      vertex 6 13 3
    endloop
  endfacet
  facet normal 0 0 1
    outer loop
      vertex 6 11 3
      vertex 3 13 3
      vertex 3 11 3
    endloop
  endfacet
  facet normal -0 0 1
    outer loop
      vertex 3 18 3
      vertex 6 16 3
      vertex 6 18 3
    endloop
  endfacet
  facet normal 0 0 1
    outer loop
      vertex 6 16 3
      vertex 3 18 3
      vertex 3 16 3
    endloop
  endfacet
  facet normal -0 0 1
    outer loop
      vertex 3 23 3
      vertex 6 21 3
      vertex 6 23 3
    endloop
  endfacet
  facet normal 0 0 1
    outer loop
      vertex 6 21 3
      vertex 3 23 3
      vertex 3 21 3
    endloop
  endfacet
  facet normal -0 0 1
    outer loop
      vertex 3 28 3
      vertex 6 26 3
      vertex 6 28 3
    endloop
  endfacet
  facet normal 0 0 1
    outer loop
      vertex 6 26 3
      vertex 3 28 3
      vertex 3 26 3
    endloop
  endfacet
  facet normal -0 0 1
    outer loop
      vertex 3 33 3
      vertex 6 31 3
      vertex 6 33 3
    endloop
  endfacet
  facet normal 0 0 1
    outer loop
      vertex 6 31 3
      vertex 3 33 3
      vertex 3 31 3
    endloop
  endfacet
  facet normal -0 0 1
    outer loop
      vertex 3 38 3
      vertex 6 36 3
      vertex 6 38 3
    endloop
  endfacet
  facet normal 0 0 1
    outer loop
      vertex 6 36 3
      vertex 3 38 3
      vertex 3 36 3
    endloop
  endfacet
  facet normal -0 0 1
    outer loop
      vertex 3 43 3
      vertex 6 41 3
      vertex 6 43 3
    endloop
  endfacet
  facet normal 0 0 1
    outer loop
      vertex 6 41 3
      vertex 3 43 3
      vertex 3 41 3
    endloop
  endfacet
  facet normal -0 0 1
    outer loop
      vertex 3 48 3
      vertex 6 46 3
      vertex 6 48 3
    endloop
  endfacet
  facet normal 0 0 1
    outer loop
      vertex 6 46 3
      vertex 3 48 3
      vertex 3 46 3
    endloop
  endfacet
  facet normal -0 0 1
    outer loop
      vertex 3 53 3
      vertex 6 51 3
      vertex 6 53 3
    endloop
  endfacet
  facet normal 0 0 1
    outer loop
      vertex 6 51 3
      vertex 3 53 3
      vertex 3 51 3
    endloop
  endfacet
  facet normal 0 0 1
    outer loop
      vertex 6 53 3
      vertex 44 53 3
      vertex 44 56 3
    endloop
  endfacet
  facet normal 0 0 1
    outer loop
      vertex 44 53 3
      vertex 6 53 3
      vertex 44 51 3
    endloop
  endfacet
  facet normal 0 0 1
    outer loop
      vertex 44 51 3
      vertex 6 51 3
      vertex 44 48 3
    endloop
  endfacet
  facet normal 0 0 1
    outer loop
      vertex 6 48 3
      vertex 44 48 3
      vertex 6 51 3
    endloop
  endfacet
  facet normal 0 0 1
    outer loop
      vertex 6 46 3
      vertex 44 46 3
      vertex 6 48 3
    endloop
  endfacet
  facet normal 0 0 1
    outer loop
      vertex 44 46 3
      vertex 6 46 3
      vertex 44 43 3
    endloop
  endfacet
  facet normal 0 0 1
    outer loop
      vertex 44 43 3
      vertex 6 43 3
      vertex 44 41 3
    endloop
  endfacet
  facet normal 0 0 1
    outer loop
      vertex 6 41 3
      vertex 44 41 3
      vertex 6 43 3
    endloop
  endfacet
  facet normal 0 0 1
    outer loop
      vertex 6 38 3
      vertex 44 38 3
      vertex 6 41 3
    endloop
  endfacet
  facet normal 0 0 1
    outer loop
      vertex 44 38 3
      vertex 6 38 3
      vertex 44 36 3
    endloop
  endfacet
  facet normal 0 0 1
    outer loop
      vertex 44 36 3
      vertex 6 36 3
      vertex 44 33 3
    endloop
  endfacet
  facet normal 0 0 1
    outer loop
      vertex 6 33 3
      vertex 44 33 3
      vertex 6 36 3
    endloop
  endfacet
  facet normal 0 0 1
    outer loop
      vertex 6 31 3
      vertex 44 31 3
      vertex 6 33 3
    endloop
  endfacet
  facet normal 0 0 1
    outer loop
      vertex 44 31 3
      vertex 6 31 3
      vertex 44 28 3
    endloop
  endfacet
  facet normal 0 0 1
    outer loop
      vertex 44 28 3
      vertex 6 28 3
      vertex 44 26 3
    endloop
  endfacet
  facet normal 0 0 1
    outer loop
      vertex 6 26 3
      vertex 44 26 3
      vertex 6 28 3
    endloop
  endfacet
  facet normal 0 0 1
    outer loop
      vertex 6 23 3
      vertex 44 23 3
      vertex 6 26 3
    endloop
  endfacet
  facet normal 0 0 1
    outer loop
      vertex 44 23 3
      vertex 6 23 3
      vertex 44 21 3
    endloop
  endfacet
  facet normal 0 0 1
    outer loop
      vertex 44 21 3
      vertex 6 21 3
      vertex 44 18 3
    endloop
  endfacet
  facet normal 0 0 1
    outer loop
      vertex 6 18 3
      vertex 44 18 3
      vertex 6 21 3
    endloop
  endfacet
  facet normal 0 0 1
    outer loop
      vertex 6 53 3
      vertex 44 56 3
      vertex 6 56 3
    endloop
  endfacet
  facet normal 0 0 1
    outer loop
      vertex 44 51 3
      vertex 6 53 3
      vertex 6 51 3
    endloop
  endfacet
  facet normal 0 0 1
    outer loop
      vertex 44 48 3
      vertex 6 48 3
      vertex 44 46 3
    endloop
  endfacet
  facet normal 0 0 1
    outer loop
      vertex 6 43 3
      vertex 44 43 3
      vertex 6 46 3
    endloop
  endfacet
  facet normal 0 0 1
    outer loop
      vertex 44 41 3
      vertex 6 41 3
      vertex 44 38 3
    endloop
  endfacet
  facet normal 0 0 1
    outer loop
      vertex 6 36 3
      vertex 44 36 3
      vertex 6 38 3
    endloop
  endfacet
  facet normal 0 0 1
    outer loop
      vertex 44 33 3
      vertex 6 33 3
      vertex 44 31 3
    endloop
  endfacet
  facet normal 0 0 1
    outer loop
      vertex 6 28 3
      vertex 44 28 3
      vertex 6 31 3
    endloop
  endfacet
  facet normal 0 0 1
    outer loop
      vertex 44 26 3
      vertex 6 26 3
      vertex 44 23 3
    endloop
  endfacet
  facet normal 0 0 1
    outer loop
      vertex 6 21 3
      vertex 44 21 3
      vertex 6 23 3
    endloop
  endfacet
  facet normal 0 0 1
    outer loop
      vertex 44 18 3
      vertex 6 18 3
      vertex 44 16 3
    endloop
  endfacet
  facet normal 0 0 1
    outer loop
      vertex 6 16 3
      vertex 44 16 3
      vertex 6 18 3
    endloop
  endfacet
  facet normal 0 0 1
    outer loop
      vertex 44 16 3
      vertex 6 16 3
      vertex 44 13 3
    endloop
  endfacet
  facet normal 0 0 1
    outer loop
      vertex 6 13 3
      vertex 44 13 3
      vertex 6 16 3
    endloop
  endfacet
  facet normal 0 0 1
    outer loop
      vertex 44 13 3
      vertex 6 13 3
      vertex 44 11 3
    endloop
  endfacet
  facet normal 0 0 1
    outer loop
      vertex 6 11 3
      vertex 44 11 3
      vertex 6 13 3
    endloop
  endfacet
  facet normal 0 0 1
    outer loop
      vertex 44 11 3
      vertex 6 11 3
      vertex 44 8 3
    endloop
  endfacet
  facet normal 0 0 1
    outer loop
      vertex 6 8 3
      vertex 44 8 3
      vertex 6 11 3
    endloop
  endfacet
  facet normal 0 0 1
    outer loop
      vertex 44 8 3
      vertex 6 8 3
      vertex 44 6 3
    endloop
  endfacet
  facet normal 0 0 1
    outer loop
      vertex 6 6 3
      vertex 44 6 3
      vertex 6 8 3
    endloop
  endfacet
  facet normal 0 0 1
    outer loop
      vertex 44 6 3
      vertex 6 6 3
      vertex 44 3 3
    endloop
  endfacet
  facet normal 0 0 1
    outer loop
      vertex 44 3 3
      vertex 6 6 3
      vertex 6 3 3
    endloop
  endfacet
  facet normal -0 0 1
    outer loop
      vertex 44 53 3
      vertex 47 51 3
      vertex 47 53 3
    endloop
  endfacet
  facet normal 0 0 1
    outer loop
      vertex 47 51 3
      vertex 44 53 3
      vertex 44 51 3
    endloop
  endfacet
  facet normal -0 0 1
    outer loop
      vertex 44 48 3
      vertex 47 46 3
      vertex 47 48 3
    endloop
  endfacet
  facet normal 0 0 1
    outer loop
      vertex 47 46 3
      vertex 44 48 3
      vertex 44 46 3
    endloop
  endfacet
  facet normal -0 0 1
    outer loop
      vertex 44 43 3
      vertex 47 41 3
      vertex 47 43 3
    endloop
  endfacet
  facet normal 0 0 1
    outer loop
      vertex 47 41 3
      vertex 44 43 3
      vertex 44 41 3
    endloop
  endfacet
  facet normal -0 0 1
    outer loop
      vertex 44 38 3
      vertex 47 36 3
      vertex 47 38 3
    endloop
  endfacet
  facet normal 0 0 1
    outer loop
      vertex 47 36 3
      vertex 44 38 3
      vertex 44 36 3
    endloop
  endfacet
  facet normal -0 0 1
    outer loop
      vertex 44 33 3
      vertex 47 31 3
      vertex 47 33 3
    endloop
  endfacet
  facet normal 0 0 1
    outer loop
      vertex 47 31 3
      vertex 44 33 3
      vertex 44 31 3
    endloop
  endfacet
  facet normal -0 0 1
    outer loop
      vertex 44 28 3
      vertex 47 26 3
      vertex 47 28 3
    endloop
  endfacet
  facet normal 0 0 1
    outer loop
      vertex 47 26 3
      vertex 44 28 3
      vertex 44 26 3
    endloop
  endfacet
  facet normal -0 0 1
    outer loop
      vertex 44 23 3
      vertex 47 21 3
      vertex 47 23 3
    endloop
  endfacet
  facet normal 0 0 1
    outer loop
      vertex 47 21 3
      vertex 44 23 3
      vertex 44 21 3
    endloop
  endfacet
  facet normal -0 0 1
    outer loop
      vertex 44 18 3
      vertex 47 16 3
      vertex 47 18 3
    endloop
  endfacet
  facet normal 0 0 1
    outer loop
      vertex 47 16 3
      vertex 44 18 3
      vertex 44 16 3
    endloop
  endfacet
  facet normal -0 0 1
    outer loop
      vertex 44 13 3
      vertex 47 11 3
      vertex 47 13 3
    endloop
  endfacet
  facet normal 0 0 1
    outer loop
      vertex 47 11 3
      vertex 44 13 3
      vertex 44 11 3
    endloop
  endfacet
  facet normal -0 0 1
    outer loop
      vertex 44 8 3
      vertex 47 6 3
      vertex 47 8 3
    endloop
  endfacet
  facet normal 0 0 1
    outer loop
      vertex 47 6 3
      vertex 44 8 3
      vertex 44 6 3
    endloop
  endfacet
  facet normal 0 1 -0
    outer loop
      vertex 44 3 3
      vertex 6 3 43
      vertex 44 3 43
    endloop
  endfacet
  facet normal 0 1 0
    outer loop
      vertex 6 3 43
      vertex 44 3 3
      vertex 6 3 3
    endloop
  endfacet
  facet normal 0 1 0
    outer loop
      vertex 44 3 43
      vertex 47 3 45
      vertex 47 3 43
    endloop
  endfacet
  facet normal 0 1 0
    outer loop
      vertex 47 3 45
      vertex 44 3 43
      vertex 3 3 45
    endloop
  endfacet
  facet normal 0 1 -0
    outer loop
      vertex 6 3 43
      vertex 3 3 45
      vertex 44 3 43
    endloop
  endfacet
  facet normal 0 1 0
    outer loop
      vertex 3 3 45
      vertex 6 3 43
      vertex 3 3 43
    endloop
  endfacet
  facet normal -0 0 1
    outer loop
      vertex 3 6 43
      vertex 6 3 43
      vertex 6 6 43
    endloop
  endfacet
  facet normal 0 0 1
    outer loop
      vertex 6 3 43
      vertex 3 6 43
      vertex 3 3 43
    endloop
  endfacet
  facet normal 1 -0 0
    outer loop
      vertex 6 3 43
      vertex 6 6 3
      vertex 6 6 43
    endloop
  endfacet
  facet normal 1 0 0
    outer loop
      vertex 6 6 3
      vertex 6 3 43
      vertex 6 3 3
    endloop
  endfacet
  facet normal 0 1 -0
    outer loop
      vertex 6 6 3
      vertex 3 6 43
      vertex 6 6 43
    endloop
  endfacet
  facet normal 0 1 0
    outer loop
      vertex 3 6 43
      vertex 6 6 3
      vertex 3 6 3
    endloop
  endfacet
  facet normal -1 0 0
    outer loop
      vertex 44 3 3
      vertex 44 6 43
      vertex 44 6 3
    endloop
  endfacet
  facet normal -1 -0 0
    outer loop
      vertex 44 6 43
      vertex 44 3 3
      vertex 44 3 43
    endloop
  endfacet
  facet normal -0 0 1
    outer loop
      vertex 44 6 43
      vertex 47 3 43
      vertex 47 6 43
    endloop
  endfacet
  facet normal 0 0 1
    outer loop
      vertex 47 3 43
      vertex 44 6 43
      vertex 44 3 43
    endloop
  endfacet
  facet normal 0 1 -0
    outer loop
      vertex 47 6 3
      vertex 44 6 43
      vertex 47 6 43
    endloop
  endfacet
  facet normal 0 1 0
    outer loop
      vertex 44 6 43
      vertex 47 6 3
      vertex 44 6 3
    endloop
  endfacet
  facet normal -0 0 1
    outer loop
      vertex 3 11 43
      vertex 6 8 43
      vertex 6 11 43
    endloop
  endfacet
  facet normal 0 0 1
    outer loop
      vertex 6 8 43
      vertex 3 11 43
      vertex 3 8 43
    endloop
  endfacet
  facet normal 1 -0 0
    outer loop
      vertex 6 8 43
      vertex 6 11 3
      vertex 6 11 43
    endloop
  endfacet
  facet normal 1 0 0
    outer loop
      vertex 6 11 3
      vertex 6 8 43
      vertex 6 8 3
    endloop
  endfacet
  facet normal 0 -1 0
    outer loop
      vertex 3 8 3
      vertex 6 8 43
      vertex 3 8 43
    endloop
  endfacet
  facet normal 0 -1 -0
    outer loop
      vertex 6 8 43
      vertex 3 8 3
      vertex 6 8 3
    endloop
  endfacet
  facet normal 0 1 -0
    outer loop
      vertex 6 11 3
      vertex 3 11 43
      vertex 6 11 43
    endloop
  endfacet
  facet normal 0 1 0
    outer loop
      vertex 3 11 43
      vertex 6 11 3
      vertex 3 11 3
    endloop
  endfacet
  facet normal -1 0 0
    outer loop
      vertex 44 8 3
      vertex 44 11 43
      vertex 44 11 3
    endloop
  endfacet
  facet normal -1 -0 0
    outer loop
      vertex 44 11 43
      vertex 44 8 3
      vertex 44 8 43
    endloop
  endfacet
  facet normal -0 0 1
    outer loop
      vertex 44 11 43
      vertex 47 8 43
      vertex 47 11 43
    endloop
  endfacet
  facet normal 0 0 1
    outer loop
      vertex 47 8 43
      vertex 44 11 43
      vertex 44 8 43
    endloop
  endfacet
  facet normal 0 1 -0
    outer loop
      vertex 47 11 3
      vertex 44 11 43
      vertex 47 11 43
    endloop
  endfacet
  facet normal 0 1 0
    outer loop
      vertex 44 11 43
      vertex 47 11 3
      vertex 44 11 3
    endloop
  endfacet
  facet normal 0 -1 0
    outer loop
      vertex 44 8 3
      vertex 47 8 43
      vertex 44 8 43
    endloop
  endfacet
  facet normal 0 -1 -0
    outer loop
      vertex 47 8 43
      vertex 44 8 3
      vertex 47 8 3
    endloop
  endfacet
  facet normal -0 0 1
    outer loop
      vertex 3 16 43
      vertex 6 13 43
      vertex 6 16 43
    endloop
  endfacet
  facet normal 0 0 1
    outer loop
      vertex 6 13 43
      vertex 3 16 43
      vertex 3 13 43
    endloop
  endfacet
  facet normal 1 -0 0
    outer loop
      vertex 6 13 43
      vertex 6 16 3
      vertex 6 16 43
    endloop
  endfacet
  facet normal 1 0 0
    outer loop
      vertex 6 16 3
      vertex 6 13 43
      vertex 6 13 3
    endloop
  endfacet
  facet normal 0 1 -0
    outer loop
      vertex 6 16 3
      vertex 3 16 43
      vertex 6 16 43
    endloop
  endfacet
  facet normal 0 1 0
    outer loop
      vertex 3 16 43
      vertex 6 16 3
      vertex 3 16 3
    endloop
  endfacet
  facet normal 0 -1 0
    outer loop
      vertex 3 13 3
      vertex 6 13 43
      vertex 3 13 43
    endloop
  endfacet
  facet normal 0 -1 -0
    outer loop
      vertex 6 13 43
      vertex 3 13 3
      vertex 6 13 3
    endloop
  endfacet
  facet normal -1 0 0
    outer loop
      vertex 44 13 3
      vertex 44 16 43
      vertex 44 16 3
    endloop
  endfacet
  facet normal -1 -0 0
    outer loop
      vertex 44 16 43
      vertex 44 13 3
      vertex 44 13 43
    endloop
  endfacet
  facet normal -0 0 1
    outer loop
      vertex 44 16 43
      vertex 47 13 43
      vertex 47 16 43
    endloop
  endfacet
  facet normal 0 0 1
    outer loop
      vertex 47 13 43
      vertex 44 16 43
      vertex 44 13 43
    endloop
  endfacet
  facet normal 0 1 -0
    outer loop
      vertex 47 16 3
      vertex 44 16 43
      vertex 47 16 43
    endloop
  endfacet
  facet normal 0 1 0
    outer loop
      vertex 44 16 43
      vertex 47 16 3
      vertex 44 16 3
    endloop
  endfacet
  facet normal 0 -1 0
    outer loop
      vertex 44 13 3
      vertex 47 13 43
      vertex 44 13 43
    endloop
  endfacet
  facet normal 0 -1 -0
    outer loop
      vertex 47 13 43
      vertex 44 13 3
      vertex 47 13 3
    endloop
  endfacet
  facet normal -0 0 1
    outer loop
      vertex 3 21 43
      vertex 6 18 43
      vertex 6 21 43
    endloop
  endfacet
  facet normal 0 0 1
    outer loop
      vertex 6 18 43
      vertex 3 21 43
      vertex 3 18 43
    endloop
  endfacet
  facet normal 1 -0 0
    outer loop
      vertex 6 18 43
      vertex 6 21 3
      vertex 6 21 43
    endloop
  endfacet
  facet normal 1 0 0
    outer loop
      vertex 6 21 3
      vertex 6 18 43
      vertex 6 18 3
    endloop
  endfacet
  facet normal 0 -1 0
    outer loop
      vertex 3 18 3
      vertex 6 18 43
      vertex 3 18 43
    endloop
  endfacet
  facet normal 0 -1 -0
    outer loop
      vertex 6 18 43
      vertex 3 18 3
      vertex 6 18 3
    endloop
  endfacet
  facet normal 0 1 -0
    outer loop
      vertex 6 21 3
      vertex 3 21 43
      vertex 6 21 43
    endloop
  endfacet
  facet normal 0 1 0
    outer loop
      vertex 3 21 43
      vertex 6 21 3
      vertex 3 21 3
    endloop
  endfacet
  facet normal -1 0 0
    outer loop
      vertex 44 18 3
      vertex 44 21 43
      vertex 44 21 3
    endloop
  endfacet
  facet normal -1 -0 0
    outer loop
      vertex 44 21 43
      vertex 44 18 3
      vertex 44 18 43
    endloop
  endfacet
  facet normal -0 0 1
    outer loop
      vertex 44 21 43
      vertex 47 18 43
      vertex 47 21 43
    endloop
  endfacet
  facet normal 0 0 1
    outer loop
      vertex 47 18 43
      vertex 44 21 43
      vertex 44 18 43
    endloop
  endfacet
  facet normal 0 1 -0
    outer loop
      vertex 47 21 3
      vertex 44 21 43
      vertex 47 21 43
    endloop
  endfacet
  facet normal 0 1 0
    outer loop
      vertex 44 21 43
      vertex 47 21 3
      vertex 44 21 3
    endloop
  endfacet
  facet normal 0 -1 0
    outer loop
      vertex 44 18 3
      vertex 47 18 43
      vertex 44 18 43
    endloop
  endfacet
  facet normal 0 -1 -0
    outer loop
      vertex 47 18 43
      vertex 44 18 3
      vertex 47 18 3
    endloop
  endfacet
  facet normal -0 0 1
    outer loop
      vertex 3 26 43
      vertex 6 23 43
      vertex 6 26 43
    endloop
  endfacet
  facet normal 0 0 1
    outer loop
      vertex 6 23 43
      vertex 3 26 43
      vertex 3 23 43
    endloop
  endfacet
  facet normal 1 -0 0
    outer loop
      vertex 6 23 43
      vertex 6 26 3
      vertex 6 26 43
    endloop
  endfacet
  facet normal 1 0 0
    outer loop
      vertex 6 26 3
      vertex 6 23 43
      vertex 6 23 3
    endloop
  endfacet
  facet normal 0 1 -0
    outer loop
      vertex 6 26 3
      vertex 3 26 43
      vertex 6 26 43
    endloop
  endfacet
  facet normal 0 1 0
    outer loop
      vertex 3 26 43
      vertex 6 26 3
      vertex 3 26 3
    endloop
  endfacet
  facet normal 0 -1 0
    outer loop
      vertex 3 23 3
      vertex 6 23 43
      vertex 3 23 43
    endloop
  endfacet
  facet normal 0 -1 -0
    outer loop
      vertex 6 23 43
      vertex 3 23 3
      vertex 6 23 3
    endloop
  endfacet
  facet normal -1 0 0
    outer loop
      vertex 44 23 3
      vertex 44 26 43
      vertex 44 26 3
    endloop
  endfacet
  facet normal -1 -0 0
    outer loop
      vertex 44 26 43
      vertex 44 23 3
      vertex 44 23 43
    endloop
  endfacet
  facet normal -0 0 1
    outer loop
      vertex 44 26 43
      vertex 47 23 43
      vertex 47 26 43
    endloop
  endfacet
  facet normal 0 0 1
    outer loop
      vertex 47 23 43
      vertex 44 26 43
      vertex 44 23 43
    endloop
  endfacet
  facet normal 0 1 -0
    outer loop
      vertex 47 26 3
      vertex 44 26 43
      vertex 47 26 43
    endloop
  endfacet
  facet normal 0 1 0
    outer loop
      vertex 44 26 43
      vertex 47 26 3
      vertex 44 26 3
    endloop
  endfacet
  facet normal 0 -1 0
    outer loop
      vertex 44 23 3
      vertex 47 23 43
      vertex 44 23 43
    endloop
  endfacet
  facet normal 0 -1 -0
    outer loop
      vertex 47 23 43
      vertex 44 23 3
      vertex 47 23 3
    endloop
  endfacet
  facet normal -0 0 1
    outer loop
      vertex 3 31 43
      vertex 6 28 43
      vertex 6 31 43
    endloop
  endfacet
  facet normal 0 0 1
    outer loop
      vertex 6 28 43
      vertex 3 31 43
      vertex 3 28 43
    endloop
  endfacet
  facet normal 1 -0 0
    outer loop
      vertex 6 28 43
      vertex 6 31 3
      vertex 6 31 43
    endloop
  endfacet
  facet normal 1 0 0
    outer loop
      vertex 6 31 3
      vertex 6 28 43
      vertex 6 28 3
    endloop
  endfacet
  facet normal 0 1 -0
    outer loop
      vertex 6 31 3
      vertex 3 31 43
      vertex 6 31 43
    endloop
  endfacet
  facet normal 0 1 0
    outer loop
      vertex 3 31 43
      vertex 6 31 3
      vertex 3 31 3
    endloop
  endfacet
  facet normal 0 -1 0
    outer loop
      vertex 3 28 3
      vertex 6 28 43
      vertex 3 28 43
    endloop
  endfacet
  facet normal 0 -1 -0
    outer loop
      vertex 6 28 43
      vertex 3 28 3
      vertex 6 28 3
    endloop
  endfacet
  facet normal -1 0 0
    outer loop
      vertex 44 28 3
      vertex 44 31 43
      vertex 44 31 3
    endloop
  endfacet
  facet normal -1 -0 0
    outer loop
      vertex 44 31 43
      vertex 44 28 3
      vertex 44 28 43
    endloop
  endfacet
  facet normal -0 0 1
    outer loop
      vertex 44 31 43
      vertex 47 28 43
      vertex 47 31 43
    endloop
  endfacet
  facet normal 0 0 1
    outer loop
      vertex 47 28 43
      vertex 44 31 43
      vertex 44 28 43
    endloop
  endfacet
  facet normal 0 1 -0
    outer loop
      vertex 47 31 3
      vertex 44 31 43
      vertex 47 31 43
    endloop
  endfacet
  facet normal 0 1 0
    outer loop
      vertex 44 31 43
      vertex 47 31 3
      vertex 44 31 3
    endloop
  endfacet
  facet normal 0 -1 0
    outer loop
      vertex 44 28 3
      vertex 47 28 43
      vertex 44 28 43
    endloop
  endfacet
  facet normal 0 -1 -0
    outer loop
      vertex 47 28 43
      vertex 44 28 3
      vertex 47 28 3
    endloop
  endfacet
  facet normal -0 0 1
    outer loop
      vertex 3 36 43
      vertex 6 33 43
      vertex 6 36 43
    endloop
  endfacet
  facet normal 0 0 1
    outer loop
      vertex 6 33 43
      vertex 3 36 43
      vertex 3 33 43
    endloop
  endfacet
  facet normal 1 -0 0
    outer loop
      vertex 6 33 43
      vertex 6 36 3
      vertex 6 36 43
    endloop
  endfacet
  facet normal 1 0 0
    outer loop
      vertex 6 36 3
      vertex 6 33 43
      vertex 6 33 3
    endloop
  endfacet
  facet normal 0 1 -0
    outer loop
      vertex 6 36 3
      vertex 3 36 43
      vertex 6 36 43
    endloop
  endfacet
  facet normal 0 1 0
    outer loop
      vertex 3 36 43
      vertex 6 36 3
      vertex 3 36 3
    endloop
  endfacet
  facet normal 0 -1 0
    outer loop
      vertex 3 33 3
      vertex 6 33 43
      vertex 3 33 43
    endloop
  endfacet
  facet normal 0 -1 -0
    outer loop
      vertex 6 33 43
      vertex 3 33 3
      vertex 6 33 3
    endloop
  endfacet
  facet normal -1 0 0
    outer loop
      vertex 44 33 3
      vertex 44 36 43
      vertex 44 36 3
    endloop
  endfacet
  facet normal -1 -0 0
    outer loop
      vertex 44 36 43
      vertex 44 33 3
      vertex 44 33 43
    endloop
  endfacet
  facet normal -0 0 1
    outer loop
      vertex 44 36 43
      vertex 47 33 43
      vertex 47 36 43
    endloop
  endfacet
  facet normal 0 0 1
    outer loop
      vertex 47 33 43
      vertex 44 36 43
      vertex 44 33 43
    endloop
  endfacet
  facet normal 0 1 -0
    outer loop
      vertex 47 36 3
      vertex 44 36 43
      vertex 47 36 43
    endloop
  endfacet
  facet normal 0 1 0
    outer loop
      vertex 44 36 43
      vertex 47 36 3
      vertex 44 36 3
    endloop
  endfacet
  facet normal 0 -1 0
    outer loop
      vertex 44 33 3
      vertex 47 33 43
      vertex 44 33 43
    endloop
  endfacet
  facet normal 0 -1 -0
    outer loop
      vertex 47 33 43
      vertex 44 33 3
      vertex 47 33 3
    endloop
  endfacet
  facet normal -0 0 1
    outer loop
      vertex 3 41 43
      vertex 6 38 43
      vertex 6 41 43
    endloop
  endfacet
  facet normal 0 0 1
    outer loop
      vertex 6 38 43
      vertex 3 41 43
      vertex 3 38 43
    endloop
  endfacet
  facet normal 1 -0 0
    outer loop
      vertex 6 38 43
      vertex 6 41 3
      vertex 6 41 43
    endloop
  endfacet
  facet normal 1 0 0
    outer loop
      vertex 6 41 3
      vertex 6 38 43
      vertex 6 38 3
    endloop
  endfacet
  facet normal 0 1 -0
    outer loop
      vertex 6 41 3
      vertex 3 41 43
      vertex 6 41 43
    endloop
  endfacet
  facet normal 0 1 0
    outer loop
      vertex 3 41 43
      vertex 6 41 3
      vertex 3 41 3
    endloop
  endfacet
  facet normal 0 -1 0
    outer loop
      vertex 3 38 3
      vertex 6 38 43
      vertex 3 38 43
    endloop
  endfacet
  facet normal 0 -1 -0
    outer loop
      vertex 6 38 43
      vertex 3 38 3
      vertex 6 38 3
    endloop
  endfacet
  facet normal -1 0 0
    outer loop
      vertex 44 38 3
      vertex 44 41 43
      vertex 44 41 3
    endloop
  endfacet
  facet normal -1 -0 0
    outer loop
      vertex 44 41 43
      vertex 44 38 3
      vertex 44 38 43
    endloop
  endfacet
  facet normal -0 0 1
    outer loop
      vertex 44 41 43
      vertex 47 38 43
      vertex 47 41 43
    endloop
  endfacet
  facet normal 0 0 1
    outer loop
      vertex 47 38 43
      vertex 44 41 43
      vertex 44 38 43
    endloop
  endfacet
  facet normal 0 1 -0
    outer loop
      vertex 47 41 3
      vertex 44 41 43
      vertex 47 41 43
    endloop
  endfacet
  facet normal 0 1 0
    outer loop
      vertex 44 41 43
      vertex 47 41 3
      vertex 44 41 3
    endloop
  endfacet
  facet normal 0 -1 0
    outer loop
      vertex 44 38 3
      vertex 47 38 43
      vertex 44 38 43
    endloop
  endfacet
  facet normal 0 -1 -0
    outer loop
      vertex 47 38 43
      vertex 44 38 3
      vertex 47 38 3
    endloop
  endfacet
  facet normal -0 0 1
    outer loop
      vertex 3 46 43
      vertex 6 43 43
      vertex 6 46 43
    endloop
  endfacet
  facet normal 0 0 1
    outer loop
      vertex 6 43 43
      vertex 3 46 43
      vertex 3 43 43
    endloop
  endfacet
  facet normal 1 -0 0
    outer loop
      vertex 6 43 43
      vertex 6 46 3
      vertex 6 46 43
    endloop
  endfacet
  facet normal 1 0 0
    outer loop
      vertex 6 46 3
      vertex 6 43 43
      vertex 6 43 3
    endloop
  endfacet
  facet normal 0 -1 0
    outer loop
      vertex 3 43 3
      vertex 6 43 43
      vertex 3 43 43
    endloop
  endfacet
  facet normal 0 -1 -0
    outer loop
      vertex 6 43 43
      vertex 3 43 3
      vertex 6 43 3
    endloop
  endfacet
  facet normal 0 1 -0
    outer loop
      vertex 6 46 3
      vertex 3 46 43
      vertex 6 46 43
    endloop
  endfacet
  facet normal 0 1 0
    outer loop
      vertex 3 46 43
      vertex 6 46 3
      vertex 3 46 3
    endloop
  endfacet
  facet normal -1 0 0
    outer loop
      vertex 44 43 3
      vertex 44 46 43
      vertex 44 46 3
    endloop
  endfacet
  facet normal -1 -0 0
    outer loop
      vertex 44 46 43
      vertex 44 43 3
      vertex 44 43 43
    endloop
  endfacet
  facet normal -0 0 1
    outer loop
      vertex 44 46 43
      vertex 47 43 43
      vertex 47 46 43
    endloop
  endfacet
  facet normal 0 0 1
    outer loop
      vertex 47 43 43
      vertex 44 46 43
      vertex 44 43 43
    endloop
  endfacet
  facet normal 0 -1 0
    outer loop
      vertex 44 43 3
      vertex 47 43 43
      vertex 44 43 43
    endloop
  endfacet
  facet normal 0 -1 -0
    outer loop
      vertex 47 43 43
      vertex 44 43 3
      vertex 47 43 3
    endloop
  endfacet
  facet normal 0 1 -0
    outer loop
      vertex 47 46 3
      vertex 44 46 43
      vertex 47 46 43
    endloop
  endfacet
  facet normal 0 1 0
    outer loop
      vertex 44 46 43
      vertex 47 46 3
      vertex 44 46 3
    endloop
  endfacet
  facet normal -0 0 1
    outer loop
      vertex 3 51 43
      vertex 6 48 43
      vertex 6 51 43
    endloop
  endfacet
  facet normal 0 0 1
    outer loop
      vertex 6 48 43
      vertex 3 51 43
      vertex 3 48 43
    endloop
  endfacet
  facet normal 1 -0 0
    outer loop
      vertex 6 48 43
      vertex 6 51 3
      vertex 6 51 43
    endloop
  endfacet
  facet normal 1 0 0
    outer loop
      vertex 6 51 3
      vertex 6 48 43
      vertex 6 48 3
    endloop
  endfacet
  facet normal 0 1 -0
    outer loop
      vertex 6 51 3
      vertex 3 51 43
      vertex 6 51 43
    endloop
  endfacet
  facet normal 0 1 0
    outer loop
      vertex 3 51 43
      vertex 6 51 3
      vertex 3 51 3
    endloop
  endfacet
  facet normal 0 -1 0
    outer loop
      vertex 3 48 3
      vertex 6 48 43
      vertex 3 48 43
    endloop
  endfacet
  facet normal 0 -1 -0
    outer loop
      vertex 6 48 43
      vertex 3 48 3
      vertex 6 48 3
    endloop
  endfacet
  facet normal -1 0 0
    outer loop
      vertex 44 48 3
      vertex 44 51 43
      vertex 44 51 3
    endloop
  endfacet
  facet normal -1 -0 0
    outer loop
      vertex 44 51 43
      vertex 44 48 3
      vertex 44 48 43
    endloop
  endfacet
  facet normal -0 0 1
    outer loop
      vertex 44 51 43
      vertex 47 48 43
      vertex 47 51 43
    endloop
  endfacet
  facet normal 0 0 1
    outer loop
      vertex 47 48 43
      vertex 44 51 43
      vertex 44 48 43
    endloop
  endfacet
  facet normal 0 1 -0
    outer loop
      vertex 47 51 3
      vertex 44 51 43
      vertex 47 51 43
    endloop
  endfacet
  facet normal 0 1 0
    outer loop
      vertex 44 51 43
      vertex 47 51 3
      vertex 44 51 3
    endloop
  endfacet
  facet normal 0 -1 0
    outer loop
      vertex 44 48 3
      vertex 47 48 43
      vertex 44 48 43
    endloop
  endfacet
  facet normal 0 -1 -0
    outer loop
      vertex 47 48 43
      vertex 44 48 3
      vertex 47 48 3
    endloop
  endfacet
  facet normal -0 0 1
    outer loop
      vertex 3 56 43
      vertex 6 53 43
      vertex 6 56 43
    endloop
  endfacet
  facet normal 0 0 1
    outer loop
      vertex 6 53 43
      vertex 3 56 43
      vertex 3 53 43
    endloop
  endfacet
  facet normal 1 -0 0
    outer loop
      vertex 6 53 43
      vertex 6 56 3
      vertex 6 56 43
    endloop
  endfacet
  facet normal 1 0 0
    outer loop
      vertex 6 56 3
      vertex 6 53 43
      vertex 6 53 3
    endloop
  endfacet
  facet normal 0 -1 0
    outer loop
      vertex 3 53 3
      vertex 6 53 43
      vertex 3 53 43
    endloop
  endfacet
  facet normal 0 -1 -0
    outer loop
      vertex 6 53 43
      vertex 3 53 3
      vertex 6 53 3
    endloop
  endfacet
  facet normal -1 0 0
    outer loop
      vertex 44 53 3
      vertex 44 56 43
      vertex 44 56 3
    endloop
  endfacet
  facet normal -1 -0 0
    outer loop
      vertex 44 56 43
      vertex 44 53 3
      vertex 44 53 43
    endloop
  endfacet
  facet normal -0 0 1
    outer loop
      vertex 44 56 43
      vertex 47 53 43
      vertex 47 56 43
    endloop
  endfacet
  facet normal 0 0 1
    outer loop
      vertex 47 53 43
      vertex 44 56 43
      vertex 44 53 43
    endloop
  endfacet
  facet normal 0 -1 0
    outer loop
      vertex 44 53 3
      vertex 47 53 43
      vertex 44 53 43
    endloop
  endfacet
  facet normal 0 -1 -0
    outer loop
      vertex 47 53 43
      vertex 44 53 3
      vertex 47 53 3
    endloop
  endfacet
  facet normal -1 0 0
    outer loop
      vertex 19.5 59 30
      vertex 19.5 62 33
      vertex 19.5 62 30
    endloop
  endfacet
  facet normal -1 -0 0
    outer loop
      vertex 19.5 62 33
      vertex 19.5 59 30
      vertex 19.5 59 33
    endloop
  endfacet
  facet normal -0 0 1
    outer loop
      vertex 19.5 62 33
      vertex 28.5 59 33
      vertex 28.5 62 33
    endloop
  endfacet
  facet normal 0 0 1
    outer loop
      vertex 28.5 59 33
      vertex 19.5 62 33
      vertex 19.5 59 33
    endloop
  endfacet
  facet normal 1 -0 0
    outer loop
      vertex 28.5 59 33
      vertex 28.5 62 30
      vertex 28.5 62 33
    endloop
  endfacet
  facet normal 1 0 0
    outer loop
      vertex 28.5 62 30
      vertex 28.5 59 33
      vertex 28.5 59 30
    endloop
  endfacet
  facet normal 0 0 -1
    outer loop
      vertex 19.5 59 30
      vertex 22.5 62 30
      vertex 22.5 59 30
    endloop
  endfacet
  facet normal -0 0 -1
    outer loop
      vertex 22.5 62 30
      vertex 19.5 59 30
      vertex 19.5 62 30
    endloop
  endfacet
  facet normal 0 0 -1
    outer loop
      vertex 25.5 59 30
      vertex 28.5 62 30
      vertex 28.5 59 30
    endloop
  endfacet
  facet normal -0 0 -1
    outer loop
      vertex 28.5 62 30
      vertex 25.5 59 30
      vertex 25.5 62 30
    endloop
  endfacet
  facet normal 0 1 -0
    outer loop
      vertex 25.5 62 27
      vertex 22.5 62 30
      vertex 25.5 62 30
    endloop
  endfacet
  facet normal 0 1 0
    outer loop
      vertex 22.5 62 30
      vertex 25.5 62 27
      vertex 22.5 62 27
    endloop
  endfacet
  facet normal 0 1 0
    outer loop
      vertex 25.5 62 30
      vertex 28.5 62 33
      vertex 28.5 62 30
    endloop
  endfacet
  facet normal 0 1 0
    outer loop
      vertex 28.5 62 33
      vertex 25.5 62 30
      vertex 19.5 62 33
    endloop
  endfacet
  facet normal 0 1 -0
    outer loop
      vertex 22.5 62 30
      vertex 19.5 62 33
      vertex 25.5 62 30
    endloop
  endfacet
  facet normal 0 1 0
    outer loop
      vertex 19.5 62 33
      vertex 22.5 62 30
      vertex 19.5 62 30
    endloop
  endfacet
  facet normal -1 0 0
    outer loop
      vertex 22.5 59 27
      vertex 22.5 62 30
      vertex 22.5 62 27
    endloop
  endfacet
  facet normal -1 -0 0
    outer loop
      vertex 22.5 62 30
      vertex 22.5 59 27
      vertex 22.5 59 30
    endloop
  endfacet
  facet normal 1 -0 0
    outer loop
      vertex 25.5 59 30
      vertex 25.5 62 27
      vertex 25.5 62 30
    endloop
  endfacet
  facet normal 1 0 0
    outer loop
      vertex 25.5 62 27
      vertex 25.5 59 30
      vertex 25.5 59 27
    endloop
  endfacet
  facet normal 0 0 -1
    outer loop
      vertex 22.5 59 27
      vertex 25.5 62 27
      vertex 25.5 59 27
    endloop
  endfacet
  facet normal -0 0 -1
    outer loop
      vertex 25.5 62 27
      vertex 22.5 59 27
      vertex 22.5 62 27
    endloop
  endfacet
  facet normal 0 -1 0
    outer loop
      vertex -3 25 30
      vertex 0 25 33
      vertex -3 25 33
    endloop
  endfacet
  facet normal 0 -1 -0
    outer loop
      vertex 0 25 33
      vertex -3 25 30
      vertex 0 25 30
    endloop
  endfacet
  facet normal -0 0 1
    outer loop
      vertex -3 34 33
      vertex 0 25 33
      vertex 0 34 33
    endloop
  endfacet
  facet normal 0 0 1
    outer loop
      vertex 0 25 33
      vertex -3 34 33
      vertex -3 25 33
    endloop
  endfacet
  facet normal 0 1 -0
    outer loop
      vertex 0 34 30
      vertex -3 34 33
      vertex 0 34 33
    endloop
  endfacet
  facet normal 0 1 0
    outer loop
      vertex -3 34 33
      vertex 0 34 30
      vertex -3 34 30
    endloop
  endfacet
  facet normal 0 0 -1
    outer loop
      vertex -3 25 30
      vertex 0 28 30
      vertex 0 25 30
    endloop
  endfacet
  facet normal -0 0 -1
    outer loop
      vertex 0 28 30
      vertex -3 25 30
      vertex -3 28 30
    endloop
  endfacet
  facet normal 0 0 -1
    outer loop
      vertex -3 31 30
      vertex 0 34 30
      vertex 0 31 30
    endloop
  endfacet
  facet normal -0 0 -1
    outer loop
      vertex 0 34 30
      vertex -3 31 30
      vertex -3 34 30
    endloop
  endfacet
  facet normal -1 0 0
    outer loop
      vertex -3 31 27
      vertex -3 28 27
      vertex -3 31 30
    endloop
  endfacet
  facet normal -1 0 0
    outer loop
      vertex -3 31 30
      vertex -3 34 33
      vertex -3 34 30
    endloop
  endfacet
  facet normal -1 0 0
    outer loop
      vertex -3 28 30
      vertex -3 31 30
      vertex -3 28 27
    endloop
  endfacet
  facet normal -1 0 0
    outer loop
      vertex -3 31 30
      vertex -3 28 30
      vertex -3 34 33
    endloop
  endfacet
  facet normal -1 0 0
    outer loop
      vertex -3 25 33
      vertex -3 28 30
      vertex -3 25 30
    endloop
  endfacet
  facet normal -1 0 0
    outer loop
      vertex -3 28 30
      vertex -3 25 33
      vertex -3 34 33
    endloop
  endfacet
  facet normal 0 -1 0
    outer loop
      vertex -3 28 27
      vertex 0 28 30
      vertex -3 28 30
    endloop
  endfacet
  facet normal 0 -1 -0
    outer loop
      vertex 0 28 30
      vertex -3 28 27
      vertex 0 28 27
    endloop
  endfacet
  facet normal 0 1 -0
    outer loop
      vertex 0 31 27
      vertex -3 31 30
      vertex 0 31 30
    endloop
  endfacet
  facet normal 0 1 0
    outer loop
      vertex -3 31 30
      vertex 0 31 27
      vertex -3 31 27
    endloop
  endfacet
  facet normal 0 0 -1
    outer loop
      vertex -3 28 27
      vertex 0 31 27
      vertex 0 28 27
    endloop
  endfacet
  facet normal -0 0 -1
    outer loop
      vertex 0 31 27
      vertex -3 28 27
      vertex -3 31 27
    endloop
  endfacet
  facet normal 0 -1 0
    outer loop
      vertex 50 25 30
      vertex 53 25 33
      vertex 50 25 33
    endloop
  endfacet
  facet normal 0 -1 -0
    outer loop
      vertex 53 25 33
      vertex 50 25 30
      vertex 53 25 30
    endloop
  endfacet
  facet normal -0 0 1
    outer loop
      vertex 50 34 33
      vertex 53 25 33
      vertex 53 34 33
    endloop
  endfacet
  facet normal 0 0 1
    outer loop
      vertex 53 25 33
      vertex 50 34 33
      vertex 50 25 33
    endloop
  endfacet
  facet normal 0 1 -0
    outer loop
      vertex 53 34 30
      vertex 50 34 33
      vertex 53 34 33
    endloop
  endfacet
  facet normal 0 1 0
    outer loop
      vertex 50 34 33
      vertex 53 34 30
      vertex 50 34 30
    endloop
  endfacet
  facet normal 0 0 -1
    outer loop
      vertex 50 25 30
      vertex 53 28 30
      vertex 53 25 30
    endloop
  endfacet
  facet normal -0 0 -1
    outer loop
      vertex 53 28 30
      vertex 50 25 30
      vertex 50 28 30
    endloop
  endfacet
  facet normal 0 0 -1
    outer loop
      vertex 50 31 30
      vertex 53 34 30
      vertex 53 31 30
    endloop
  endfacet
  facet normal -0 0 -1
    outer loop
      vertex 53 34 30
      vertex 50 31 30
      vertex 50 34 30
    endloop
  endfacet
  facet normal 1 0 0
    outer loop
      vertex 53 34 33
      vertex 53 31 30
      vertex 53 34 30
    endloop
  endfacet
  facet normal 1 0 0
    outer loop
      vertex 53 31 30
      vertex 53 28 30
      vertex 53 31 27
    endloop
  endfacet
  facet normal 1 0 0
    outer loop
      vertex 53 34 33
      vertex 53 28 30
      vertex 53 31 30
    endloop
  endfacet
  facet normal 1 -0 0
    outer loop
      vertex 53 25 33
      vertex 53 28 30
      vertex 53 34 33
    endloop
  endfacet
  facet normal 1 0 0
    outer loop
      vertex 53 28 30
      vertex 53 25 33
      vertex 53 25 30
    endloop
  endfacet
  facet normal 1 0 0
    outer loop
      vertex 53 31 27
      vertex 53 28 30
      vertex 53 28 27
    endloop
  endfacet
  facet normal -1 0 0
    outer loop
      vertex 50 31 27
      vertex 50 28 27
      vertex 50 31 30
    endloop
  endfacet
  facet normal -1 0 0
    outer loop
      vertex 50 31 30
      vertex 50 34 33
      vertex 50 34 30
    endloop
  endfacet
  facet normal -1 0 0
    outer loop
      vertex 50 28 30
      vertex 50 31 30
      vertex 50 28 27
    endloop
  endfacet
  facet normal -1 0 0
    outer loop
      vertex 50 31 30
      vertex 50 28 30
      vertex 50 34 33
    endloop
  endfacet
  facet normal -1 0 0
    outer loop
      vertex 50 25 33
      vertex 50 28 30
      vertex 50 25 30
    endloop
  endfacet
  facet normal -1 0 0
    outer loop
      vertex 50 28 30
      vertex 50 25 33
      vertex 50 34 33
    endloop
  endfacet
  facet normal 0 -1 0
    outer loop
      vertex 50 28 27
      vertex 53 28 30
      vertex 50 28 30
    endloop
  endfacet
  facet normal 0 -1 -0
    outer loop
      vertex 53 28 30
      vertex 50 28 27
      vertex 53 28 27
    endloop
  endfacet
  facet normal 0 1 -0
    outer loop
      vertex 53 31 27
      vertex 50 31 30
      vertex 53 31 30
    endloop
  endfacet
  facet normal 0 1 0
    outer loop
      vertex 50 31 30
      vertex 53 31 27
      vertex 50 31 27
    endloop
  endfacet
  facet normal 0 0 -1
    outer loop
      vertex 50 28 27
      vertex 53 31 27
      vertex 53 28 27
    endloop
  endfacet
  facet normal -0 0 -1
    outer loop
      vertex 53 31 27
      vertex 50 28 27
      vertex 50 31 27
    endloop
  endfacet
endsolid OpenSCAD_Model
