solid OpenSCAD_Model
  facet normal -1 0 0
    outer loop
      vertex 0 59 0
      vertex 0 34 30
      vertex 0 59 45
    endloop
  endfacet
  facet normal -1 0 0
    outer loop
      vertex 0 59 0
      vertex 0 31 27
      vertex 0 34 30
    endloop
  endfacet
  facet normal -1 0 0
    outer loop
      vertex 0 59 0
      vertex 0 28 27
      vertex 0 31 27
    endloop
  endfacet
  facet normal -1 0 0
    outer loop
      vertex 0 28 27
      vertex 0 25 30
      vertex 0 28 30
    endloop
  endfacet
  facet normal -1 0 0
    outer loop
      vertex 0 0 45
      vertex 0 25 30
      vertex 0 0 0
    endloop
  endfacet
  facet normal -1 -0 0
    outer loop
      vertex 0 28 27
      vertex 0 0 0
      vertex 0 25 30
    endloop
  endfacet
  facet normal -1 0 0
    outer loop
      vertex 0 0 0
      vertex 0 28 27
      vertex 0 59 0
    endloop
  endfacet
  facet normal -1 0 0
    outer loop
      vertex 0 34 33
      vertex 0 59 45
      vertex 0 34 30
    endloop
  endfacet
  facet normal -1 0 0
    outer loop
      vertex 0 25 33
      vertex 0 59 45
      vertex 0 34 33
    endloop
  endfacet
  facet normal -1 0 0
    outer loop
      vertex 0 25 33
      vertex 0 0 45
      vertex 0 59 45
    endloop
  endfacet
  facet normal -1 0 0
    outer loop
      vertex 0 25 30
      vertex 0 0 45
      vertex 0 25 33
    endloop
  endfacet
  facet normal -1 -0 0
    outer loop
      vertex 0 34 30
      vertex 0 31 27
      vertex 0 31 30
    endloop
  endfacet
  facet normal 0 0 1
    outer loop
      vertex 48 59 45
      vertex 45 56 45
      vertex 48 0 45
    endloop
  endfacet
  facet normal 0 0 1
    outer loop
      vertex 48 59 45
      vertex 3 56 45
      vertex 45 56 45
    endloop
  endfacet
  facet normal 0 0 1
    outer loop
      vertex 3 56 45
      vertex 0 59 45
      vertex 3 3 45
    endloop
  endfacet
  facet normal -0 0 1
    outer loop
      vertex 0 59 45
      vertex 3 56 45
      vertex 48 59 45
    endloop
  endfacet
  facet normal -0 0 1
    outer loop
      vertex 45 3 45
      vertex 48 0 45
      vertex 45 56 45
    endloop
  endfacet
  facet normal -0 0 1
    outer loop
      vertex 3 3 45
      vertex 48 0 45
      vertex 45 3 45
    endloop
  endfacet
  facet normal 0 0 1
    outer loop
      vertex 3 3 45
      vertex 0 0 45
      vertex 48 0 45
    endloop
  endfacet
  facet normal 0 0 1
    outer loop
      vertex 0 0 45
      vertex 3 3 45
      vertex 0 59 45
    endloop
  endfacet
  facet normal 1 -0 0
    outer loop
      vertex 48 0 45
      vertex 48 59 0
      vertex 48 59 45
    endloop
  endfacet
  facet normal 1 0 0
    outer loop
      vertex 48 59 0
      vertex 48 0 45
      vertex 48 0 0
    endloop
  endfacet
  facet normal 0 1 0
    outer loop
      vertex 22.5 59 30
      vertex 22.5 59 27
      vertex 19.5 59 30
    endloop
  endfacet
  facet normal 0 1 0
    outer loop
      vertex 48 59 45
      vertex 28.5 59 33
      vertex 0 59 45
    endloop
  endfacet
  facet normal 0 1 0
    outer loop
      vertex 48 59 45
      vertex 28.5 59 30
      vertex 28.5 59 33
    endloop
  endfacet
  facet normal 0 1 0
    outer loop
      vertex 28.5 59 30
      vertex 25.5 59 27
      vertex 25.5 59 30
    endloop
  endfacet
  facet normal 0 1 -0
    outer loop
      vertex 48 59 0
      vertex 28.5 59 30
      vertex 48 59 45
    endloop
  endfacet
  facet normal 0 1 0
    outer loop
      vertex 25.5 59 27
      vertex 48 59 0
      vertex 22.5 59 27
    endloop
  endfacet
  facet normal 0 1 0
    outer loop
      vertex 28.5 59 30
      vertex 48 59 0
      vertex 25.5 59 27
    endloop
  endfacet
  facet normal 0 1 -0
    outer loop
      vertex 19.5 59 33
      vertex 0 59 45
      vertex 28.5 59 33
    endloop
  endfacet
  facet normal 0 1 -0
    outer loop
      vertex 19.5 59 30
      vertex 0 59 45
      vertex 19.5 59 33
    endloop
  endfacet
  facet normal 0 1 0
    outer loop
      vertex 0 59 0
      vertex 19.5 59 30
      vertex 22.5 59 27
    endloop
  endfacet
  facet normal 0 1 0
    outer loop
      vertex 0 59 0
      vertex 22.5 59 27
      vertex 48 59 0
    endloop
  endfacet
  facet normal 0 1 0
    outer loop
      vertex 19.5 59 30
      vertex 0 59 0
      vertex 0 59 45
    endloop
  endfacet
  facet normal 0 0 -1
    outer loop
      vertex 0 0 0
      vertex 48 59 0
      vertex 48 0 0
    endloop
  endfacet
  facet normal -0 0 -1
    outer loop
      vertex 48 59 0
      vertex 0 0 0
      vertex 0 59 0
    endloop
  endfacet
  facet normal 0 -1 0
    outer loop
      vertex 0 0 0
      vertex 48 0 45
      vertex 0 0 45
    endloop
  endfacet
  facet normal 0 -1 -0
    outer loop
      vertex 48 0 45
      vertex 0 0 0
      vertex 48 0 0
    endloop
  endfacet
  facet normal 1 0 0
    outer loop
      vertex 3 56 45
      vertex 3 53 43
      vertex 3 56 43
    endloop
  endfacet
  facet normal 1 0 0
    outer loop
      vertex 3 53 43
      vertex 3 51 43
      vertex 3 53 3
    endloop
  endfacet
  facet normal 1 0 0
    outer loop
      vertex 3 56 45
      vertex 3 51 43
      vertex 3 53 43
    endloop
  endfacet
  facet normal 1 0 0
    outer loop
      vertex 3 56 45
      vertex 3 48 43
      vertex 3 51 43
    endloop
  endfacet
  facet normal 1 0 0
    outer loop
      vertex 3 48 43
      vertex 3 46 43
      vertex 3 48 3
    endloop
  endfacet
  facet normal 1 0 0
    outer loop
      vertex 3 56 45
      vertex 3 46 43
      vertex 3 48 43
    endloop
  endfacet
  facet normal 1 0 0
    outer loop
      vertex 3 56 45
      vertex 3 43 43
      vertex 3 46 43
    endloop
  endfacet
  facet normal 1 0 0
    outer loop
      vertex 3 43 43
      vertex 3 41 43
      vertex 3 43 3
    endloop
  endfacet
  facet normal 1 0 0
    outer loop
      vertex 3 56 45
      vertex 3 41 43
      vertex 3 43 43
    endloop
  endfacet
  facet normal 1 0 0
    outer loop
      vertex 3 56 45
      vertex 3 38 43
      vertex 3 41 43
    endloop
  endfacet
  facet normal 1 0 0
    outer loop
      vertex 3 38 43
      vertex 3 36 43
      vertex 3 38 3
    endloop
  endfacet
  facet normal 1 0 0
    outer loop
      vertex 3 56 45
      vertex 3 36 43
      vertex 3 38 43
    endloop
  endfacet
  facet normal 1 0 0
    outer loop
      vertex 3 56 45
      vertex 3 33 43
      vertex 3 36 43
    endloop
  endfacet
  facet normal 1 0 0
    outer loop
      vertex 3 33 43
      vertex 3 31 43
      vertex 3 33 3
    endloop
  endfacet
  facet normal 1 0 0
    outer loop
      vertex 3 56 45
      vertex 3 31 43
      vertex 3 33 43
    endloop
  endfacet
  facet normal 1 0 0
    outer loop
      vertex 3 56 45
      vertex 3 28 43
      vertex 3 31 43
    endloop
  endfacet
  facet normal 1 0 0
    outer loop
      vertex 3 28 43
      vertex 3 26 43
      vertex 3 28 3
    endloop
  endfacet
  facet normal 1 -0 0
    outer loop
      vertex 3 3 45
      vertex 3 28 43
      vertex 3 56 45
    endloop
  endfacet
  facet normal 1 0 0
    outer loop
      vertex 3 28 43
      vertex 3 3 45
      vertex 3 26 43
    endloop
  endfacet
  facet normal 1 0 0
    outer loop
      vertex 3 23 43
      vertex 3 21 43
      vertex 3 23 3
    endloop
  endfacet
  facet normal 1 0 0
    outer loop
      vertex 3 26 43
      vertex 3 3 45
      vertex 3 23 43
    endloop
  endfacet
  facet normal 1 0 0
    outer loop
      vertex 3 23 43
      vertex 3 3 45
      vertex 3 21 43
    endloop
  endfacet
  facet normal 1 0 0
    outer loop
      vertex 3 18 43
      vertex 3 16 43
      vertex 3 18 3
    endloop
  endfacet
  facet normal 1 0 0
    outer loop
      vertex 3 21 43
      vertex 3 3 45
      vertex 3 18 43
    endloop
  endfacet
  facet normal 1 0 0
    outer loop
      vertex 3 18 43
      vertex 3 3 45
      vertex 3 16 43
    endloop
  endfacet
  facet normal 1 0 0
    outer loop
      vertex 3 13 43
      vertex 3 11 43
      vertex 3 13 3
    endloop
  endfacet
  facet normal 1 0 0
    outer loop
      vertex 3 16 43
      vertex 3 3 45
      vertex 3 13 43
    endloop
  endfacet
  facet normal 1 0 0
    outer loop
      vertex 3 13 43
      vertex 3 3 45
      vertex 3 11 43
    endloop
  endfacet
  facet normal 1 0 0
    outer loop
      vertex 3 8 43
      vertex 3 6 43
      vertex 3 8 3
    endloop
  endfacet
  facet normal 1 0 0
    outer loop
      vertex 3 11 43
      vertex 3 3 45
      vertex 3 8 43
    endloop
  endfacet
  facet normal 1 0 0
    outer loop
      vertex 3 8 43
      vertex 3 3 45
      vertex 3 6 43
    endloop
  endfacet
  facet normal 1 0 0
    outer loop
      vertex 3 6 43
      vertex 3 3 45
      vertex 3 3 43
    endloop
  endfacet
  facet normal 1 0 0
    outer loop
      vertex 3 53 3
      vertex 3 51 43
      vertex 3 51 3
    endloop
  endfacet
  facet normal 1 0 0
    outer loop
      vertex 3 48 3
      vertex 3 46 43
      vertex 3 46 3
    endloop
  endfacet
  facet normal 1 0 0
    outer loop
      vertex 3 43 3
      vertex 3 41 43
      vertex 3 41 3
    endloop
  endfacet
  facet normal 1 0 0
    outer loop
      vertex 3 38 3
      vertex 3 36 43
      vertex 3 36 3
    endloop
  endfacet
  facet normal 1 0 0
    outer loop
      vertex 3 33 3
      vertex 3 31 43
      vertex 3 31 3
    endloop
  endfacet
  facet normal 1 0 0
    outer loop
      vertex 3 28 3
      vertex 3 26 43
      vertex 3 26 3
    endloop
  endfacet
  facet normal 1 0 0
    outer loop
      vertex 3 23 3
      vertex 3 21 43
      vertex 3 21 3
    endloop
  endfacet
  facet normal 1 0 0
    outer loop
      vertex 3 18 3
      vertex 3 16 43
      vertex 3 16 3
    endloop
  endfacet
  facet normal 1 0 0
    outer loop
      vertex 3 13 3
      vertex 3 11 43
      vertex 3 11 3
    endloop
  endfacet
  facet normal 1 0 0
    outer loop
      vertex 3 8 3
      vertex 3 6 43
      vertex 3 6 3
    endloop
  endfacet
  facet normal -1 0 0
    outer loop
      vertex 45 8 3
      vertex 45 6 3
      vertex 45 8 43
    endloop
  endfacet
  facet normal -1 0 0
    outer loop
      vertex 45 13 3
      vertex 45 11 3
      vertex 45 13 43
    endloop
  endfacet
  facet normal -1 0 0
    outer loop
      vertex 45 18 3
      vertex 45 16 3
      vertex 45 18 43
    endloop
  endfacet
  facet normal -1 0 0
    outer loop
      vertex 45 23 3
      vertex 45 21 3
      vertex 45 23 43
    endloop
  endfacet
  facet normal -1 0 0
    outer loop
      vertex 45 28 3
      vertex 45 26 3
      vertex 45 28 43
    endloop
  endfacet
  facet normal -1 0 0
    outer loop
      vertex 45 33 3
      vertex 45 31 3
      vertex 45 33 43
    endloop
  endfacet
  facet normal -1 0 0
    outer loop
      vertex 45 38 3
      vertex 45 36 3
      vertex 45 38 43
    endloop
  endfacet
  facet normal -1 0 0
    outer loop
      vertex 45 43 3
      vertex 45 41 3
      vertex 45 43 43
    endloop
  endfacet
  facet normal -1 0 0
    outer loop
      vertex 45 48 3
      vertex 45 46 3
      vertex 45 48 43
    endloop
  endfacet
  facet normal -1 0 0
    outer loop
      vertex 45 53 3
      vertex 45 51 3
      vertex 45 53 43
    endloop
  endfacet
  facet normal -1 0 0
    outer loop
      vertex 45 53 43
      vertex 45 56 45
      vertex 45 56 43
    endloop
  endfacet
  facet normal -1 0 0
    outer loop
      vertex 45 51 43
      vertex 45 53 43
      vertex 45 51 3
    endloop
  endfacet
  facet normal -1 0 0
    outer loop
      vertex 45 51 43
      vertex 45 56 45
      vertex 45 53 43
    endloop
  endfacet
  facet normal -1 0 0
    outer loop
      vertex 45 48 43
      vertex 45 56 45
      vertex 45 51 43
    endloop
  endfacet
  facet normal -1 0 0
    outer loop
      vertex 45 46 43
      vertex 45 48 43
      vertex 45 46 3
    endloop
  endfacet
  facet normal -1 0 0
    outer loop
      vertex 45 46 43
      vertex 45 56 45
      vertex 45 48 43
    endloop
  endfacet
  facet normal -1 0 0
    outer loop
      vertex 45 43 43
      vertex 45 56 45
      vertex 45 46 43
    endloop
  endfacet
  facet normal -1 0 0
    outer loop
      vertex 45 41 43
      vertex 45 43 43
      vertex 45 41 3
    endloop
  endfacet
  facet normal -1 0 0
    outer loop
      vertex 45 41 43
      vertex 45 56 45
      vertex 45 43 43
    endloop
  endfacet
  facet normal -1 0 0
    outer loop
      vertex 45 38 43
      vertex 45 56 45
      vertex 45 41 43
    endloop
  endfacet
  facet normal -1 0 0
    outer loop
      vertex 45 36 43
      vertex 45 38 43
      vertex 45 36 3
    endloop
  endfacet
  facet normal -1 0 0
    outer loop
      vertex 45 36 43
      vertex 45 56 45
      vertex 45 38 43
    endloop
  endfacet
  facet normal -1 0 0
    outer loop
      vertex 45 33 43
      vertex 45 56 45
      vertex 45 36 43
    endloop
  endfacet
  facet normal -1 0 0
    outer loop
      vertex 45 31 43
      vertex 45 33 43
      vertex 45 31 3
    endloop
  endfacet
  facet normal -1 0 0
    outer loop
      vertex 45 31 43
      vertex 45 56 45
      vertex 45 33 43
    endloop
  endfacet
  facet normal -1 0 0
    outer loop
      vertex 45 28 43
      vertex 45 56 45
      vertex 45 31 43
    endloop
  endfacet
  facet normal -1 0 0
    outer loop
      vertex 45 26 43
      vertex 45 28 43
      vertex 45 26 3
    endloop
  endfacet
  facet normal -1 0 0
    outer loop
      vertex 45 3 45
      vertex 45 28 43
      vertex 45 26 43
    endloop
  endfacet
  facet normal -1 0 0
    outer loop
      vertex 45 3 45
      vertex 45 26 43
      vertex 45 23 43
    endloop
  endfacet
  facet normal -1 0 0
    outer loop
      vertex 45 21 43
      vertex 45 23 43
      vertex 45 21 3
    endloop
  endfacet
  facet normal -1 0 0
    outer loop
      vertex 45 3 45
      vertex 45 23 43
      vertex 45 21 43
    endloop
  endfacet
  facet normal -1 0 0
    outer loop
      vertex 45 3 45
      vertex 45 21 43
      vertex 45 18 43
    endloop
  endfacet
  facet normal -1 0 0
    outer loop
      vertex 45 16 43
      vertex 45 18 43
      vertex 45 16 3
    endloop
  endfacet
  facet normal -1 0 0
    outer loop
      vertex 45 3 45
      vertex 45 18 43
      vertex 45 16 43
    endloop
  endfacet
  facet normal -1 0 0
    outer loop
      vertex 45 3 45
      vertex 45 16 43
      vertex 45 13 43
    endloop
  endfacet
  facet normal -1 0 0
    outer loop
      vertex 45 11 43
      vertex 45 13 43
      vertex 45 11 3
    endloop
  endfacet
  facet normal -1 0 0
    outer loop
      vertex 45 3 45
      vertex 45 13 43
      vertex 45 11 43
    endloop
  endfacet
  facet normal -1 0 0
    outer loop
      vertex 45 3 45
      vertex 45 11 43
      vertex 45 8 43
    endloop
  endfacet
  facet normal -1 0 0
    outer loop
      vertex 45 6 43
      vertex 45 8 43
      vertex 45 6 3
    endloop
  endfacet
  facet normal -1 0 0
    outer loop
      vertex 45 3 45
      vertex 45 8 43
      vertex 45 6 43
    endloop
  endfacet
  facet normal -1 0 0
    outer loop
      vertex 45 3 45
      vertex 45 6 43
      vertex 45 3 43
    endloop
  endfacet
  facet normal -1 0 0
    outer loop
      vertex 45 28 43
      vertex 45 3 45
      vertex 45 56 45
    endloop
  endfacet
  facet normal -0 0 1
    outer loop
      vertex 3 8 3
      vertex 6 6 3
      vertex 6 8 3
    endloop
  endfacet
  facet normal 0 0 1
    outer loop
      vertex 6 6 3
      vertex 3 8 3
      vertex 3 6 3
    endloop
  endfacet
  facet normal -0 0 1
    outer loop
      vertex 3 13 3
      vertex 6 11 3
      vertex 6 13 3
    endloop
  endfacet
  facet normal 0 0 1
    outer loop
      vertex 6 11 3
      vertex 3 13 3
      vertex 3 11 3
    endloop
  endfacet
  facet normal -0 0 1
    outer loop
      vertex 3 18 3
      vertex 6 16 3
      vertex 6 18 3
    endloop
  endfacet
  facet normal 0 0 1
    outer loop
      vertex 6 16 3
      vertex 3 18 3
      vertex 3 16 3
    endloop
  endfacet
  facet normal -0 0 1
    outer loop
      vertex 3 23 3
      vertex 6 21 3
      vertex 6 23 3
    endloop
  endfacet
  facet normal 0 0 1
    outer loop
      vertex 6 21 3
      vertex 3 23 3
      vertex 3 21 3
    endloop
  endfacet
  facet normal -0 0 1
    outer loop
      vertex 3 28 3
      vertex 6 26 3
      vertex 6 28 3
    endloop
  endfacet
  facet normal 0 0 1
    outer loop
      vertex 6 26 3
      vertex 3 28 3
      vertex 3 26 3
    endloop
  endfacet
  facet normal -0 0 1
    outer loop
      vertex 3 33 3
      vertex 6 31 3
      vertex 6 33 3
    endloop
  endfacet
  facet normal 0 0 1
    outer loop
      vertex 6 31 3
      vertex 3 33 3
      vertex 3 31 3
    endloop
  endfacet
  facet normal -0 0 1
    outer loop
      vertex 3 38 3
      vertex 6 36 3
      vertex 6 38 3
    endloop
  endfacet
  facet normal 0 0 1
    outer loop
      vertex 6 36 3
      vertex 3 38 3
      vertex 3 36 3
    endloop
  endfacet
  facet normal -0 0 1
    outer loop
      vertex 3 43 3
      vertex 6 41 3
      vertex 6 43 3
    endloop
  endfacet
  facet normal 0 0 1
    outer loop
      vertex 6 41 3
      vertex 3 43 3
      vertex 3 41 3
    endloop
  endfacet
  facet normal -0 0 1
    outer loop
      vertex 3 48 3
      vertex 6 46 3
      vertex 6 48 3
    endloop
  endfacet
  facet normal 0 0 1
    outer loop
      vertex 6 46 3
      vertex 3 48 3
      vertex 3 46 3
    endloop
  endfacet
  facet normal -0 0 1
    outer loop
      vertex 3 53 3
      vertex 6 51 3
      vertex 6 53 3
    endloop
  endfacet
  facet normal 0 0 1
    outer loop
      vertex 6 51 3
      vertex 3 53 3
      vertex 3 51 3
    endloop
  endfacet
  facet normal 0 0 1
    outer loop
      vertex 6 53 3
      vertex 42 53 3
      vertex 42 56 3
    endloop
  endfacet
  facet normal 0 0 1
    outer loop
      vertex 42 53 3
      vertex 6 53 3
      vertex 42 51 3
    endloop
  endfacet
  facet normal 0 0 1
    outer loop
      vertex 42 51 3
      vertex 6 51 3
      vertex 42 48 3
    endloop
  endfacet
  facet normal 0 0 1
    outer loop
      vertex 6 48 3
      vertex 42 48 3
      vertex 6 51 3
    endloop
  endfacet
  facet normal 0 0 1
    outer loop
      vertex 6 46 3
      vertex 42 46 3
      vertex 6 48 3
    endloop
  endfacet
  facet normal 0 0 1
    outer loop
      vertex 42 46 3
      vertex 6 46 3
      vertex 42 43 3
    endloop
  endfacet
  facet normal 0 0 1
    outer loop
      vertex 42 43 3
      vertex 6 43 3
      vertex 42 41 3
    endloop
  endfacet
  facet normal 0 0 1
    outer loop
      vertex 6 41 3
      vertex 42 41 3
      vertex 6 43 3
    endloop
  endfacet
  facet normal 0 0 1
    outer loop
      vertex 6 38 3
      vertex 42 38 3
      vertex 6 41 3
    endloop
  endfacet
  facet normal 0 0 1
    outer loop
      vertex 42 38 3
      vertex 6 38 3
      vertex 42 36 3
    endloop
  endfacet
  facet normal 0 0 1
    outer loop
      vertex 42 36 3
      vertex 6 36 3
      vertex 42 33 3
    endloop
  endfacet
  facet normal 0 0 1
    outer loop
      vertex 6 33 3
      vertex 42 33 3
      vertex 6 36 3
    endloop
  endfacet
  facet normal 0 0 1
    outer loop
      vertex 6 31 3
      vertex 42 31 3
      vertex 6 33 3
    endloop
  endfacet
  facet normal 0 0 1
    outer loop
      vertex 42 31 3
      vertex 6 31 3
      vertex 42 28 3
    endloop
  endfacet
  facet normal 0 0 1
    outer loop
      vertex 42 28 3
      vertex 6 28 3
      vertex 42 26 3
    endloop
  endfacet
  facet normal 0 0 1
    outer loop
      vertex 6 26 3
      vertex 42 26 3
      vertex 6 28 3
    endloop
  endfacet
  facet normal 0 0 1
    outer loop
      vertex 6 23 3
      vertex 42 23 3
      vertex 6 26 3
    endloop
  endfacet
  facet normal 0 0 1
    outer loop
      vertex 42 23 3
      vertex 6 23 3
      vertex 42 21 3
    endloop
  endfacet
  facet normal 0 0 1
    outer loop
      vertex 42 21 3
      vertex 6 21 3
      vertex 42 18 3
    endloop
  endfacet
  facet normal 0 0 1
    outer loop
      vertex 6 18 3
      vertex 42 18 3
      vertex 6 21 3
    endloop
  endfacet
  facet normal 0 0 1
    outer loop
      vertex 6 53 3
      vertex 42 56 3
      vertex 6 56 3
    endloop
  endfacet
  facet normal 0 0 1
    outer loop
      vertex 42 51 3
      vertex 6 53 3
      vertex 6 51 3
    endloop
  endfacet
  facet normal 0 0 1
    outer loop
      vertex 42 48 3
      vertex 6 48 3
      vertex 42 46 3
    endloop
  endfacet
  facet normal 0 0 1
    outer loop
      vertex 6 43 3
      vertex 42 43 3
      vertex 6 46 3
    endloop
  endfacet
  facet normal 0 0 1
    outer loop
      vertex 42 41 3
      vertex 6 41 3
      vertex 42 38 3
    endloop
  endfacet
  facet normal 0 0 1
    outer loop
      vertex 6 36 3
      vertex 42 36 3
      vertex 6 38 3
    endloop
  endfacet
  facet normal 0 0 1
    outer loop
      vertex 42 33 3
      vertex 6 33 3
      vertex 42 31 3
    endloop
  endfacet
  facet normal 0 0 1
    outer loop
      vertex 6 28 3
      vertex 42 28 3
      vertex 6 31 3
    endloop
  endfacet
  facet normal 0 0 1
    outer loop
      vertex 42 26 3
      vertex 6 26 3
      vertex 42 23 3
    endloop
  endfacet
  facet normal 0 0 1
    outer loop
      vertex 6 21 3
      vertex 42 21 3
      vertex 6 23 3
    endloop
  endfacet
  facet normal 0 0 1
    outer loop
      vertex 42 18 3
      vertex 6 18 3
      vertex 42 16 3
    endloop
  endfacet
  facet normal 0 0 1
    outer loop
      vertex 6 16 3
      vertex 42 16 3
      vertex 6 18 3
    endloop
  endfacet
  facet normal 0 0 1
    outer loop
      vertex 42 16 3
      vertex 6 16 3
      vertex 42 13 3
    endloop
  endfacet
  facet normal 0 0 1
    outer loop
      vertex 6 13 3
      vertex 42 13 3
      vertex 6 16 3
    endloop
  endfacet
  facet normal 0 0 1
    outer loop
      vertex 42 13 3
      vertex 6 13 3
      vertex 42 11 3
    endloop
  endfacet
  facet normal 0 0 1
    outer loop
      vertex 6 11 3
      vertex 42 11 3
      vertex 6 13 3
    endloop
  endfacet
  facet normal 0 0 1
    outer loop
      vertex 42 11 3
      vertex 6 11 3
      vertex 42 8 3
    endloop
  endfacet
  facet normal 0 0 1
    outer loop
      vertex 6 8 3
      vertex 42 8 3
      vertex 6 11 3
    endloop
  endfacet
  facet normal 0 0 1
    outer loop
      vertex 42 8 3
      vertex 6 8 3
      vertex 42 6 3
    endloop
  endfacet
  facet normal 0 0 1
    outer loop
      vertex 6 6 3
      vertex 42 6 3
      vertex 6 8 3
    endloop
  endfacet
  facet normal 0 0 1
    outer loop
      vertex 42 6 3
      vertex 6 6 3
      vertex 42 3 3
    endloop
  endfacet
  facet normal 0 0 1
    outer loop
      vertex 42 3 3
      vertex 6 6 3
      vertex 6 3 3
    endloop
  endfacet
  facet normal -0 0 1
    outer loop
      vertex 42 53 3
      vertex 45 51 3
      vertex 45 53 3
    endloop
  endfacet
  facet normal 0 0 1
    outer loop
      vertex 45 51 3
      vertex 42 53 3
      vertex 42 51 3
    endloop
  endfacet
  facet normal -0 0 1
    outer loop
      vertex 42 48 3
      vertex 45 46 3
      vertex 45 48 3
    endloop
  endfacet
  facet normal 0 0 1
    outer loop
      vertex 45 46 3
      vertex 42 48 3
      vertex 42 46 3
    endloop
  endfacet
  facet normal -0 0 1
    outer loop
      vertex 42 43 3
      vertex 45 41 3
      vertex 45 43 3
    endloop
  endfacet
  facet normal 0 0 1
    outer loop
      vertex 45 41 3
      vertex 42 43 3
      vertex 42 41 3
    endloop
  endfacet
  facet normal -0 0 1
    outer loop
      vertex 42 38 3
      vertex 45 36 3
      vertex 45 38 3
    endloop
  endfacet
  facet normal 0 0 1
    outer loop
      vertex 45 36 3
      vertex 42 38 3
      vertex 42 36 3
    endloop
  endfacet
  facet normal -0 0 1
    outer loop
      vertex 42 33 3
      vertex 45 31 3
      vertex 45 33 3
    endloop
  endfacet
  facet normal 0 0 1
    outer loop
      vertex 45 31 3
      vertex 42 33 3
      vertex 42 31 3
    endloop
  endfacet
  facet normal -0 0 1
    outer loop
      vertex 42 28 3
      vertex 45 26 3
      vertex 45 28 3
    endloop
  endfacet
  facet normal 0 0 1
    outer loop
      vertex 45 26 3
      vertex 42 28 3
      vertex 42 26 3
    endloop
  endfacet
  facet normal -0 0 1
    outer loop
      vertex 42 23 3
      vertex 45 21 3
      vertex 45 23 3
    endloop
  endfacet
  facet normal 0 0 1
    outer loop
      vertex 45 21 3
      vertex 42 23 3
      vertex 42 21 3
    endloop
  endfacet
  facet normal -0 0 1
    outer loop
      vertex 42 18 3
      vertex 45 16 3
      vertex 45 18 3
    endloop
  endfacet
  facet normal 0 0 1
    outer loop
      vertex 45 16 3
      vertex 42 18 3
      vertex 42 16 3
    endloop
  endfacet
  facet normal -0 0 1
    outer loop
      vertex 42 13 3
      vertex 45 11 3
      vertex 45 13 3
    endloop
  endfacet
  facet normal 0 0 1
    outer loop
      vertex 45 11 3
      vertex 42 13 3
      vertex 42 11 3
    endloop
  endfacet
  facet normal -0 0 1
    outer loop
      vertex 42 8 3
      vertex 45 6 3
      vertex 45 8 3
    endloop
  endfacet
  facet normal 0 0 1
    outer loop
      vertex 45 6 3
      vertex 42 8 3
      vertex 42 6 3
    endloop
  endfacet
  facet normal 0 1 -0
    outer loop
      vertex 42 3 3
      vertex 6 3 43
      vertex 42 3 43
    endloop
  endfacet
  facet normal 0 1 0
    outer loop
      vertex 6 3 43
      vertex 42 3 3
      vertex 6 3 3
    endloop
  endfacet
  facet normal 0 1 0
    outer loop
      vertex 42 3 43
      vertex 45 3 45
      vertex 45 3 43
    endloop
  endfacet
  facet normal 0 1 0
    outer loop
      vertex 45 3 45
      vertex 42 3 43
      vertex 3 3 45
    endloop
  endfacet
  facet normal 0 1 -0
    outer loop
      vertex 6 3 43
      vertex 3 3 45
      vertex 42 3 43
    endloop
  endfacet
  facet normal 0 1 0
    outer loop
      vertex 3 3 45
      vertex 6 3 43
      vertex 3 3 43
    endloop
  endfacet
  facet normal 0 -1 0
    outer loop
      vertex 6 56 3
      vertex 42 56 43
      vertex 6 56 43
    endloop
  endfacet
  facet normal 0 -1 -0
    outer loop
      vertex 42 56 43
      vertex 6 56 3
      vertex 42 56 3
    endloop
  endfacet
  facet normal 0 -1 0
    outer loop
      vertex 6 56 43
      vertex 3 56 45
      vertex 3 56 43
    endloop
  endfacet
  facet normal 0 -1 0
    outer loop
      vertex 3 56 45
      vertex 6 56 43
      vertex 45 56 45
    endloop
  endfacet
  facet normal 0 -1 0
    outer loop
      vertex 42 56 43
      vertex 45 56 45
      vertex 6 56 43
    endloop
  endfacet
  facet normal 0 -1 -0
    outer loop
      vertex 45 56 45
      vertex 42 56 43
      vertex 45 56 43
    endloop
  endfacet
  facet normal -0 0 1
    outer loop
      vertex 3 6 43
      vertex 6 3 43
      vertex 6 6 43
    endloop
  endfacet
  facet normal 0 0 1
    outer loop
      vertex 6 3 43
      vertex 3 6 43
      vertex 3 3 43
    endloop
  endfacet
  facet normal 1 -0 0
    outer loop
      vertex 6 3 43
      vertex 6 6 3
      vertex 6 6 43
    endloop
  endfacet
  facet normal 1 0 0
    outer loop
      vertex 6 6 3
      vertex 6 3 43
      vertex 6 3 3
    endloop
  endfacet
  facet normal 0 1 -0
    outer loop
      vertex 6 6 3
      vertex 3 6 43
      vertex 6 6 43
    endloop
  endfacet
  facet normal 0 1 0
    outer loop
      vertex 3 6 43
      vertex 6 6 3
      vertex 3 6 3
    endloop
  endfacet
  facet normal -1 0 0
    outer loop
      vertex 42 3 3
      vertex 42 6 43
      vertex 42 6 3
    endloop
  endfacet
  facet normal -1 -0 0
    outer loop
      vertex 42 6 43
      vertex 42 3 3
      vertex 42 3 43
    endloop
  endfacet
  facet normal -0 0 1
    outer loop
      vertex 42 6 43
      vertex 45 3 43
      vertex 45 6 43
    endloop
  endfacet
  facet normal 0 0 1
    outer loop
      vertex 45 3 43
      vertex 42 6 43
      vertex 42 3 43
    endloop
  endfacet
  facet normal 0 1 -0
    outer loop
      vertex 45 6 3
      vertex 42 6 43
      vertex 45 6 43
    endloop
  endfacet
  facet normal 0 1 0
    outer loop
      vertex 42 6 43
      vertex 45 6 3
      vertex 42 6 3
    endloop
  endfacet
  facet normal -0 0 1
    outer loop
      vertex 3 11 43
      vertex 6 8 43
      vertex 6 11 43
    endloop
  endfacet
  facet normal 0 0 1
    outer loop
      vertex 6 8 43
      vertex 3 11 43
      vertex 3 8 43
    endloop
  endfacet
  facet normal 1 -0 0
    outer loop
      vertex 6 8 43
      vertex 6 11 3
      vertex 6 11 43
    endloop
  endfacet
  facet normal 1 0 0
    outer loop
      vertex 6 11 3
      vertex 6 8 43
      vertex 6 8 3
    endloop
  endfacet
  facet normal 0 1 -0
    outer loop
      vertex 6 11 3
      vertex 3 11 43
      vertex 6 11 43
    endloop
  endfacet
  facet normal 0 1 0
    outer loop
      vertex 3 11 43
      vertex 6 11 3
      vertex 3 11 3
    endloop
  endfacet
  facet normal 0 -1 0
    outer loop
      vertex 3 8 3
      vertex 6 8 43
      vertex 3 8 43
    endloop
  endfacet
  facet normal 0 -1 -0
    outer loop
      vertex 6 8 43
      vertex 3 8 3
      vertex 6 8 3
    endloop
  endfacet
  facet normal -1 0 0
    outer loop
      vertex 42 8 3
      vertex 42 11 43
      vertex 42 11 3
    endloop
  endfacet
  facet normal -1 -0 0
    outer loop
      vertex 42 11 43
      vertex 42 8 3
      vertex 42 8 43
    endloop
  endfacet
  facet normal -0 0 1
    outer loop
      vertex 42 11 43
      vertex 45 8 43
      vertex 45 11 43
    endloop
  endfacet
  facet normal 0 0 1
    outer loop
      vertex 45 8 43
      vertex 42 11 43
      vertex 42 8 43
    endloop
  endfacet
  facet normal 0 -1 0
    outer loop
      vertex 42 8 3
      vertex 45 8 43
      vertex 42 8 43
    endloop
  endfacet
  facet normal 0 -1 -0
    outer loop
      vertex 45 8 43
      vertex 42 8 3
      vertex 45 8 3
    endloop
  endfacet
  facet normal 0 1 -0
    outer loop
      vertex 45 11 3
      vertex 42 11 43
      vertex 45 11 43
    endloop
  endfacet
  facet normal 0 1 0
    outer loop
      vertex 42 11 43
      vertex 45 11 3
      vertex 42 11 3
    endloop
  endfacet
  facet normal -0 0 1
    outer loop
      vertex 3 16 43
      vertex 6 13 43
      vertex 6 16 43
    endloop
  endfacet
  facet normal 0 0 1
    outer loop
      vertex 6 13 43
      vertex 3 16 43
      vertex 3 13 43
    endloop
  endfacet
  facet normal 1 -0 0
    outer loop
      vertex 6 13 43
      vertex 6 16 3
      vertex 6 16 43
    endloop
  endfacet
  facet normal 1 0 0
    outer loop
      vertex 6 16 3
      vertex 6 13 43
      vertex 6 13 3
    endloop
  endfacet
  facet normal 0 1 -0
    outer loop
      vertex 6 16 3
      vertex 3 16 43
      vertex 6 16 43
    endloop
  endfacet
  facet normal 0 1 0
    outer loop
      vertex 3 16 43
      vertex 6 16 3
      vertex 3 16 3
    endloop
  endfacet
  facet normal 0 -1 0
    outer loop
      vertex 3 13 3
      vertex 6 13 43
      vertex 3 13 43
    endloop
  endfacet
  facet normal 0 -1 -0
    outer loop
      vertex 6 13 43
      vertex 3 13 3
      vertex 6 13 3
    endloop
  endfacet
  facet normal -1 0 0
    outer loop
      vertex 42 13 3
      vertex 42 16 43
      vertex 42 16 3
    endloop
  endfacet
  facet normal -1 -0 0
    outer loop
      vertex 42 16 43
      vertex 42 13 3
      vertex 42 13 43
    endloop
  endfacet
  facet normal -0 0 1
    outer loop
      vertex 42 16 43
      vertex 45 13 43
      vertex 45 16 43
    endloop
  endfacet
  facet normal 0 0 1
    outer loop
      vertex 45 13 43
      vertex 42 16 43
      vertex 42 13 43
    endloop
  endfacet
  facet normal 0 1 -0
    outer loop
      vertex 45 16 3
      vertex 42 16 43
      vertex 45 16 43
    endloop
  endfacet
  facet normal 0 1 0
    outer loop
      vertex 42 16 43
      vertex 45 16 3
      vertex 42 16 3
    endloop
  endfacet
  facet normal 0 -1 0
    outer loop
      vertex 42 13 3
      vertex 45 13 43
      vertex 42 13 43
    endloop
  endfacet
  facet normal 0 -1 -0
    outer loop
      vertex 45 13 43
      vertex 42 13 3
      vertex 45 13 3
    endloop
  endfacet
  facet normal -0 0 1
    outer loop
      vertex 3 21 43
      vertex 6 18 43
      vertex 6 21 43
    endloop
  endfacet
  facet normal 0 0 1
    outer loop
      vertex 6 18 43
      vertex 3 21 43
      vertex 3 18 43
    endloop
  endfacet
  facet normal 1 -0 0
    outer loop
      vertex 6 18 43
      vertex 6 21 3
      vertex 6 21 43
    endloop
  endfacet
  facet normal 1 0 0
    outer loop
      vertex 6 21 3
      vertex 6 18 43
      vertex 6 18 3
    endloop
  endfacet
  facet normal 0 -1 0
    outer loop
      vertex 3 18 3
      vertex 6 18 43
      vertex 3 18 43
    endloop
  endfacet
  facet normal 0 -1 -0
    outer loop
      vertex 6 18 43
      vertex 3 18 3
      vertex 6 18 3
    endloop
  endfacet
  facet normal 0 1 -0
    outer loop
      vertex 6 21 3
      vertex 3 21 43
      vertex 6 21 43
    endloop
  endfacet
  facet normal 0 1 0
    outer loop
      vertex 3 21 43
      vertex 6 21 3
      vertex 3 21 3
    endloop
  endfacet
  facet normal -1 0 0
    outer loop
      vertex 42 18 3
      vertex 42 21 43
      vertex 42 21 3
    endloop
  endfacet
  facet normal -1 -0 0
    outer loop
      vertex 42 21 43
      vertex 42 18 3
      vertex 42 18 43
    endloop
  endfacet
  facet normal -0 0 1
    outer loop
      vertex 42 21 43
      vertex 45 18 43
      vertex 45 21 43
    endloop
  endfacet
  facet normal 0 0 1
    outer loop
      vertex 45 18 43
      vertex 42 21 43
      vertex 42 18 43
    endloop
  endfacet
  facet normal 0 1 -0
    outer loop
      vertex 45 21 3
      vertex 42 21 43
      vertex 45 21 43
    endloop
  endfacet
  facet normal 0 1 0
    outer loop
      vertex 42 21 43
      vertex 45 21 3
      vertex 42 21 3
    endloop
  endfacet
  facet normal 0 -1 0
    outer loop
      vertex 42 18 3
      vertex 45 18 43
      vertex 42 18 43
    endloop
  endfacet
  facet normal 0 -1 -0
    outer loop
      vertex 45 18 43
      vertex 42 18 3
      vertex 45 18 3
    endloop
  endfacet
  facet normal -0 0 1
    outer loop
      vertex 3 26 43
      vertex 6 23 43
      vertex 6 26 43
    endloop
  endfacet
  facet normal 0 0 1
    outer loop
      vertex 6 23 43
      vertex 3 26 43
      vertex 3 23 43
    endloop
  endfacet
  facet normal 1 -0 0
    outer loop
      vertex 6 23 43
      vertex 6 26 3
      vertex 6 26 43
    endloop
  endfacet
  facet normal 1 0 0
    outer loop
      vertex 6 26 3
      vertex 6 23 43
      vertex 6 23 3
    endloop
  endfacet
  facet normal 0 1 -0
    outer loop
      vertex 6 26 3
      vertex 3 26 43
      vertex 6 26 43
    endloop
  endfacet
  facet normal 0 1 0
    outer loop
      vertex 3 26 43
      vertex 6 26 3
      vertex 3 26 3
    endloop
  endfacet
  facet normal 0 -1 0
    outer loop
      vertex 3 23 3
      vertex 6 23 43
      vertex 3 23 43
    endloop
  endfacet
  facet normal 0 -1 -0
    outer loop
      vertex 6 23 43
      vertex 3 23 3
      vertex 6 23 3
    endloop
  endfacet
  facet normal -1 0 0
    outer loop
      vertex 42 23 3
      vertex 42 26 43
      vertex 42 26 3
    endloop
  endfacet
  facet normal -1 -0 0
    outer loop
      vertex 42 26 43
      vertex 42 23 3
      vertex 42 23 43
    endloop
  endfacet
  facet normal -0 0 1
    outer loop
      vertex 42 26 43
      vertex 45 23 43
      vertex 45 26 43
    endloop
  endfacet
  facet normal 0 0 1
    outer loop
      vertex 45 23 43
      vertex 42 26 43
      vertex 42 23 43
    endloop
  endfacet
  facet normal 0 1 -0
    outer loop
      vertex 45 26 3
      vertex 42 26 43
      vertex 45 26 43
    endloop
  endfacet
  facet normal 0 1 0
    outer loop
      vertex 42 26 43
      vertex 45 26 3
      vertex 42 26 3
    endloop
  endfacet
  facet normal 0 -1 0
    outer loop
      vertex 42 23 3
      vertex 45 23 43
      vertex 42 23 43
    endloop
  endfacet
  facet normal 0 -1 -0
    outer loop
      vertex 45 23 43
      vertex 42 23 3
      vertex 45 23 3
    endloop
  endfacet
  facet normal -0 0 1
    outer loop
      vertex 3 31 43
      vertex 6 28 43
      vertex 6 31 43
    endloop
  endfacet
  facet normal 0 0 1
    outer loop
      vertex 6 28 43
      vertex 3 31 43
      vertex 3 28 43
    endloop
  endfacet
  facet normal 1 -0 0
    outer loop
      vertex 6 28 43
      vertex 6 31 3
      vertex 6 31 43
    endloop
  endfacet
  facet normal 1 0 0
    outer loop
      vertex 6 31 3
      vertex 6 28 43
      vertex 6 28 3
    endloop
  endfacet
  facet normal 0 -1 0
    outer loop
      vertex 3 28 3
      vertex 6 28 43
      vertex 3 28 43
    endloop
  endfacet
  facet normal 0 -1 -0
    outer loop
      vertex 6 28 43
      vertex 3 28 3
      vertex 6 28 3
    endloop
  endfacet
  facet normal 0 1 -0
    outer loop
      vertex 6 31 3
      vertex 3 31 43
      vertex 6 31 43
    endloop
  endfacet
  facet normal 0 1 0
    outer loop
      vertex 3 31 43
      vertex 6 31 3
      vertex 3 31 3
    endloop
  endfacet
  facet normal -1 0 0
    outer loop
      vertex 42 28 3
      vertex 42 31 43
      vertex 42 31 3
    endloop
  endfacet
  facet normal -1 -0 0
    outer loop
      vertex 42 31 43
      vertex 42 28 3
      vertex 42 28 43
    endloop
  endfacet
  facet normal -0 0 1
    outer loop
      vertex 42 31 43
      vertex 45 28 43
      vertex 45 31 43
    endloop
  endfacet
  facet normal 0 0 1
    outer loop
      vertex 45 28 43
      vertex 42 31 43
      vertex 42 28 43
    endloop
  endfacet
  facet normal 0 -1 0
    outer loop
      vertex 42 28 3
      vertex 45 28 43
      vertex 42 28 43
    endloop
  endfacet
  facet normal 0 -1 -0
    outer loop
      vertex 45 28 43
      vertex 42 28 3
      vertex 45 28 3
    endloop
  endfacet
  facet normal 0 1 -0
    outer loop
      vertex 45 31 3
      vertex 42 31 43
      vertex 45 31 43
    endloop
  endfacet
  facet normal 0 1 0
    outer loop
      vertex 42 31 43
      vertex 45 31 3
      vertex 42 31 3
    endloop
  endfacet
  facet normal -0 0 1
    outer loop
      vertex 3 36 43
      vertex 6 33 43
      vertex 6 36 43
    endloop
  endfacet
  facet normal 0 0 1
    outer loop
      vertex 6 33 43
      vertex 3 36 43
      vertex 3 33 43
    endloop
  endfacet
  facet normal 1 -0 0
    outer loop
      vertex 6 33 43
      vertex 6 36 3
      vertex 6 36 43
    endloop
  endfacet
  facet normal 1 0 0
    outer loop
      vertex 6 36 3
      vertex 6 33 43
      vertex 6 33 3
    endloop
  endfacet
  facet normal 0 1 -0
    outer loop
      vertex 6 36 3
      vertex 3 36 43
      vertex 6 36 43
    endloop
  endfacet
  facet normal 0 1 0
    outer loop
      vertex 3 36 43
      vertex 6 36 3
      vertex 3 36 3
    endloop
  endfacet
  facet normal 0 -1 0
    outer loop
      vertex 3 33 3
      vertex 6 33 43
      vertex 3 33 43
    endloop
  endfacet
  facet normal 0 -1 -0
    outer loop
      vertex 6 33 43
      vertex 3 33 3
      vertex 6 33 3
    endloop
  endfacet
  facet normal -1 0 0
    outer loop
      vertex 42 33 3
      vertex 42 36 43
      vertex 42 36 3
    endloop
  endfacet
  facet normal -1 -0 0
    outer loop
      vertex 42 36 43
      vertex 42 33 3
      vertex 42 33 43
    endloop
  endfacet
  facet normal -0 0 1
    outer loop
      vertex 42 36 43
      vertex 45 33 43
      vertex 45 36 43
    endloop
  endfacet
  facet normal 0 0 1
    outer loop
      vertex 45 33 43
      vertex 42 36 43
      vertex 42 33 43
    endloop
  endfacet
  facet normal 0 1 -0
    outer loop
      vertex 45 36 3
      vertex 42 36 43
      vertex 45 36 43
    endloop
  endfacet
  facet normal 0 1 0
    outer loop
      vertex 42 36 43
      vertex 45 36 3
      vertex 42 36 3
    endloop
  endfacet
  facet normal 0 -1 0
    outer loop
      vertex 42 33 3
      vertex 45 33 43
      vertex 42 33 43
    endloop
  endfacet
  facet normal 0 -1 -0
    outer loop
      vertex 45 33 43
      vertex 42 33 3
      vertex 45 33 3
    endloop
  endfacet
  facet normal -0 0 1
    outer loop
      vertex 3 41 43
      vertex 6 38 43
      vertex 6 41 43
    endloop
  endfacet
  facet normal 0 0 1
    outer loop
      vertex 6 38 43
      vertex 3 41 43
      vertex 3 38 43
    endloop
  endfacet
  facet normal 1 -0 0
    outer loop
      vertex 6 38 43
      vertex 6 41 3
      vertex 6 41 43
    endloop
  endfacet
  facet normal 1 0 0
    outer loop
      vertex 6 41 3
      vertex 6 38 43
      vertex 6 38 3
    endloop
  endfacet
  facet normal 0 -1 0
    outer loop
      vertex 3 38 3
      vertex 6 38 43
      vertex 3 38 43
    endloop
  endfacet
  facet normal 0 -1 -0
    outer loop
      vertex 6 38 43
      vertex 3 38 3
      vertex 6 38 3
    endloop
  endfacet
  facet normal 0 1 -0
    outer loop
      vertex 6 41 3
      vertex 3 41 43
      vertex 6 41 43
    endloop
  endfacet
  facet normal 0 1 0
    outer loop
      vertex 3 41 43
      vertex 6 41 3
      vertex 3 41 3
    endloop
  endfacet
  facet normal -1 0 0
    outer loop
      vertex 42 38 3
      vertex 42 41 43
      vertex 42 41 3
    endloop
  endfacet
  facet normal -1 -0 0
    outer loop
      vertex 42 41 43
      vertex 42 38 3
      vertex 42 38 43
    endloop
  endfacet
  facet normal -0 0 1
    outer loop
      vertex 42 41 43
      vertex 45 38 43
      vertex 45 41 43
    endloop
  endfacet
  facet normal 0 0 1
    outer loop
      vertex 45 38 43
      vertex 42 41 43
      vertex 42 38 43
    endloop
  endfacet
  facet normal 0 1 -0
    outer loop
      vertex 45 41 3
      vertex 42 41 43
      vertex 45 41 43
    endloop
  endfacet
  facet normal 0 1 0
    outer loop
      vertex 42 41 43
      vertex 45 41 3
      vertex 42 41 3
    endloop
  endfacet
  facet normal 0 -1 0
    outer loop
      vertex 42 38 3
      vertex 45 38 43
      vertex 42 38 43
    endloop
  endfacet
  facet normal 0 -1 -0
    outer loop
      vertex 45 38 43
      vertex 42 38 3
      vertex 45 38 3
    endloop
  endfacet
  facet normal -0 0 1
    outer loop
      vertex 3 46 43
      vertex 6 43 43
      vertex 6 46 43
    endloop
  endfacet
  facet normal 0 0 1
    outer loop
      vertex 6 43 43
      vertex 3 46 43
      vertex 3 43 43
    endloop
  endfacet
  facet normal 1 -0 0
    outer loop
      vertex 6 43 43
      vertex 6 46 3
      vertex 6 46 43
    endloop
  endfacet
  facet normal 1 0 0
    outer loop
      vertex 6 46 3
      vertex 6 43 43
      vertex 6 43 3
    endloop
  endfacet
  facet normal 0 -1 0
    outer loop
      vertex 3 43 3
      vertex 6 43 43
      vertex 3 43 43
    endloop
  endfacet
  facet normal 0 -1 -0
    outer loop
      vertex 6 43 43
      vertex 3 43 3
      vertex 6 43 3
    endloop
  endfacet
  facet normal 0 1 -0
    outer loop
      vertex 6 46 3
      vertex 3 46 43
      vertex 6 46 43
    endloop
  endfacet
  facet normal 0 1 0
    outer loop
      vertex 3 46 43
      vertex 6 46 3
      vertex 3 46 3
    endloop
  endfacet
  facet normal -1 0 0
    outer loop
      vertex 42 43 3
      vertex 42 46 43
      vertex 42 46 3
    endloop
  endfacet
  facet normal -1 -0 0
    outer loop
      vertex 42 46 43
      vertex 42 43 3
      vertex 42 43 43
    endloop
  endfacet
  facet normal -0 0 1
    outer loop
      vertex 42 46 43
      vertex 45 43 43
      vertex 45 46 43
    endloop
  endfacet
  facet normal 0 0 1
    outer loop
      vertex 45 43 43
      vertex 42 46 43
      vertex 42 43 43
    endloop
  endfacet
  facet normal 0 1 -0
    outer loop
      vertex 45 46 3
      vertex 42 46 43
      vertex 45 46 43
    endloop
  endfacet
  facet normal 0 1 0
    outer loop
      vertex 42 46 43
      vertex 45 46 3
      vertex 42 46 3
    endloop
  endfacet
  facet normal 0 -1 0
    outer loop
      vertex 42 43 3
      vertex 45 43 43
      vertex 42 43 43
    endloop
  endfacet
  facet normal 0 -1 -0
    outer loop
      vertex 45 43 43
      vertex 42 43 3
      vertex 45 43 3
    endloop
  endfacet
  facet normal -0 0 1
    outer loop
      vertex 3 51 43
      vertex 6 48 43
      vertex 6 51 43
    endloop
  endfacet
  facet normal 0 0 1
    outer loop
      vertex 6 48 43
      vertex 3 51 43
      vertex 3 48 43
    endloop
  endfacet
  facet normal 1 -0 0
    outer loop
      vertex 6 48 43
      vertex 6 51 3
      vertex 6 51 43
    endloop
  endfacet
  facet normal 1 0 0
    outer loop
      vertex 6 51 3
      vertex 6 48 43
      vertex 6 48 3
    endloop
  endfacet
  facet normal 0 -1 0
    outer loop
      vertex 3 48 3
      vertex 6 48 43
      vertex 3 48 43
    endloop
  endfacet
  facet normal 0 -1 -0
    outer loop
      vertex 6 48 43
      vertex 3 48 3
      vertex 6 48 3
    endloop
  endfacet
  facet normal 0 1 -0
    outer loop
      vertex 6 51 3
      vertex 3 51 43
      vertex 6 51 43
    endloop
  endfacet
  facet normal 0 1 0
    outer loop
      vertex 3 51 43
      vertex 6 51 3
      vertex 3 51 3
    endloop
  endfacet
  facet normal -1 0 0
    outer loop
      vertex 42 48 3
      vertex 42 51 43
      vertex 42 51 3
    endloop
  endfacet
  facet normal -1 -0 0
    outer loop
      vertex 42 51 43
      vertex 42 48 3
      vertex 42 48 43
    endloop
  endfacet
  facet normal -0 0 1
    outer loop
      vertex 42 51 43
      vertex 45 48 43
      vertex 45 51 43
    endloop
  endfacet
  facet normal 0 0 1
    outer loop
      vertex 45 48 43
      vertex 42 51 43
      vertex 42 48 43
    endloop
  endfacet
  facet normal 0 1 -0
    outer loop
      vertex 45 51 3
      vertex 42 51 43
      vertex 45 51 43
    endloop
  endfacet
  facet normal 0 1 0
    outer loop
      vertex 42 51 43
      vertex 45 51 3
      vertex 42 51 3
    endloop
  endfacet
  facet normal 0 -1 0
    outer loop
      vertex 42 48 3
      vertex 45 48 43
      vertex 42 48 43
    endloop
  endfacet
  facet normal 0 -1 -0
    outer loop
      vertex 45 48 43
      vertex 42 48 3
      vertex 45 48 3
    endloop
  endfacet
  facet normal -0 0 1
    outer loop
      vertex 3 56 43
      vertex 6 53 43
      vertex 6 56 43
    endloop
  endfacet
  facet normal 0 0 1
    outer loop
      vertex 6 53 43
      vertex 3 56 43
      vertex 3 53 43
    endloop
  endfacet
  facet normal 1 -0 0
    outer loop
      vertex 6 53 43
      vertex 6 56 3
      vertex 6 56 43
    endloop
  endfacet
  facet normal 1 0 0
    outer loop
      vertex 6 56 3
      vertex 6 53 43
      vertex 6 53 3
    endloop
  endfacet
  facet normal 0 -1 0
    outer loop
      vertex 3 53 3
      vertex 6 53 43
      vertex 3 53 43
    endloop
  endfacet
  facet normal 0 -1 -0
    outer loop
      vertex 6 53 43
      vertex 3 53 3
      vertex 6 53 3
    endloop
  endfacet
  facet normal -1 0 0
    outer loop
      vertex 42 53 3
      vertex 42 56 43
      vertex 42 56 3
    endloop
  endfacet
  facet normal -1 -0 0
    outer loop
      vertex 42 56 43
      vertex 42 53 3
      vertex 42 53 43
    endloop
  endfacet
  facet normal -0 0 1
    outer loop
      vertex 42 56 43
      vertex 45 53 43
      vertex 45 56 43
    endloop
  endfacet
  facet normal 0 0 1
    outer loop
      vertex 45 53 43
      vertex 42 56 43
      vertex 42 53 43
    endloop
  endfacet
  facet normal 0 -1 0
    outer loop
      vertex 42 53 3
      vertex 45 53 43
      vertex 42 53 43
    endloop
  endfacet
  facet normal 0 -1 -0
    outer loop
      vertex 45 53 43
      vertex 42 53 3
      vertex 45 53 3
    endloop
  endfacet
  facet normal -1 0 0
    outer loop
      vertex 19.5 59 30
      vertex 19.5 62 33
      vertex 19.5 62 30
    endloop
  endfacet
  facet normal -1 -0 0
    outer loop
      vertex 19.5 62 33
      vertex 19.5 59 30
      vertex 19.5 59 33
    endloop
  endfacet
  facet normal -0 0 1
    outer loop
      vertex 19.5 62 33
      vertex 28.5 59 33
      vertex 28.5 62 33
    endloop
  endfacet
  facet normal 0 0 1
    outer loop
      vertex 28.5 59 33
      vertex 19.5 62 33
      vertex 19.5 59 33
    endloop
  endfacet
  facet normal 1 -0 0
    outer loop
      vertex 28.5 59 33
      vertex 28.5 62 30
      vertex 28.5 62 33
    endloop
  endfacet
  facet normal 1 0 0
    outer loop
      vertex 28.5 62 30
      vertex 28.5 59 33
      vertex 28.5 59 30
    endloop
  endfacet
  facet normal 0 0 -1
    outer loop
      vertex 19.5 59 30
      vertex 22.5 62 30
      vertex 22.5 59 30
    endloop
  endfacet
  facet normal -0 0 -1
    outer loop
      vertex 22.5 62 30
      vertex 19.5 59 30
      vertex 19.5 62 30
    endloop
  endfacet
  facet normal 0 0 -1
    outer loop
      vertex 25.5 59 30
      vertex 28.5 62 30
      vertex 28.5 59 30
    endloop
  endfacet
  facet normal -0 0 -1
    outer loop
      vertex 28.5 62 30
      vertex 25.5 59 30
      vertex 25.5 62 30
    endloop
  endfacet
  facet normal 0 1 -0
    outer loop
      vertex 25.5 62 27
      vertex 22.5 62 30
      vertex 25.5 62 30
    endloop
  endfacet
  facet normal 0 1 0
    outer loop
      vertex 22.5 62 30
      vertex 25.5 62 27
      vertex 22.5 62 27
    endloop
  endfacet
  facet normal 0 1 0
    outer loop
      vertex 25.5 62 30
      vertex 28.5 62 33
      vertex 28.5 62 30
    endloop
  endfacet
  facet normal 0 1 0
    outer loop
      vertex 28.5 62 33
      vertex 25.5 62 30
      vertex 19.5 62 33
    endloop
  endfacet
  facet normal 0 1 -0
    outer loop
      vertex 22.5 62 30
      vertex 19.5 62 33
      vertex 25.5 62 30
    endloop
  endfacet
  facet normal 0 1 0
    outer loop
      vertex 19.5 62 33
      vertex 22.5 62 30
      vertex 19.5 62 30
    endloop
  endfacet
  facet normal -1 0 0
    outer loop
      vertex 22.5 59 27
      vertex 22.5 62 30
      vertex 22.5 62 27
    endloop
  endfacet
  facet normal -1 -0 0
    outer loop
      vertex 22.5 62 30
      vertex 22.5 59 27
      vertex 22.5 59 30
    endloop
  endfacet
  facet normal 1 -0 0
    outer loop
      vertex 25.5 59 30
      vertex 25.5 62 27
      vertex 25.5 62 30
    endloop
  endfacet
  facet normal 1 0 0
    outer loop
      vertex 25.5 62 27
      vertex 25.5 59 30
      vertex 25.5 59 27
    endloop
  endfacet
  facet normal 0 0 -1
    outer loop
      vertex 22.5 59 27
      vertex 25.5 62 27
      vertex 25.5 59 27
    endloop
  endfacet
  facet normal -0 0 -1
    outer loop
      vertex 25.5 62 27
      vertex 22.5 59 27
      vertex 22.5 62 27
    endloop
  endfacet
  facet normal 0 -1 0
    outer loop
      vertex -3 25 30
      vertex 0 25 33
      vertex -3 25 33
    endloop
  endfacet
  facet normal 0 -1 -0
    outer loop
      vertex 0 25 33
      vertex -3 25 30
      vertex 0 25 30
    endloop
  endfacet
  facet normal -0 0 1
    outer loop
      vertex -3 34 33
      vertex 0 25 33
      vertex 0 34 33
    endloop
  endfacet
  facet normal 0 0 1
    outer loop
      vertex 0 25 33
      vertex -3 34 33
      vertex -3 25 33
    endloop
  endfacet
  facet normal 0 1 -0
    outer loop
      vertex 0 34 30
      vertex -3 34 33
      vertex 0 34 33
    endloop
  endfacet
  facet normal 0 1 0
    outer loop
      vertex -3 34 33
      vertex 0 34 30
      vertex -3 34 30
    endloop
  endfacet
  facet normal 0 0 -1
    outer loop
      vertex -3 25 30
      vertex 0 28 30
      vertex 0 25 30
    endloop
  endfacet
  facet normal -0 0 -1
    outer loop
      vertex 0 28 30
      vertex -3 25 30
      vertex -3 28 30
    endloop
  endfacet
  facet normal 0 0 -1
    outer loop
      vertex -3 31 30
      vertex 0 34 30
      vertex 0 31 30
    endloop
  endfacet
  facet normal -0 0 -1
    outer loop
      vertex 0 34 30
      vertex -3 31 30
      vertex -3 34 30
    endloop
  endfacet
  facet normal -1 0 0
    outer loop
      vertex -3 31 27
      vertex -3 28 27
      vertex -3 31 30
    endloop
  endfacet
  facet normal -1 0 0
    outer loop
      vertex -3 31 30
      vertex -3 34 33
      vertex -3 34 30
    endloop
  endfacet
  facet normal -1 0 0
    outer loop
      vertex -3 28 30
      vertex -3 31 30
      vertex -3 28 27
    endloop
  endfacet
  facet normal -1 0 0
    outer loop
      vertex -3 31 30
      vertex -3 28 30
      vertex -3 34 33
    endloop
  endfacet
  facet normal -1 0 0
    outer loop
      vertex -3 25 33
      vertex -3 28 30
      vertex -3 25 30
    endloop
  endfacet
  facet normal -1 0 0
    outer loop
      vertex -3 28 30
      vertex -3 25 33
      vertex -3 34 33
    endloop
  endfacet
  facet normal 0 -1 0
    outer loop
      vertex -3 28 27
      vertex 0 28 30
      vertex -3 28 30
    endloop
  endfacet
  facet normal 0 -1 -0
    outer loop
      vertex 0 28 30
      vertex -3 28 27
      vertex 0 28 27
    endloop
  endfacet
  facet normal 0 1 -0
    outer loop
      vertex 0 31 27
      vertex -3 31 30
      vertex 0 31 30
    endloop
  endfacet
  facet normal 0 1 0
    outer loop
      vertex -3 31 30
      vertex 0 31 27
      vertex -3 31 27
    endloop
  endfacet
  facet normal 0 0 -1
    outer loop
      vertex -3 28 27
      vertex 0 31 27
      vertex 0 28 27
    endloop
  endfacet
  facet normal -0 0 -1
    outer loop
      vertex 0 31 27
      vertex -3 28 27
      vertex -3 31 27
    endloop
  endfacet
  facet normal 0 -1 0
    outer loop
      vertex 48 25 30
      vertex 51 25 33
      vertex 48 25 33
    endloop
  endfacet
  facet normal 0 -1 -0
    outer loop
      vertex 51 25 33
      vertex 48 25 30
      vertex 51 25 30
    endloop
  endfacet
  facet normal -0 0 1
    outer loop
      vertex 48 34 33
      vertex 51 25 33
      vertex 51 34 33
    endloop
  endfacet
  facet normal 0 0 1
    outer loop
      vertex 51 25 33
      vertex 48 34 33
      vertex 48 25 33
    endloop
  endfacet
  facet normal 0 1 -0
    outer loop
      vertex 51 34 30
      vertex 48 34 33
      vertex 51 34 33
    endloop
  endfacet
  facet normal 0 1 0
    outer loop
      vertex 48 34 33
      vertex 51 34 30
      vertex 48 34 30
    endloop
  endfacet
  facet normal 0 0 -1
    outer loop
      vertex 48 25 30
      vertex 51 28 30
      vertex 51 25 30
    endloop
  endfacet
  facet normal -0 0 -1
    outer loop
      vertex 51 28 30
      vertex 48 25 30
      vertex 48 28 30
    endloop
  endfacet
  facet normal 0 0 -1
    outer loop
      vertex 48 31 30
      vertex 51 34 30
      vertex 51 31 30
    endloop
  endfacet
  facet normal -0 0 -1
    outer loop
      vertex 51 34 30
      vertex 48 31 30
      vertex 48 34 30
    endloop
  endfacet
  facet normal 1 0 0
    outer loop
      vertex 51 34 33
      vertex 51 31 30
      vertex 51 34 30
    endloop
  endfacet
  facet normal 1 0 0
    outer loop
      vertex 51 31 30
      vertex 51 28 30
      vertex 51 31 27
    endloop
  endfacet
  facet normal 1 0 0
    outer loop
      vertex 51 34 33
      vertex 51 28 30
      vertex 51 31 30
    endloop
  endfacet
  facet normal 1 -0 0
    outer loop
      vertex 51 25 33
      vertex 51 28 30
      vertex 51 34 33
    endloop
  endfacet
  facet normal 1 0 0
    outer loop
      vertex 51 28 30
      vertex 51 25 33
      vertex 51 25 30
    endloop
  endfacet
  facet normal 1 0 0
    outer loop
      vertex 51 31 27
      vertex 51 28 30
      vertex 51 28 27
    endloop
  endfacet
  facet normal -1 0 0
    outer loop
      vertex 48 31 27
      vertex 48 28 27
      vertex 48 31 30
    endloop
  endfacet
  facet normal -1 0 0
    outer loop
      vertex 48 31 30
      vertex 48 34 33
      vertex 48 34 30
    endloop
  endfacet
  facet normal -1 0 0
    outer loop
      vertex 48 28 30
      vertex 48 31 30
      vertex 48 28 27
    endloop
  endfacet
  facet normal -1 0 0
    outer loop
      vertex 48 31 30
      vertex 48 28 30
      vertex 48 34 33
    endloop
  endfacet
  facet normal -1 0 0
    outer loop
      vertex 48 25 33
      vertex 48 28 30
      vertex 48 25 30
    endloop
  endfacet
  facet normal -1 0 0
    outer loop
      vertex 48 28 30
      vertex 48 25 33
      vertex 48 34 33
    endloop
  endfacet
  facet normal 0 -1 0
    outer loop
      vertex 48 28 27
      vertex 51 28 30
      vertex 48 28 30
    endloop
  endfacet
  facet normal 0 -1 -0
    outer loop
      vertex 51 28 30
      vertex 48 28 27
      vertex 51 28 27
    endloop
  endfacet
  facet normal 0 1 -0
    outer loop
      vertex 51 31 27
      vertex 48 31 30
      vertex 51 31 30
    endloop
  endfacet
  facet normal 0 1 0
    outer loop
      vertex 48 31 30
      vertex 51 31 27
      vertex 48 31 27
    endloop
  endfacet
  facet normal 0 0 -1
    outer loop
      vertex 48 28 27
      vertex 51 31 27
      vertex 51 28 27
    endloop
  endfacet
  facet normal -0 0 -1
    outer loop
      vertex 51 31 27
      vertex 48 28 27
      vertex 48 31 27
    endloop
  endfacet
endsolid OpenSCAD_Model
