solid OpenSCAD_Model
  facet normal -1 0 0
    outer loop
      vertex -22.5 -22.5 0
      vertex -22.5 22.5 5
      vertex -22.5 22.5 0
    endloop
  endfacet
  facet normal -1 -0 0
    outer loop
      vertex -22.5 22.5 5
      vertex -22.5 -22.5 0
      vertex -22.5 -22.5 5
    endloop
  endfacet
  facet normal 0 0 1
    outer loop
      vertex 22.5 22.5 5
      vertex 17.5 17.5 5
      vertex 22.5 -22.5 5
    endloop
  endfacet
  facet normal 0 0 1
    outer loop
      vertex 22.5 22.5 5
      vertex -17.5 17.5 5
      vertex 17.5 17.5 5
    endloop
  endfacet
  facet normal 0 0 1
    outer loop
      vertex -17.5 17.5 5
      vertex -22.5 22.5 5
      vertex -17.5 -17.5 5
    endloop
  endfacet
  facet normal -0 0 1
    outer loop
      vertex -22.5 22.5 5
      vertex -17.5 17.5 5
      vertex 22.5 22.5 5
    endloop
  endfacet
  facet normal -0 0 1
    outer loop
      vertex 17.5 -17.5 5
      vertex 22.5 -22.5 5
      vertex 17.5 17.5 5
    endloop
  endfacet
  facet normal -0 0 1
    outer loop
      vertex -17.5 -17.5 5
      vertex 22.5 -22.5 5
      vertex 17.5 -17.5 5
    endloop
  endfacet
  facet normal 0 0 1
    outer loop
      vertex -17.5 -17.5 5
      vertex -22.5 -22.5 5
      vertex 22.5 -22.5 5
    endloop
  endfacet
  facet normal 0 0 1
    outer loop
      vertex -22.5 -22.5 5
      vertex -17.5 -17.5 5
      vertex -22.5 22.5 5
    endloop
  endfacet
  facet normal 1 -0 0
    outer loop
      vertex 22.5 -22.5 5
      vertex 22.5 22.5 0
      vertex 22.5 22.5 5
    endloop
  endfacet
  facet normal 1 0 0
    outer loop
      vertex 22.5 22.5 0
      vertex 22.5 -22.5 5
      vertex 22.5 -22.5 0
    endloop
  endfacet
  facet normal 0 1 -0
    outer loop
      vertex 22.5 22.5 0
      vertex -22.5 22.5 5
      vertex 22.5 22.5 5
    endloop
  endfacet
  facet normal 0 1 0
    outer loop
      vertex -22.5 22.5 5
      vertex 22.5 22.5 0
      vertex -22.5 22.5 0
    endloop
  endfacet
  facet normal 0 0 -1
    outer loop
      vertex 22.5 -22.5 0
      vertex 10 -10 0
      vertex 22.5 22.5 0
    endloop
  endfacet
  facet normal 0 0 -1
    outer loop
      vertex 22.5 -22.5 0
      vertex -10 -10 0
      vertex 10 -10 0
    endloop
  endfacet
  facet normal -0 0 -1
    outer loop
      vertex -10 -10 0
      vertex -22.5 -22.5 0
      vertex -10 10 0
    endloop
  endfacet
  facet normal 0 0 -1
    outer loop
      vertex -22.5 -22.5 0
      vertex -10 -10 0
      vertex 22.5 -22.5 0
    endloop
  endfacet
  facet normal 0 0 -1
    outer loop
      vertex 10 10 0
      vertex 22.5 22.5 0
      vertex 10 -10 0
    endloop
  endfacet
  facet normal 0 0 -1
    outer loop
      vertex -10 10 0
      vertex 22.5 22.5 0
      vertex 10 10 0
    endloop
  endfacet
  facet normal 0 0 -1
    outer loop
      vertex -10 10 0
      vertex -22.5 22.5 0
      vertex 22.5 22.5 0
    endloop
  endfacet
  facet normal 0 0 -1
    outer loop
      vertex -22.5 22.5 0
      vertex -10 10 0
      vertex -22.5 -22.5 0
    endloop
  endfacet
  facet normal 0 -1 0
    outer loop
      vertex -22.5 -22.5 0
      vertex 22.5 -22.5 5
      vertex -22.5 -22.5 5
    endloop
  endfacet
  facet normal 0 -1 -0
    outer loop
      vertex 22.5 -22.5 5
      vertex -22.5 -22.5 0
      vertex 22.5 -22.5 0
    endloop
  endfacet
  facet normal 1 -0 0
    outer loop
      vertex -17.5 -17.5 5
      vertex -17.5 17.5 1
      vertex -17.5 17.5 5
    endloop
  endfacet
  facet normal 1 0 0
    outer loop
      vertex -17.5 17.5 1
      vertex -17.5 -17.5 5
      vertex -17.5 -17.5 1
    endloop
  endfacet
  facet normal -1 0 0
    outer loop
      vertex 17.5 -17.5 1
      vertex 17.5 17.5 5
      vertex 17.5 17.5 1
    endloop
  endfacet
  facet normal -1 -0 0
    outer loop
      vertex 17.5 17.5 5
      vertex 17.5 -17.5 1
      vertex 17.5 -17.5 5
    endloop
  endfacet
  facet normal 0 -1 0
    outer loop
      vertex -17.5 17.5 1
      vertex 17.5 17.5 5
      vertex -17.5 17.5 5
    endloop
  endfacet
  facet normal 0 -1 -0
    outer loop
      vertex 17.5 17.5 5
      vertex -17.5 17.5 1
      vertex 17.5 17.5 1
    endloop
  endfacet
  facet normal 0 1 -0
    outer loop
      vertex 17.5 -17.5 1
      vertex -17.5 -17.5 5
      vertex 17.5 -17.5 5
    endloop
  endfacet
  facet normal 0 1 0
    outer loop
      vertex -17.5 -17.5 5
      vertex 17.5 -17.5 1
      vertex -17.5 -17.5 1
    endloop
  endfacet
  facet normal 0 0 1
    outer loop
      vertex 17.5 17.5 1
      vertex 10 10 1
      vertex 17.5 -17.5 1
    endloop
  endfacet
  facet normal 0 0 1
    outer loop
      vertex 17.5 17.5 1
      vertex -10 10 1
      vertex 10 10 1
    endloop
  endfacet
  facet normal 0 0 1
    outer loop
      vertex -10 10 1
      vertex -17.5 17.5 1
      vertex -10 -10 1
    endloop
  endfacet
  facet normal -0 0 1
    outer loop
      vertex -17.5 17.5 1
      vertex -10 10 1
      vertex 17.5 17.5 1
    endloop
  endfacet
  facet normal -0 0 1
    outer loop
      vertex 10 -10 1
      vertex 17.5 -17.5 1
      vertex 10 10 1
    endloop
  endfacet
  facet normal -0 0 1
    outer loop
      vertex -10 -10 1
      vertex 17.5 -17.5 1
      vertex 10 -10 1
    endloop
  endfacet
  facet normal 0 0 1
    outer loop
      vertex -10 -10 1
      vertex -17.5 -17.5 1
      vertex 17.5 -17.5 1
    endloop
  endfacet
  facet normal 0 0 1
    outer loop
      vertex -17.5 -17.5 1
      vertex -10 -10 1
      vertex -17.5 17.5 1
    endloop
  endfacet
  facet normal 1 -0 0
    outer loop
      vertex -10 -10 1
      vertex -10 10 0
      vertex -10 10 1
    endloop
  endfacet
  facet normal 1 0 0
    outer loop
      vertex -10 10 0
      vertex -10 -10 1
      vertex -10 -10 0
    endloop
  endfacet
  facet normal -1 0 0
    outer loop
      vertex 10 -10 0
      vertex 10 10 1
      vertex 10 10 0
    endloop
  endfacet
  facet normal -1 -0 0
    outer loop
      vertex 10 10 1
      vertex 10 -10 0
      vertex 10 -10 1
    endloop
  endfacet
  facet normal 0 -1 0
    outer loop
      vertex -10 10 0
      vertex 10 10 1
      vertex -10 10 1
    endloop
  endfacet
  facet normal 0 -1 -0
    outer loop
      vertex 10 10 1
      vertex -10 10 0
      vertex 10 10 0
    endloop
  endfacet
  facet normal 0 1 -0
    outer loop
      vertex 10 -10 0
      vertex -10 -10 1
      vertex 10 -10 1
    endloop
  endfacet
  facet normal 0 1 0
    outer loop
      vertex -10 -10 1
      vertex 10 -10 0
      vertex -10 -10 0
    endloop
  endfacet
endsolid OpenSCAD_Model
